<svg width="10" height="18" viewBox="0 0 10 18" fill="none" xmlns="http://www.w3.org/2000/svg">
<path d="M0.559265 16.8749C0.559528 16.5766 0.678226 16.2907 0.889265 16.0799L6.64326 10.3259C6.81743 10.1518 6.95558 9.94506 7.04984 9.71754C7.1441 9.49002 7.19261 9.24616 7.19261 8.99989C7.19261 8.75362 7.1441 8.50976 7.04984 8.28225C6.95558 8.05473 6.81743 7.84801 6.64326 7.67389L0.896765 1.92364C0.691837 1.71146 0.578444 1.42729 0.581007 1.13231C0.58357 0.837343 0.701885 0.555179 0.910469 0.346595C1.11905 0.138011 1.40122 0.0196956 1.69619 0.0171324C1.99116 0.0145691 2.27534 0.127963 2.48751 0.332891L8.23401 6.07864C9.00669 6.85284 9.44065 7.90196 9.44065 8.99577C9.44065 10.0896 9.00669 11.1387 8.23401 11.9129L2.48002 17.6669C2.32291 17.8241 2.12275 17.9313 1.9048 17.9748C1.68685 18.0184 1.46088 17.9964 1.25541 17.9117C1.04993 17.827 0.874153 17.6833 0.750259 17.4988C0.626365 17.3142 0.559904 17.0972 0.559265 16.8749Z" fill="#173468"/>
</svg>
