<svg width="40" height="30" viewBox="0 0 40 30" fill="none" xmlns="http://www.w3.org/2000/svg">
<rect y="0.234375" width="40" height="29" rx="4" fill="#003D79"/>
<path fill-rule="evenodd" clip-rule="evenodd" d="M2.89351 15.5928C2.89351 15.0727 2.88449 14.6362 2.85742 14.2471H3.79649L3.84052 14.9157H3.86687C4.07971 14.5624 4.46894 14.1445 5.19499 14.1445C5.76169 14.1445 6.20434 14.4795 6.38993 14.9805H6.40816C6.55893 14.73 6.73541 14.5445 6.93887 14.414C7.17814 14.2379 7.4527 14.1445 7.80684 14.1445C8.52377 14.1445 9.24927 14.655 9.24927 16.1032V18.7668H8.18705V16.2705C8.18705 15.5188 7.93956 15.0727 7.41751 15.0727C7.04506 15.0727 6.77032 15.3516 6.65601 15.6767C6.62912 15.7877 6.6026 15.9271 6.6026 16.0561V18.7668H5.54001V16.1494C5.54001 15.5188 5.30136 15.0727 4.79664 15.0727C4.38936 15.0727 4.11526 15.4074 4.01763 15.7223C3.97306 15.8344 3.9552 15.9639 3.9552 16.0936V18.7668H2.89351V15.5928Z" fill="white"/>
<path fill-rule="evenodd" clip-rule="evenodd" d="M13.3878 17.681C13.3878 18.0892 13.4055 18.4876 13.4498 18.7668H12.4668L12.3962 18.2658H12.3693C12.1039 18.6188 11.6524 18.869 11.0947 18.869C10.2269 18.869 9.74023 18.2105 9.74023 17.5233C9.74023 16.3813 10.7048 15.8064 12.2985 15.8155V15.741C12.2985 15.4439 12.1833 14.9523 11.422 14.9523C10.9969 14.9523 10.5541 15.0916 10.2621 15.2862L10.0493 14.5443C10.3687 14.3397 10.9269 14.1445 11.608 14.1445C12.9896 14.1445 13.3878 15.064 13.3878 16.0474V17.681ZM12.325 16.5581C11.5549 16.5394 10.8203 16.7157 10.8203 17.4026C10.8203 17.8477 11.0947 18.0523 11.4401 18.0523C11.8733 18.0523 12.1926 17.7552 12.2896 17.4304C12.316 17.3469 12.325 17.2537 12.325 17.1798V16.5581Z" fill="white"/>
<path fill-rule="evenodd" clip-rule="evenodd" d="M14.141 15.5928C14.141 15.0727 14.1313 14.6362 14.1055 14.2471H15.0608L15.1142 14.9245H15.1404C15.3265 14.5723 15.7957 14.1445 16.5126 14.1445C17.2653 14.1445 18.0444 14.655 18.0444 16.0846V18.7668H16.9556V16.2149C16.9556 15.5648 16.7254 15.0727 16.1322 15.0727C15.6984 15.0727 15.3975 15.3976 15.2821 15.7412C15.2473 15.8435 15.2381 15.9831 15.2381 16.1121V18.7668H14.141V15.5928Z" fill="white"/>
<path fill-rule="evenodd" clip-rule="evenodd" d="M22.7651 12.4307V17.4947C22.7651 17.9587 22.7825 18.4608 22.8003 18.7667H21.8264L21.7829 18.0522H21.7648C21.5079 18.5536 20.9848 18.8689 20.3569 18.8689C19.3304 18.8689 18.5157 17.9502 18.5157 16.558C18.5067 15.0449 19.4096 14.1444 20.4453 14.1444C21.0383 14.1444 21.4636 14.4046 21.6581 14.739H21.676V12.4307H22.7651ZM21.676 16.1303C21.676 16.0385 21.6669 15.9266 21.6499 15.834C21.5523 15.3885 21.2069 15.0263 20.7111 15.0263C20.0117 15.0263 19.6221 15.6764 19.6221 16.521C19.6221 17.3468 20.0117 17.9502 20.7022 17.9502C21.1447 17.9502 21.5345 17.6347 21.6406 17.1429C21.6669 17.0404 21.676 16.9292 21.676 16.8081V16.1303Z" fill="white"/>
<path fill-rule="evenodd" clip-rule="evenodd" d="M23.5342 18.7666H24.633V14.2471H23.5342V18.7666Z" fill="white"/>
<path fill-rule="evenodd" clip-rule="evenodd" d="M25.4028 15.7039C25.4028 15.0915 25.3936 14.6547 25.3672 14.2467H26.3146L26.3493 15.1096H26.386C26.5981 14.4692 27.1029 14.2467 27.563 14.2467C27.669 14.2467 27.7309 14.2277 27.8197 14.2467V15.2494C27.7309 15.2309 27.6337 15.2123 27.5009 15.2123C26.9787 15.2123 26.6243 15.5647 26.527 16.0748C26.5098 16.177 26.4919 16.2982 26.4919 16.4287V18.7668H25.4028V15.7039Z" fill="white"/>
<path fill-rule="evenodd" clip-rule="evenodd" d="M28.3242 18.7666H29.4215V14.2471H28.3242V18.7666Z" fill="white"/>
<path fill-rule="evenodd" clip-rule="evenodd" d="M28.0644 8.7829C27.4053 9.18303 25.8507 10.1178 25.2704 10.4659V10.4659C24.9167 10.6548 24.0976 10.7373 23.6342 10.0823V10.0823C23.6259 10.0705 23.018 9.27413 22.9932 9.24414V9.24414C22.9758 9.22295 22.5828 8.61178 21.707 8.59267V8.59267C21.5776 8.58946 20.9343 8.58586 20.3066 8.95989V8.95989C19.4723 9.45962 17.5319 10.6227 17.5319 10.6227V10.6227C17.5314 10.6227 17.5314 10.6237 17.5304 10.6237V10.6237C16.7328 11.1021 16.1113 11.4747 16.1113 11.4747V11.4747L16.8456 12.4201C17.1891 12.8673 17.9637 13.2132 18.6354 12.8089V12.8089C18.6354 12.8089 21.1174 11.302 21.1265 11.2977V11.2977C22.1999 10.6804 23.0282 10.6804 23.5779 10.9101V10.9101C24.0714 11.1287 24.5007 11.6734 24.5007 11.6734V11.6734C24.5007 11.6734 25.0617 12.4023 25.1607 12.5298V12.5298C25.4799 12.9418 26.0083 12.78 26.0083 12.78V12.78C26.0083 12.78 26.204 12.7567 26.4992 12.573V12.573C26.4992 12.573 28.9033 11.1115 28.9049 11.111V11.111C29.6683 10.6415 30.3684 10.5538 30.7262 10.5883V10.5883C31.847 10.6951 32.1952 11.516 32.6812 12.0887V12.0887C32.9674 12.4255 33.2256 12.6168 33.6205 12.6071V12.6071C33.88 12.6014 34.1731 12.4364 34.2164 12.4066V12.4066L37.0953 10.6647C37.0953 10.6647 36.7999 10.1983 36.1949 9.47258V9.47258C35.6535 8.82509 35.0784 9.11805 34.6198 9.35614V9.35614C34.4272 9.45603 33.7292 9.94281 33.0377 10.2824V10.2824C32.545 10.5243 31.8373 10.4515 31.4494 9.94905V9.94905C31.4262 9.9185 30.7987 9.12202 30.7327 9.02402V9.02402C30.4795 8.69143 29.9853 8.39355 29.352 8.39355V8.39355C28.9669 8.39355 28.53 8.50366 28.0644 8.7829" fill="url(#paint0_linear_2365_24797)"/>
<defs>
<linearGradient id="paint0_linear_2365_24797" x1="16.1113" y1="12.9879" x2="37.0953" y2="12.9879" gradientUnits="userSpaceOnUse">
<stop stop-color="#FFCA06"/>
<stop offset="0.330844" stop-color="#FBAA18"/>
<stop offset="0.694742" stop-color="#FFC907"/>
<stop offset="1" stop-color="#FAA619"/>
</linearGradient>
</defs>
</svg>
