<svg width="40" height="30" viewBox="0 0 40 30" fill="none" xmlns="http://www.w3.org/2000/svg">
<rect y="0.293945" width="40" height="29" rx="4" fill="white"/>
<path fill-rule="evenodd" clip-rule="evenodd" d="M6.48702 17.5147L7.84451 19.2209H4.48361L6.48702 17.5147ZM6.06015 16.9876L3.43108 19.2261L3.43 13.7207L6.06015 16.9876ZM12.3859 11.444C12.3859 11.444 11.8088 11.1666 11.1383 11.2071C10.3717 11.253 9.73042 11.5513 9.36176 11.9451C9.12978 12.1924 8.87333 12.4942 8.74451 12.8219C8.5577 13.2959 8.51781 13.9223 8.51781 13.9223C8.51781 13.9223 8.24972 13.6914 7.91383 13.0184C7.52328 12.2356 7.41645 11.7614 7.36352 11.2205C7.31641 10.7458 7.39036 10.2764 7.39036 10.2764H12.3859V11.444ZM12.3859 13.0047V16.4761C12.3859 16.4761 12.0753 16.5971 11.822 16.5971C11.5687 16.5971 11.1373 16.559 10.6362 16.2794C10.1389 16.0021 9.86355 15.6666 9.65011 15.3626C9.43366 15.0533 9.25493 14.6246 9.20179 14.3157C9.1591 14.0686 9.11307 13.4522 9.36176 12.9512C9.49672 12.6793 9.85892 12.2133 10.5563 12.1868C11.1247 12.1646 11.4399 12.3163 11.7288 12.4772C12.2785 12.7841 12.3859 13.0047 12.3859 13.0047ZM6.94635 16.2323L7.84742 15.47C7.56025 15.0976 7.48436 14.9573 7.16334 14.4766C6.83467 13.9847 6.55935 13.4434 6.32393 12.8083C6.06909 12.1203 6.00754 11.7341 6.03568 11.2205C6.07093 10.567 6.21731 10.2764 6.21731 10.2764H3.42871L3.43 11.8018C3.43 11.8018 5.5646 14.517 6.94635 16.2323ZM9.52097 19.2184H12.3859V17.0981C12.3859 17.0981 11.6753 17.429 11.2134 17.4557C10.9384 17.472 10.6715 17.4827 10.2408 17.3664C9.76212 17.2373 9.49014 17.1115 9.04645 16.74C8.69007 16.4421 8.2826 16.0021 8.2826 16.0021L7.37624 16.7691C7.79676 17.2912 8.10732 17.6712 8.2024 17.7735C8.61117 18.212 8.7844 18.3731 9.05971 18.5294C9.33492 18.6859 10.2544 18.6775 10.2544 18.6775L9.52097 19.2184Z" fill="#E94E0F"/>
<path fill-rule="evenodd" clip-rule="evenodd" d="M34.053 17.3324C34.053 17.9467 34.1346 18.9565 33.4568 19.2024V19.2433H36.0312V19.2024C35.3538 18.9431 35.4351 17.9467 35.4351 17.3324V12.187C35.4351 11.573 35.3538 10.5629 36.0312 10.3036V10.2627H33.4568V10.3036C34.1478 10.5629 34.053 11.5593 34.053 12.187V17.3324ZM24.6131 12.187L29.2608 18.1241C29.8568 18.9019 30.2771 19.3525 31.239 19.6799V12.0232C31.239 11.259 31.239 10.713 31.9438 10.3036V10.2627H29.5588V10.3036C30.2771 10.713 30.2633 11.259 30.2633 12.0232V17.196L25.3043 10.8904L25.1143 10.6174C25.0197 10.5083 24.9656 10.4401 24.9114 10.2764V10.2627H22.9327V10.3036C23.6374 10.713 23.6374 11.259 23.6374 12.0232V17.4692C23.6374 18.2333 23.6374 18.7791 22.9195 19.2024V19.2433H25.3179V19.2024C24.5996 18.7791 24.6131 18.2333 24.6131 17.4692V12.187ZM17.0372 13.8796V11.2045L17.9449 11.1088C18.758 11.0269 19.625 11.5183 19.625 12.4602C19.625 13.5793 18.3648 13.8796 17.4844 13.8796H17.0372ZM17.0372 18.1514V14.7801L17.9855 14.7256C19.178 14.6573 20.4516 15.2308 20.4516 16.5546C20.4516 17.8512 19.3273 18.3698 18.2159 18.2606L17.0372 18.1514ZM15.6549 17.3188C15.6549 17.9467 15.7363 18.9431 15.0586 19.2024V19.2433H17.2944C18.3106 19.2433 19.3814 19.2843 20.3297 18.8203C21.2375 18.3834 21.9558 17.4825 21.9558 16.4316C21.9558 15.0943 20.9664 14.2752 19.7469 14.0157C20.5194 13.6747 21.1018 13.1561 21.1018 12.2416C21.1018 11.0269 20.0588 10.2627 18.2703 10.2627H15.0586V10.3036C15.75 10.5629 15.6549 11.5593 15.6549 12.1733V17.3188Z" fill="#005B6A"/>
</svg>
