<svg width="40" height="30" viewBox="0 0 40 30" fill="none" xmlns="http://www.w3.org/2000/svg">
<rect y="0.352539" width="40" height="29" rx="4" fill="#0060AF"/>
<path fill-rule="evenodd" clip-rule="evenodd" d="M8.22674 17.6319C8.22674 17.2427 8.23116 16.2024 8.22113 16.0742C8.22987 14.5262 7.05352 13.4342 6.31036 13.5193C5.79612 13.562 5.36505 13.7626 5.13374 14.3398C4.91917 14.8777 5.11101 15.5932 5.82409 15.761C6.58648 15.9413 7.03181 16.0914 7.35403 16.303C7.74884 16.5621 8.07115 17.0571 8.07971 17.6325" fill="white"/>
<path fill-rule="evenodd" clip-rule="evenodd" d="M7.90894 17.632C7.91143 17.1331 7.6204 16.6919 7.24003 16.4548C6.90263 16.2453 6.44967 16.1077 5.71893 15.9303C5.49305 15.875 5.25676 15.7522 5.18362 15.5957C4.99012 15.7823 4.95497 16.2017 4.98902 16.4468C5.02858 16.7304 5.375 17.1979 5.8966 17.2162C6.21514 17.2284 6.61786 17.1506 6.81099 17.1113C7.14416 17.0425 7.67128 17.2421 7.7552 17.6314" fill="white"/>
<path fill-rule="evenodd" clip-rule="evenodd" d="M8.49628 11.1064C7.61179 11.1064 6.84792 11.6645 6.85059 12.6302C6.85335 13.4422 7.53588 13.8769 7.77952 14.1874C8.14756 14.6553 8.34676 15.2092 8.36737 16.0566C8.38357 16.731 8.38274 17.397 8.38633 17.6331H8.58148C8.57817 17.3861 8.56933 16.6791 8.57936 16.0357C8.59261 15.188 8.79899 14.6553 9.16721 14.1874C9.41297 13.8769 10.0949 13.4422 10.0963 12.6302C10.0997 11.6645 9.33614 11.1064 8.45257 11.1064" fill="white"/>
<path fill-rule="evenodd" clip-rule="evenodd" d="M8.7208 17.6319C8.7208 17.2427 8.7162 16.2024 8.72604 16.0742C8.7174 14.5262 9.893 13.4342 10.6368 13.5193C11.1511 13.562 11.5816 13.7626 11.8136 14.3398C12.0279 14.8777 11.8351 15.5932 11.1229 15.761C10.36 15.9413 9.91527 16.0914 9.59222 16.303C9.19787 16.5621 8.8981 17.0571 8.8889 17.6325" fill="white"/>
<path fill-rule="evenodd" clip-rule="evenodd" d="M9.03908 17.632C9.03632 17.1331 9.32726 16.6919 9.70652 16.4548C10.0454 16.2453 10.4988 16.1077 11.2289 15.9303C11.4553 15.875 11.6913 15.7522 11.7631 15.5957C11.9575 15.7823 11.9927 16.2017 11.9585 16.4468C11.9182 16.7304 11.5727 17.1979 11.052 17.2162C10.7336 17.2284 10.3287 17.1506 10.1364 17.1113C9.80451 17.0425 9.27591 17.2421 9.19163 17.6314" fill="white"/>
<path fill-rule="evenodd" clip-rule="evenodd" d="M9.3123 19.2426L9.19922 18.4525L9.4724 18.4129C9.53883 18.4043 9.6198 18.4154 9.65218 18.4552C9.68797 18.4968 9.69892 18.5312 9.70582 18.5858C9.71622 18.6534 9.6958 18.7314 9.6163 18.7703V18.7727C9.705 18.7727 9.75864 18.8337 9.77428 18.9367C9.77649 18.9585 9.7833 19.011 9.77649 19.0549C9.75845 19.1592 9.6935 19.1928 9.58364 19.2075L9.3123 19.2426ZM9.48813 19.1013C9.52052 19.0968 9.55336 19.0951 9.57904 19.0794C9.61842 19.0549 9.61483 19.0024 9.60931 18.9633C9.59569 18.8776 9.57232 18.845 9.47727 18.8584L9.41747 18.8673L9.45537 19.1056L9.48813 19.1013ZM9.43099 18.7361C9.46715 18.7305 9.5161 18.7263 9.53653 18.6935C9.54729 18.6715 9.56091 18.6541 9.55189 18.6053C9.54076 18.5476 9.52079 18.5117 9.44396 18.5256L9.37247 18.5366L9.40072 18.7391L9.43099 18.7361Z" fill="white"/>
<path fill-rule="evenodd" clip-rule="evenodd" d="M10.4957 18.7682C10.4979 18.7829 10.5003 18.7993 10.5013 18.814C10.5233 18.958 10.4957 19.0774 10.3264 19.1102C10.0761 19.1563 10.0281 19.0076 9.98416 18.7993L9.9607 18.6865C9.92619 18.4873 9.91138 18.3364 10.1554 18.2898C10.2929 18.2659 10.3839 18.3182 10.4217 18.4492C10.4276 18.4688 10.4349 18.4881 10.4377 18.5078L10.288 18.5374C10.2707 18.4881 10.2478 18.4001 10.1804 18.4075C10.0595 18.4215 10.0994 18.5654 10.1119 18.6256L10.1569 18.8419C10.1704 18.9073 10.1973 19.0118 10.3019 18.9916C10.3868 18.9753 10.3497 18.8487 10.3422 18.7968" fill="white"/>
<path fill-rule="evenodd" clip-rule="evenodd" d="M10.7363 19.0073L10.6846 18.1896L10.8856 18.1309L11.3073 18.842L11.1489 18.8873L11.049 18.7066L10.8732 18.7571L10.8959 18.9626L10.7363 19.0073ZM10.8585 18.6251L10.9855 18.5899L10.8168 18.259L10.8585 18.6251Z" fill="white"/>
<path fill-rule="evenodd" clip-rule="evenodd" d="M5.76789 18.3884C5.83082 18.1957 5.88713 18.0537 6.12737 18.1167C6.25591 18.1511 6.33559 18.2053 6.33182 18.3482C6.33117 18.3799 6.32022 18.4124 6.31305 18.4438L6.16353 18.4043C6.18313 18.3254 6.19555 18.2628 6.09397 18.2328C5.97657 18.202 5.94795 18.3383 5.93176 18.3971L5.87094 18.6114C5.85162 18.675 5.82843 18.7802 5.93176 18.8074C6.01714 18.8294 6.06885 18.7492 6.09977 18.6322L5.99524 18.6056L6.0314 18.4816L6.27735 18.5572L6.16059 18.9704L6.04741 18.941L6.0729 18.8537H6.06968C6.01751 18.9251 5.95402 18.9326 5.89836 18.9223C5.65242 18.8588 5.67809 18.705 5.73679 18.4995" fill="white"/>
<path fill-rule="evenodd" clip-rule="evenodd" d="M6.68317 18.738L6.6091 19.0741L6.44238 19.0397L6.62005 18.2549L6.90427 18.3162C7.07063 18.3507 7.12086 18.4214 7.09731 18.5674C7.08387 18.6511 7.04072 18.7413 6.93537 18.734L6.93427 18.7327C7.02333 18.7624 7.03088 18.8055 7.01533 18.8797C7.00861 18.9114 6.96233 19.1031 6.99426 19.1341L6.99536 19.1577L6.82284 19.1146C6.81567 19.0615 6.84014 18.9659 6.8498 18.9129C6.85946 18.866 6.87501 18.8 6.82533 18.7753C6.7865 18.7554 6.77196 18.7563 6.72798 18.7467L6.68317 18.738ZM6.7116 18.6164L6.82386 18.6454C6.89203 18.6549 6.92994 18.6211 6.94338 18.5422C6.95552 18.47 6.93979 18.4418 6.8786 18.4278L6.75825 18.4044L6.7116 18.6164Z" fill="white"/>
<path fill-rule="evenodd" clip-rule="evenodd" d="M7.75297 18.4297L7.91785 18.448L7.84682 18.9998C7.81231 19.1747 7.74165 19.2511 7.54052 19.2273C7.33589 19.2025 7.28731 19.1134 7.29963 18.937L7.37122 18.3857L7.53739 18.4039L7.46608 18.9428C7.45844 19.0014 7.44437 19.0881 7.55312 19.0987C7.64964 19.1057 7.67154 19.0444 7.68249 18.9684" fill="white"/>
<path fill-rule="evenodd" clip-rule="evenodd" d="M8.09961 19.2577L8.14929 18.4688L8.46599 18.4819C8.61578 18.489 8.65489 18.6059 8.65029 18.7175C8.64587 18.7854 8.62379 18.8612 8.56196 18.9023C8.51126 18.9373 8.44603 18.9456 8.38567 18.9427L8.28243 18.9373L8.26182 19.2679L8.09961 19.2577ZM8.28703 18.8169L8.37095 18.8214C8.43912 18.8238 8.4843 18.798 8.49019 18.7022C8.49359 18.6103 8.45716 18.5946 8.36883 18.5909L8.3024 18.5887L8.28703 18.8169Z" fill="white"/>
<path fill-rule="evenodd" clip-rule="evenodd" d="M30.4427 11.8696L29.1836 14.0563C28.7084 13.687 28.1282 13.4153 27.3878 13.4153C25.6357 13.4153 24.9239 14.6649 24.9239 15.5451C24.9239 16.1986 25.371 17.1626 26.93 17.1626C27.5845 17.1626 28.5147 16.7271 28.7825 16.5288L27.5373 19.0657C26.9438 19.179 26.7487 19.2492 26.2463 19.2641C23.4559 19.3438 22.3284 17.7036 22.3291 16.0278C22.331 13.8122 24.3897 11.1177 27.8026 11.1177C28.0116 11.1177 28.2674 11.187 28.4861 11.2637L28.7072 10.9932" fill="white"/>
<path fill-rule="evenodd" clip-rule="evenodd" d="M35.6374 11.0615L35.994 19.0086H33.3406L33.3391 17.6457H31.5297L30.9343 19.0086H28.0566L31.0652 13.3337L30.3868 13.3295L31.6757 11.0615H35.6374ZM33.3218 13.4927L32.2989 15.8043H33.3527L33.3218 13.4927Z" fill="white"/>
<path fill-rule="evenodd" clip-rule="evenodd" d="M20.654 11.0617C21.9679 11.0688 22.7105 11.7512 22.7105 12.737C22.7105 13.6458 21.9274 14.4502 21.0677 14.8662C21.9528 15.1776 22.0293 15.9417 22.0293 16.4823C22.0293 17.7884 20.6597 19.0088 18.8792 19.0088H14.9961L16.5108 13.413L15.8886 13.4095L17.1604 11.0617C17.1604 11.0617 19.5854 11.0547 20.654 11.0617ZM19.3648 14.2838C19.6366 14.2838 20.1165 14.218 20.2365 13.7147C20.368 13.1682 19.9176 13.1535 19.7016 13.1535L18.9296 13.1504L18.6604 14.2838H19.3648ZM18.2734 15.6882L17.918 16.9943H18.827C19.1846 16.9943 19.6719 16.8244 19.7914 16.3993C19.9093 15.9731 19.5686 15.6882 19.2123 15.6882H18.2734Z" fill="white"/>
<path fill-rule="evenodd" clip-rule="evenodd" d="M8.53157 19.9849C7.18703 19.9849 5.80541 19.6681 4.42554 19.0414L4.39168 19.0255L4.37549 18.9925C3.75627 17.7419 3.42871 16.374 3.42871 15.0357C3.42871 13.6993 3.74283 12.39 4.36243 11.141L4.37954 11.1078L4.41404 11.0913C5.69049 10.5127 7.06355 10.2197 8.4966 10.2197C9.83139 10.2197 11.2571 10.5459 12.6186 11.1648L12.6535 11.1797L12.6697 11.2135C13.3007 12.4872 13.6335 13.8547 13.6335 15.1709C13.6335 16.4819 13.314 17.7925 12.6821 19.0654L12.6656 19.0987L12.6304 19.1142C11.3734 19.6836 9.95597 19.9849 8.53157 19.9849ZM4.55325 18.8699C5.89365 19.4733 7.23064 19.7779 8.53157 19.7779C9.91098 19.7779 11.2828 19.4894 12.504 18.9426C13.1106 17.7091 13.4181 16.4396 13.4181 15.1709C13.4181 13.897 13.0972 12.572 12.4901 11.3357C11.1687 10.7413 9.78879 10.4262 8.4966 10.4262C7.10928 10.4262 5.77947 10.7077 4.54166 11.2632C3.94746 12.4737 3.64503 13.7422 3.64503 15.0357C3.64503 16.3315 3.95924 17.6572 4.55325 18.8699Z" fill="white"/>
</svg>
