<svg width="406" height="406" viewBox="0 0 406 406" fill="none" xmlns="http://www.w3.org/2000/svg">
<path d="M379.116 256.754H246.037V179.744H379.116V256.754ZM246.849 255.942H378.304V180.556H246.849V255.942Z" fill="#E0E0E0"/>
<path d="M351.661 220.807H263.859V223.381H351.661V220.807Z" fill="#F0F0F0"/>
<path d="M357.71 230.405H263.859V233.214H357.71V230.405Z" fill="#F0F0F0"/>
<path d="M357.71 240.117H263.859V242.926H357.71V240.117Z" fill="#F0F0F0"/>
<path d="M294.545 206.865H263.859V213.548H294.545V206.865Z" fill="#F0F0F0"/>
<path d="M378.709 180.15H246.467V192.412H378.709V180.15Z" fill="#E0E0E0"/>
<path d="M368.535 190.576C368.365 190.414 370.07 188.36 372.335 185.989C374.601 183.618 376.59 181.823 376.753 181.977C376.915 182.132 375.218 184.194 372.952 186.573C370.687 188.952 368.698 190.739 368.535 190.576Z" fill="white"/>
<path d="M376.768 190.576C376.606 190.739 374.625 188.952 372.351 186.573C370.077 184.194 368.38 182.14 368.551 181.977C368.721 181.815 370.695 183.601 372.968 185.989C375.242 188.376 376.923 190.414 376.768 190.576Z" fill="white"/>
<path d="M215.36 27.6486H83.1172V103.855H215.36V27.6486Z" fill="#E6E6E6"/>
<path d="M188.319 68.3135H100.518V70.8876H188.319V68.3135Z" fill="#F0F0F0"/>
<path d="M194.369 77.9114H100.518V80.7209H194.369V77.9114Z" fill="#F0F0F0"/>
<path d="M194.369 87.6229H100.518V90.4324H194.369V87.6229Z" fill="#F0F0F0"/>
<path d="M131.203 54.3715H100.518V61.0543H131.203V54.3715Z" fill="#F0F0F0"/>
<path d="M215.36 27.6486H83.1172V39.9098H215.36V27.6486Z" fill="#E0E0E0"/>
<path d="M204.738 38.0178C204.568 37.8635 206.273 35.8011 208.538 33.43C210.804 31.059 212.793 29.2645 212.956 29.4269C213.118 29.5893 211.421 31.6436 209.156 34.0147C206.89 36.3857 204.901 38.164 204.738 38.0178Z" fill="white"/>
<path d="M212.956 38.0178C212.793 38.1802 210.812 36.3938 208.539 34.0147C206.265 31.6355 204.568 29.5893 204.738 29.4269C204.909 29.2645 206.882 31.0509 209.156 33.43C211.429 35.8092 213.126 37.8636 212.956 38.0178Z" fill="white"/>
<path d="M165.275 169.213H32.2207V92.1945H165.275V169.213ZM33.0327 168.401H164.463V93.0065H33.0327V168.401Z" fill="#E0E0E0"/>
<path d="M137.829 133.265H50.0273V135.839H137.829V133.265Z" fill="#F0F0F0"/>
<path d="M143.878 142.863H50.0273V145.673H143.878V142.863Z" fill="#F0F0F0"/>
<path d="M143.878 152.575H50.0273V155.384H143.878V152.575Z" fill="#F0F0F0"/>
<path d="M80.7128 119.323H50.0273V126.006H80.7128V119.323Z" fill="#F0F0F0"/>
<path d="M164.869 92.6005H32.627V104.862H164.869V92.6005Z" fill="#E0E0E0"/>
<path d="M318.833 186.857H162.686V326.651H318.833V186.857Z" fill="#E6E6E6"/>
<path d="M170.536 142.823H48.2168V269.909H170.536V142.823Z" fill="#F0F0F0"/>
<path d="M170.536 142.823H48.2168V156.667H170.536V142.823Z" fill="#E0E0E0"/>
<path d="M58.3188 149.603C58.2965 150.105 58.1273 150.589 57.8322 150.996C57.537 151.403 57.129 151.714 56.6586 151.891C56.1882 152.068 55.6762 152.103 55.1862 151.991C54.6962 151.88 54.2497 151.627 53.9021 151.264C53.5545 150.901 53.3212 150.444 53.2311 149.949C53.1409 149.455 53.198 148.945 53.3951 148.483C53.5922 148.021 53.9207 147.626 54.3398 147.349C54.759 147.072 55.2503 146.924 55.7529 146.923C56.4478 146.94 57.1078 147.232 57.5885 147.734C58.0693 148.236 58.3319 148.908 58.3188 149.603Z" fill="white"/>
<path d="M68.7358 149.603C68.7151 150.107 68.5465 150.594 68.251 151.004C67.9555 151.413 67.5462 151.727 67.0739 151.905C66.6017 152.084 66.0873 152.119 65.595 152.008C65.1026 151.896 64.6539 151.642 64.3048 151.278C63.9556 150.913 63.7214 150.454 63.6312 149.957C63.5411 149.46 63.599 148.948 63.7978 148.484C63.9965 148.02 64.3274 147.624 64.7492 147.347C65.1709 147.069 65.665 146.922 66.1698 146.923C66.8648 146.94 67.5247 147.232 68.0055 147.734C68.4863 148.236 68.7488 148.908 68.7358 149.603Z" fill="white"/>
<path d="M79.1537 149.603C79.133 150.107 78.9644 150.594 78.669 151.004C78.3735 151.413 77.9641 151.727 77.4919 151.905C77.0196 152.084 76.5053 152.119 76.0129 152.008C75.5206 151.896 75.0719 151.642 74.7227 151.278C74.3736 150.913 74.1393 150.454 74.0492 149.957C73.959 149.46 74.017 148.948 74.2157 148.484C74.4145 148.02 74.7454 147.624 75.1671 147.347C75.5889 147.069 76.083 146.922 76.5878 146.923C77.2828 146.94 77.9427 147.232 78.4235 147.734C78.9043 148.236 79.1668 148.908 79.1537 149.603Z" fill="white"/>
<path d="M361.65 55.4434H205.502V211.071H361.65V55.4434Z" fill="#F0F0F0"/>
<path d="M361.65 55.4434H205.502V73.6728H361.65V55.4434Z" fill="#E0E0E0"/>
<path d="M218.802 64.3753C218.773 65.0381 218.551 65.6778 218.162 66.215C217.773 66.7523 217.234 67.1635 216.614 67.3975C215.993 67.6315 215.317 67.6781 214.67 67.5314C214.024 67.3847 213.434 67.0512 212.975 66.5724C212.516 66.0935 212.208 65.4904 212.088 64.8378C211.969 64.1853 212.044 63.5121 212.304 62.9019C212.564 62.2916 212.998 61.7712 213.551 61.4052C214.104 61.0392 214.753 60.8438 215.416 60.8431C216.333 60.8645 217.204 61.2481 217.838 61.9101C218.473 62.5721 218.82 63.4585 218.802 64.3753Z" fill="white"/>
<path d="M231.525 61.9881C231.975 62.4769 232.272 63.0874 232.377 63.7435C232.483 64.3996 232.393 65.0723 232.119 65.6777C231.845 66.2832 231.399 66.7946 230.837 67.1483C230.274 67.502 229.62 67.6824 228.955 67.6669C228.291 67.6514 227.646 67.4407 227.101 67.0611C226.555 66.6816 226.133 66.1499 225.888 65.5323C225.642 64.9148 225.584 64.2386 225.72 63.5882C225.856 62.9377 226.181 62.3417 226.653 61.8744C227.315 61.2446 228.2 60.903 229.113 60.9243C230.026 60.9456 230.894 61.3281 231.525 61.9881Z" fill="white"/>
<path d="M246.232 64.3753C246.203 65.0381 245.981 65.6778 245.591 66.215C245.202 66.7523 244.664 67.1635 244.043 67.3975C243.423 67.6315 242.747 67.6781 242.1 67.5314C241.453 67.3847 240.864 67.0512 240.405 66.5724C239.946 66.0935 239.637 65.4904 239.518 64.8378C239.399 64.1853 239.474 63.5121 239.734 62.9019C239.994 62.2916 240.427 61.7712 240.981 61.4052C241.534 61.0392 242.182 60.8438 242.846 60.8431C243.763 60.8645 244.634 61.2481 245.268 61.9101C245.903 62.5721 246.249 63.4585 246.232 64.3753Z" fill="white"/>
<path d="M327.919 367.942C327.919 368.055 271.533 368.153 202.002 368.153C132.47 368.153 76.0605 368.055 76.0605 367.942C76.0605 367.828 132.438 367.73 202.002 367.73C271.566 367.73 327.919 367.836 327.919 367.942Z" fill="#263238"/>
<path d="M272.978 268.537C260.433 259.775 257.591 243.511 258.086 228.887C258.167 226.451 257.899 223.868 259.06 221.733C260.222 219.597 262.934 218.128 265.118 219.151C266.929 220.003 267.716 222.114 268.731 223.86C270.086 226.186 272.07 228.08 274.456 229.325C276.007 230.137 277.931 230.624 279.466 229.78C281.577 228.619 281.821 225.72 281.804 223.284C281.804 218.753 281.777 214.227 281.723 209.707C281.577 207.28 281.824 204.845 282.454 202.497C283.209 200.19 284.89 198.055 287.188 197.405C289.486 196.756 292.352 198.096 292.872 200.467C292.962 201.471 292.986 202.48 292.945 203.487C293.01 204.502 293.481 205.615 294.431 205.923C295.381 206.232 296.372 205.525 297.103 204.811C299.604 202.375 301.309 199.2 302.892 196.066C304.476 192.931 306.026 189.708 308.3 187.036C310.574 184.365 313.716 182.245 317.232 182.042C320.748 181.839 324.41 183.999 325.287 187.41C326.164 190.82 324.175 194.303 322.039 197.072C318.817 201.182 315.018 204.806 310.76 207.831C309.929 208.285 309.266 208.994 308.868 209.853C308.341 211.477 309.875 213.101 311.475 213.613C313.286 214.214 315.251 214.027 317.159 214.254C319.067 214.482 321.097 215.31 321.82 217.096C322.81 219.581 320.732 222.179 318.694 223.885C314.601 227.295 309.954 229.978 304.955 231.818C303.168 232.467 301.292 233.044 299.847 234.294C298.402 235.545 297.541 237.729 298.41 239.443C299.279 241.156 301.512 241.7 303.387 241.351C305.263 241.002 306.928 239.995 308.714 239.321C312.052 238.062 316.355 238.29 318.458 241.172C319.11 242.165 319.522 243.296 319.663 244.475C319.804 245.654 319.669 246.85 319.27 247.969C318.457 250.195 317.207 252.235 315.592 253.969C310.274 260.323 303.363 265.151 295.568 267.96C287.83 270.64 280.66 271.37 272.97 268.553" fill="#122750"/>
<path d="M321.714 184.048C321.714 184.048 321.64 184.129 321.478 184.275L320.755 184.917C320.122 185.485 319.188 186.313 318.011 187.41C314.673 190.509 311.573 193.856 308.738 197.422C306.927 199.671 305.051 202.22 303.054 204.989C301.056 207.758 298.994 210.746 296.948 213.921C294.766 217.269 292.768 220.734 290.963 224.299C290.021 226.158 289.193 228.099 288.34 230.08L285.823 236.13C282.505 243.749 279.615 251.549 277.167 259.491C275.195 265.989 273.836 272.658 273.107 279.409C272.635 283.966 272.559 288.554 272.88 293.124C273.01 294.748 273.132 295.99 273.245 296.835C273.294 297.241 273.326 297.566 273.359 297.801V298.134C273.324 298.028 273.299 297.92 273.286 297.809C273.245 297.574 273.197 297.257 273.132 296.851C272.985 296.039 272.831 294.756 272.685 293.132C272.293 288.554 272.32 283.95 272.766 279.377C273.45 272.596 274.779 265.897 276.737 259.369C279.164 251.405 282.046 243.586 285.368 235.951L287.951 229.926C288.803 227.953 289.64 225.996 290.59 224.128C292.407 220.552 294.421 217.08 296.623 213.727C298.701 210.479 300.796 207.539 302.77 204.795C304.743 202.05 306.651 199.484 308.454 197.243C311.317 193.687 314.459 190.363 317.848 187.304C319.05 186.224 320.008 185.412 320.658 184.868L321.413 184.259C321.506 184.178 321.606 184.108 321.714 184.048Z" fill="#263238"/>
<path d="M290.697 224.112C290.582 223.777 290.503 223.432 290.461 223.081C290.331 222.407 290.185 221.457 290.014 220.223C289.665 217.787 289.308 214.449 288.926 210.755C288.545 207.06 288.114 203.715 287.757 201.303C287.57 200.101 287.408 199.135 287.294 198.461C287.206 198.116 287.159 197.761 287.156 197.405C287.296 197.731 287.397 198.071 287.457 198.42C287.635 199.086 287.838 200.044 288.066 201.254C288.529 203.69 288.983 207.003 289.365 210.706C289.747 214.409 290.071 217.657 290.323 220.182C290.445 221.319 290.55 222.285 290.632 223.056C290.695 223.404 290.716 223.759 290.697 224.112Z" fill="#263238"/>
<path d="M321.943 218.282C321.547 218.368 321.145 218.417 320.741 218.428C319.929 218.501 318.776 218.599 317.347 218.761C314.488 219.07 310.558 219.638 306.247 220.45C301.935 221.262 298.062 222.179 295.277 222.886C293.888 223.243 292.767 223.568 292.029 223.787C291.634 223.927 291.226 224.025 290.811 224.08C291.186 223.891 291.577 223.736 291.98 223.617C292.743 223.349 293.847 222.975 295.228 222.577C297.997 221.765 301.87 220.799 306.198 219.971C309.864 219.27 313.563 218.755 317.282 218.428C318.719 218.306 319.88 218.257 320.692 218.241C321.109 218.213 321.528 218.227 321.943 218.282Z" fill="#263238"/>
<path d="M277.136 258.801C277.049 258.683 276.978 258.555 276.925 258.419L276.389 257.29C275.926 256.308 275.301 254.854 274.554 253.076C273.044 249.503 271.119 244.501 269.073 238.947C267.027 233.393 265.143 228.391 263.714 224.778C263.015 223.024 262.439 221.587 262.008 220.515L261.554 219.354C261.491 219.22 261.447 219.078 261.424 218.931C261.51 219.049 261.581 219.177 261.635 219.313L262.171 220.442C262.626 221.424 263.259 222.878 264.006 224.656C265.516 228.229 267.441 233.231 269.487 238.785C271.533 244.339 273.417 249.341 274.846 252.954C275.545 254.708 276.121 256.145 276.543 257.217C276.73 257.68 276.884 258.029 277.006 258.378C277.069 258.512 277.113 258.654 277.136 258.801Z" fill="#263238"/>
<path d="M318.612 245.427C318.482 245.502 318.343 245.559 318.198 245.598L316.996 246.004L312.555 247.441C308.803 248.659 303.623 250.396 297.939 252.313C292.255 254.229 287.05 255.934 283.274 257.071C281.39 257.648 279.855 258.086 278.792 258.378L277.565 258.695C277.423 258.74 277.276 258.77 277.127 258.784C277.257 258.71 277.396 258.652 277.541 258.614L278.743 258.208L283.184 256.771C286.936 255.553 292.116 253.815 297.8 251.899C303.484 249.982 308.681 248.277 312.457 247.14C314.349 246.564 315.876 246.125 316.947 245.833L318.174 245.516C318.316 245.471 318.463 245.441 318.612 245.427Z" fill="#263238"/>
<path d="M301.691 48.4602L297.509 49.9542L295.715 44.4895C292.418 34.4126 281.911 29.0615 272.256 32.4638C262.601 35.866 257.462 46.9174 260.758 56.9943L262.553 62.459L258.355 63.9612C256.754 64.5821 255.454 65.796 254.725 67.3506C253.996 68.9052 253.894 70.6809 254.441 72.3086L266.077 107.866C266.318 108.672 266.719 109.421 267.256 110.069C267.793 110.716 268.454 111.25 269.201 111.637C269.948 112.024 270.765 112.257 271.604 112.322C272.442 112.387 273.286 112.283 274.083 112.015L317.42 96.5143C319.042 95.8945 320.36 94.6698 321.097 93.0979C321.835 91.526 321.934 89.7293 321.374 88.0858L309.73 52.5283C309.482 51.7248 309.075 50.9794 308.533 50.3367C307.991 49.694 307.325 49.167 306.574 48.7874C305.824 48.4077 305.005 48.183 304.166 48.1268C303.327 48.0706 302.485 48.184 301.691 48.4602ZM268.659 54.1442C267.77 51.524 267.93 48.6615 269.104 46.1564C270.279 43.6513 272.377 41.6979 274.96 40.7056C276.235 40.2692 277.586 40.0942 278.93 40.1911C280.274 40.2879 281.586 40.6546 282.785 41.2691C283.985 41.8837 285.048 42.7337 285.912 43.7683C286.776 44.8029 287.423 46.0009 287.814 47.2909L289.6 52.7556L270.445 59.6089L268.659 54.1442ZM293.019 85.6985L295.991 94.7766C296.045 94.9587 296.028 95.1547 295.942 95.3241C295.855 95.4934 295.707 95.6231 295.528 95.6861L291.363 97.172C291.197 97.218 291.02 97.198 290.868 97.1163C290.717 97.0345 290.603 96.8974 290.551 96.7336L287.554 87.696C285.902 87.606 284.317 87.0134 283.011 85.9976C281.705 84.9817 280.74 83.5912 280.246 82.012C279.54 79.9243 279.669 77.6443 280.606 75.6495C281.543 73.6546 283.215 72.0995 285.273 71.3098C286.288 70.9627 287.364 70.8237 288.435 70.9011C289.505 70.9784 290.55 71.2705 291.505 71.76C292.461 72.2495 293.308 72.9263 293.996 73.7502C294.685 74.5741 295.2 75.5281 295.512 76.5554C296.034 78.1595 296.077 79.8812 295.636 81.5095C295.195 83.1378 294.288 84.6021 293.027 85.7228L293.019 85.6985Z" fill="#122750"/>
<path d="M297.322 49.8568C297.322 49.9705 289.567 52.8856 279.921 56.3528C270.274 59.82 262.406 62.6052 262.365 62.524C262.325 62.4428 270.12 59.5034 279.775 56.028C289.429 52.5526 297.281 49.7512 297.322 49.8568Z" fill="#263238"/>
<path d="M306.531 51.3509C306.567 51.4214 306.597 51.4947 306.62 51.5701C306.685 51.7325 306.758 51.9437 306.856 52.2035C307.067 52.7963 307.359 53.6164 307.725 54.6395L310.843 63.7177C312.142 67.5665 313.693 72.13 315.414 77.1968C316.226 79.7384 317.185 82.3855 318.078 85.1707C318.556 86.6059 318.762 88.1177 318.687 89.6286C318.618 90.4143 318.394 91.1787 318.029 91.8778C317.639 92.5745 317.118 93.1894 316.494 93.6886C315.24 94.6043 313.847 95.3142 312.369 95.7916L308.188 97.2938L300.271 100.128L286.865 104.902L277.811 108.085L275.375 108.897L274.725 109.108C274.656 109.139 274.582 109.159 274.506 109.165C274.506 109.165 274.571 109.165 274.709 109.068L275.342 108.816L277.778 107.899L286.783 104.586L300.165 99.7136L308.066 96.8554L312.248 95.345C313.684 94.8871 315.036 94.1987 316.251 93.3069C316.831 92.8437 317.316 92.273 317.68 91.6261C318.024 90.9796 318.231 90.2692 318.289 89.5392C318.364 88.0835 318.165 86.6266 317.704 85.2438C316.827 82.483 315.902 79.8115 315.065 77.2699C313.376 72.1949 311.817 67.6152 310.583 63.7664C309.349 59.9175 308.309 56.8238 307.595 54.6476C307.254 53.5839 306.994 52.7557 306.783 52.1548L306.588 51.5052C306.563 51.456 306.544 51.4042 306.531 51.3509Z" fill="#263238"/>
<path d="M283.665 40.1534C283.665 40.1534 283.235 39.9423 282.439 39.6175C281.305 39.1817 280.105 38.9401 278.891 38.9029C277.09 38.8412 275.299 39.1795 273.645 39.8936C271.634 40.7827 269.915 42.2208 268.684 44.0429C267.445 45.8598 266.78 48.0069 266.776 50.206C266.793 52.0084 267.066 53.7992 267.588 55.5246C268.01 57.0024 268.448 58.1798 268.741 58.9999C268.913 59.4165 269.054 59.8453 269.163 60.2829C268.932 59.8934 268.739 59.4828 268.586 59.0568C268.253 58.2448 267.774 57.0917 267.303 55.6058C266.725 53.8623 266.411 52.0423 266.37 50.206C266.348 47.9238 267.028 45.6901 268.318 43.8074C269.592 41.9188 271.382 40.4362 273.475 39.5363C275.18 38.8183 277.027 38.5016 278.874 38.6106C280.115 38.6738 281.334 38.9628 282.472 39.4632C282.776 39.6035 283.069 39.7663 283.349 39.9504C283.464 40.0011 283.571 40.0696 283.665 40.1534Z" fill="#263238"/>
<path d="M284.038 71.927C284.168 71.8484 284.303 71.7806 284.444 71.724C284.85 71.5406 285.271 71.3912 285.703 71.2774C286.387 71.0754 287.093 70.9554 287.806 70.9201C288.775 70.868 289.745 71.0144 290.656 71.3505C292.734 72.0813 294.643 74.2006 295.585 77.0345C296.036 78.5553 296.036 80.1745 295.585 81.6953C295.084 83.3459 294.186 84.8487 292.97 86.072L293.019 85.8528C294.099 88.8166 295.276 92.0321 296.494 95.3857L296.567 95.5887L296.364 95.6617L294.505 96.2789L290.445 97.6349L290.242 97.6999L290.177 97.4969C289.064 94.1352 287.846 91.0009 286.929 87.9234L287.107 88.0614C285.52 87.9296 284.006 87.3337 282.755 86.3481C281.623 85.4761 280.695 84.3677 280.035 83.1001C279.439 81.976 279.143 80.7177 279.174 79.4461C279.212 78.1464 279.536 76.8712 280.124 75.7117C280.713 74.5521 281.55 73.537 282.576 72.739C282.999 72.396 283.473 72.1219 283.981 71.927C283.522 72.1991 283.078 72.4945 282.649 72.8121C281.522 73.766 280.658 74.9934 280.14 76.3767C279.696 77.4199 279.488 78.5484 279.532 79.6814C279.575 80.8143 279.869 81.9236 280.392 82.9296C281.041 84.149 281.947 85.2129 283.047 86.0477C284.241 86.9845 285.684 87.5493 287.197 87.6717H287.335L287.375 87.7935C288.268 90.8141 289.495 93.9728 290.623 97.3507L290.355 97.2208L294.415 95.8647L296.267 95.2395L296.137 95.5156C294.927 92.162 293.758 88.9384 292.686 85.9746V85.8528L292.783 85.7553C293.964 84.5827 294.844 83.1426 295.349 81.5573C295.78 80.1025 295.78 78.5542 295.349 77.0994C294.464 74.3711 292.637 72.3005 290.656 71.5697C289.779 71.2315 288.842 71.0741 287.903 71.1069C287.202 71.1229 286.504 71.2183 285.824 71.3911C284.614 71.6915 284.046 71.9676 284.038 71.927Z" fill="#263238"/>
<path d="M258.939 306.384L177.828 306.01C173.144 305.985 168.662 304.101 165.365 300.773C162.069 297.444 160.229 292.944 160.248 288.26L161.109 84.9271C161.118 82.6064 161.585 80.3104 162.483 78.1703C163.38 76.0301 164.691 74.0879 166.339 72.4545C167.988 70.8211 169.942 69.5285 172.09 68.6508C174.238 67.7731 176.539 67.3274 178.859 67.3392L259.962 67.7127C264.646 67.7363 269.129 69.6181 272.427 72.9447C275.724 76.2713 277.567 80.7708 277.55 85.4549L276.689 288.78C276.679 291.101 276.213 293.398 275.315 295.539C274.418 297.68 273.108 299.623 271.46 301.258C269.812 302.893 267.857 304.187 265.709 305.066C263.561 305.946 261.26 306.393 258.939 306.384Z" fill="#455A64"/>
<path d="M259.841 74.704H244.12C243.607 74.7135 243.101 74.824 242.631 75.0291C242.161 75.2342 241.736 75.53 241.38 75.8994C241.024 76.2689 240.744 76.7049 240.557 77.1825C240.369 77.6601 240.278 78.1699 240.288 78.6828V81.5329C240.297 82.0455 240.206 82.5549 240.018 83.032C239.831 83.5091 239.551 83.9445 239.195 84.3134C238.839 84.6822 238.414 84.9772 237.944 85.1814C237.473 85.3857 236.968 85.4952 236.455 85.5036L205.81 85.3656C204.773 85.3379 203.79 84.9 203.076 84.1479C202.362 83.3958 201.976 82.391 202.002 81.3543V78.5042C202.028 77.4688 201.643 76.4652 200.93 75.7134C200.218 74.9615 199.237 74.5226 198.202 74.4929H192.672L178.909 74.4279C175.635 74.4084 172.487 75.6869 170.154 77.9835C167.821 80.28 166.493 83.4074 166.461 86.681L165.649 285.15C165.641 286.774 165.954 288.384 166.568 289.887C167.183 291.39 168.087 292.758 169.23 293.911C170.374 295.065 171.733 295.982 173.23 296.611C174.728 297.239 176.334 297.566 177.958 297.574L258.899 297.947C260.524 297.955 262.134 297.642 263.639 297.027C265.143 296.412 266.511 295.507 267.666 294.363C268.82 293.219 269.738 291.859 270.367 290.36C270.995 288.862 271.323 287.254 271.33 285.629L272.142 87.1601C272.162 83.8773 270.877 80.7211 268.57 78.3854C266.263 76.0496 263.123 74.7255 259.841 74.704Z" fill="white"/>
<path d="M248.951 271.468L188.765 271.208C188.14 271.208 187.637 270.526 187.645 269.698L187.71 253.953C187.71 253.141 188.221 252.443 188.846 252.443L249.032 252.719C249.378 252.779 249.688 252.97 249.897 253.253C250.106 253.536 250.197 253.888 250.152 254.237L250.096 269.966C250.096 270.802 249.576 271.476 248.951 271.468Z" fill="#122750"/>
<path d="M207.6 265.169C207.177 265.169 206.77 265.102 206.38 264.966C205.995 264.825 205.697 264.646 205.486 264.429L205.721 263.966C205.922 264.161 206.19 264.326 206.526 264.462C206.868 264.592 207.226 264.657 207.6 264.657C207.958 264.657 208.248 264.614 208.47 264.527C208.698 264.435 208.863 264.313 208.966 264.161C209.074 264.009 209.129 263.841 209.129 263.657C209.129 263.435 209.063 263.256 208.933 263.12C208.809 262.985 208.643 262.879 208.437 262.803C208.231 262.722 208.004 262.651 207.754 262.592C207.505 262.532 207.256 262.47 207.006 262.405C206.757 262.334 206.526 262.242 206.315 262.128C206.109 262.014 205.941 261.865 205.811 261.681C205.686 261.491 205.624 261.245 205.624 260.941C205.624 260.659 205.697 260.402 205.843 260.169C205.995 259.93 206.226 259.74 206.535 259.599C206.844 259.453 207.239 259.38 207.722 259.38C208.042 259.38 208.359 259.426 208.673 259.518C208.988 259.605 209.259 259.727 209.486 259.884L209.283 260.364C209.039 260.201 208.779 260.082 208.502 260.006C208.231 259.93 207.968 259.892 207.714 259.892C207.372 259.892 207.09 259.938 206.868 260.03C206.646 260.123 206.48 260.247 206.372 260.404C206.269 260.556 206.218 260.73 206.218 260.925C206.218 261.147 206.28 261.326 206.405 261.462C206.535 261.597 206.703 261.703 206.909 261.779C207.12 261.855 207.35 261.922 207.6 261.982C207.849 262.042 208.096 262.107 208.34 262.177C208.589 262.248 208.817 262.34 209.023 262.454C209.234 262.562 209.402 262.708 209.527 262.893C209.657 263.077 209.722 263.318 209.722 263.616C209.722 263.893 209.646 264.15 209.494 264.389C209.343 264.622 209.11 264.812 208.795 264.958C208.486 265.099 208.088 265.169 207.6 265.169ZM211.033 265.121V259.429H211.635V265.121H211.033ZM213.487 265.121V259.429H213.983L217.91 264.373H217.65V259.429H218.244V265.121H217.748L213.828 260.177H214.089V265.121H213.487ZM222.598 265.169C222.164 265.169 221.763 265.099 221.394 264.958C221.031 264.812 220.714 264.608 220.443 264.348C220.177 264.088 219.969 263.782 219.817 263.429C219.67 263.077 219.597 262.692 219.597 262.275C219.597 261.857 219.67 261.472 219.817 261.12C219.969 260.768 220.18 260.461 220.451 260.201C220.722 259.941 221.039 259.74 221.402 259.599C221.771 259.453 222.172 259.38 222.606 259.38C223.04 259.38 223.435 259.448 223.793 259.583C224.156 259.719 224.465 259.925 224.72 260.201L224.346 260.583C224.107 260.345 223.845 260.174 223.557 260.071C223.27 259.968 222.961 259.917 222.63 259.917C222.278 259.917 221.953 259.976 221.654 260.096C221.362 260.209 221.104 260.375 220.882 260.592C220.665 260.803 220.494 261.052 220.37 261.34C220.25 261.621 220.191 261.933 220.191 262.275C220.191 262.611 220.25 262.922 220.37 263.21C220.494 263.497 220.665 263.749 220.882 263.966C221.104 264.177 221.362 264.343 221.654 264.462C221.953 264.576 222.275 264.633 222.622 264.633C222.947 264.633 223.254 264.584 223.541 264.486C223.834 264.389 224.102 264.223 224.346 263.99L224.687 264.446C224.416 264.684 224.099 264.866 223.736 264.991C223.373 265.11 222.993 265.169 222.598 265.169ZM224.11 264.373V262.275H224.687V264.446L224.11 264.373ZM208.324 275.169C207.597 275.169 207.025 274.961 206.608 274.543C206.19 274.126 205.982 273.508 205.982 272.689V269.429H206.583V272.665C206.583 273.337 206.735 273.833 207.039 274.153C207.342 274.473 207.771 274.633 208.324 274.633C208.882 274.633 209.313 274.473 209.616 274.153C209.92 273.833 210.072 273.337 210.072 272.665V269.429H210.657V272.689C210.657 273.508 210.448 274.126 210.031 274.543C209.619 274.961 209.05 275.169 208.324 275.169ZM212.47 275.121V269.429H214.601C215.083 269.429 215.498 269.507 215.845 269.665C216.192 269.816 216.457 270.039 216.642 270.331C216.831 270.619 216.926 270.968 216.926 271.38C216.926 271.781 216.831 272.128 216.642 272.421C216.457 272.708 216.192 272.931 215.845 273.088C215.498 273.245 215.083 273.324 214.601 273.324H212.804L213.072 273.039V275.121H212.47ZM213.072 273.088L212.804 272.795H214.585C215.154 272.795 215.585 272.673 215.877 272.429C216.176 272.18 216.325 271.83 216.325 271.38C216.325 270.925 216.176 270.573 215.877 270.323C215.585 270.074 215.154 269.949 214.585 269.949H212.804L213.072 269.665V273.088Z" fill="#E8E8E3"/>
<path d="M200.771 133.046L179.887 132.952L179.869 136.784L200.754 136.879L200.771 133.046Z" fill="#122750"/>
<path opacity="0.1" d="M200.771 133.046L179.887 132.952L179.869 136.784L200.754 136.879L200.771 133.046Z" fill="black"/>
<path d="M261.993 156.578C262.157 156.561 262.318 156.523 262.472 156.464C262.696 156.376 262.892 156.227 263.035 156.033C263.179 155.839 263.265 155.609 263.284 155.368C263.284 154.077 263.284 152.193 263.284 149.773C263.284 148.564 263.284 147.207 263.284 145.713C263.284 145.348 263.284 144.966 263.284 144.585C263.337 144.214 263.256 143.837 263.056 143.521C262.944 143.369 262.799 143.246 262.631 143.16C262.464 143.074 262.278 143.028 262.09 143.026H260.823H249.09L181.174 142.774C181 142.771 180.828 142.81 180.673 142.888C180.517 142.966 180.383 143.08 180.281 143.221C180.085 143.538 180.01 143.916 180.07 144.284C180.07 145.096 180.07 145.908 180.07 146.72C180.07 148.344 180.07 149.968 180.07 151.592C180.07 152.404 180.07 153.216 180.07 154.028C180.036 154.406 180.036 154.787 180.07 155.165C180.113 155.327 180.192 155.477 180.302 155.604C180.411 155.731 180.549 155.831 180.703 155.896C180.863 155.96 181.035 155.99 181.207 155.985H185.34L203.374 156.083L233.905 156.269L254.49 156.432L260.084 156.497H261.538C261.871 156.497 262.033 156.497 262.033 156.497H261.538H260.084H254.49H233.905L203.374 156.399L185.34 156.326H181.207C180.979 156.335 180.752 156.297 180.541 156.213C180.327 156.121 180.137 155.982 179.985 155.807C179.833 155.631 179.723 155.422 179.664 155.198C179.617 154.984 179.6 154.766 179.615 154.548V153.947C179.615 153.135 179.615 152.323 179.615 151.511C179.615 149.887 179.615 148.263 179.615 146.639C179.615 145.827 179.615 145.015 179.615 144.203C179.6 143.987 179.6 143.77 179.615 143.553C179.646 143.315 179.738 143.088 179.883 142.896C180.023 142.7 180.209 142.541 180.423 142.432C180.638 142.323 180.876 142.268 181.117 142.271L249.033 142.644L260.766 142.725H262.033C262.256 142.725 262.476 142.779 262.674 142.883C262.872 142.986 263.042 143.135 263.17 143.318C263.399 143.671 263.491 144.095 263.43 144.512C263.43 144.893 263.43 145.275 263.43 145.64C263.43 147.118 263.43 148.474 263.43 149.7C263.43 152.136 263.373 154.004 263.357 155.303C263.337 155.553 263.246 155.792 263.095 155.992C262.944 156.192 262.739 156.344 262.504 156.432C262.35 156.527 262.173 156.578 261.993 156.578Z" fill="#E0E0E0"/>
<path d="M224.355 146.85H186.158V150.431H224.355V146.85Z" fill="#122750"/>
<path opacity="0.2" d="M224.355 146.85H186.158V150.431H224.355V146.85Z" fill="white"/>
<path d="M200.629 168.01L179.744 167.915L179.727 171.748L200.611 171.843L200.629 168.01Z" fill="#122750"/>
<path opacity="0.1" d="M200.629 168.01L179.744 167.915L179.727 171.748L200.611 171.843L200.629 168.01Z" fill="black"/>
<path d="M261.463 191.543C261.627 191.523 261.79 191.493 261.95 191.453C262.177 191.381 262.386 191.261 262.562 191.102C262.739 190.942 262.879 190.746 262.974 190.528C263.101 190.2 263.151 189.847 263.12 189.496C263.12 189.107 263.12 188.684 263.12 188.213C263.12 187.272 263.12 186.2 263.12 184.965V179.809C263.158 179.436 263.076 179.06 262.884 178.737C262.684 178.406 262.369 178.161 261.999 178.047C261.595 177.975 261.183 177.953 260.773 177.982H249.088L181.408 177.731C181.044 177.731 180.693 177.864 180.419 178.105C180.146 178.345 179.969 178.677 179.922 179.038C179.922 179.809 179.922 180.662 179.922 181.474C179.922 183.098 179.922 184.722 179.922 186.346C179.922 187.158 179.922 187.97 179.922 188.782C179.892 189.161 179.908 189.543 179.971 189.919C180.072 190.248 180.281 190.534 180.564 190.731C180.864 190.921 181.216 191.012 181.571 190.991H182.699H185.046L203.015 191.08L233.441 191.267L253.952 191.429L259.531 191.494H260.984H261.471H260.984H259.531H253.952H233.441L202.999 191.461L185.03 191.397H181.497C181.058 191.423 180.622 191.306 180.255 191.064C179.886 190.808 179.616 190.432 179.492 190C179.419 189.587 179.397 189.167 179.427 188.749C179.427 187.937 179.427 187.125 179.427 186.313C179.427 184.689 179.427 183.065 179.427 181.441C179.427 180.629 179.427 179.817 179.427 179.005C179.486 178.541 179.713 178.114 180.064 177.805C180.415 177.496 180.867 177.325 181.335 177.325L249.015 177.698L260.7 177.787C261.135 177.761 261.572 177.791 261.999 177.877C262.421 178.015 262.777 178.304 262.998 178.689C263.208 179.046 263.299 179.462 263.258 179.874C263.258 180.256 263.258 180.629 263.258 181.003C263.258 182.473 263.258 183.821 263.258 185.063C263.258 186.305 263.258 187.353 263.258 188.311C263.258 188.774 263.258 189.204 263.258 189.602C263.287 189.965 263.229 190.33 263.087 190.666C262.982 190.89 262.829 191.088 262.64 191.248C262.451 191.408 262.23 191.525 261.991 191.591C261.814 191.606 261.635 191.59 261.463 191.543Z" fill="#E0E0E0"/>
<path d="M200.47 204.492L179.586 204.397L179.569 208.23L200.453 208.325L200.47 204.492Z" fill="#122750"/>
<path opacity="0.1" d="M200.47 204.492L179.586 204.397L179.569 208.23L200.453 208.325L200.47 204.492Z" fill="black"/>
<path d="M261.302 228.01C261.466 227.99 261.629 227.96 261.789 227.92C262.015 227.849 262.223 227.73 262.4 227.571C262.576 227.413 262.717 227.219 262.813 227.003C262.94 226.675 262.99 226.322 262.959 225.971C262.959 225.574 262.959 225.159 262.959 224.68C262.959 223.747 262.959 222.667 262.959 221.432V216.276C262.998 215.903 262.915 215.527 262.723 215.204C262.518 214.879 262.205 214.638 261.838 214.522C261.434 214.447 261.022 214.423 260.612 214.449H248.927L181.247 214.197C180.883 214.198 180.532 214.331 180.258 214.572C179.985 214.812 179.808 215.144 179.761 215.505C179.761 216.317 179.761 217.129 179.761 217.941C179.761 219.565 179.761 221.189 179.761 222.813C179.761 223.625 179.761 224.437 179.761 225.249C179.731 225.626 179.747 226.005 179.81 226.377C179.907 226.709 180.117 226.996 180.403 227.189C180.701 227.384 181.055 227.475 181.41 227.449H184.942L202.911 227.547L233.337 227.734L253.848 227.896L259.427 227.961H260.88C261.205 227.961 261.367 227.961 261.367 227.961C261.367 227.961 261.205 227.961 260.88 227.961H259.427H253.848H233.337L202.911 227.872L184.942 227.798H181.41C180.97 227.828 180.533 227.711 180.167 227.466C179.798 227.21 179.528 226.834 179.404 226.402C179.331 225.989 179.309 225.569 179.339 225.151C179.339 224.339 179.339 223.527 179.339 222.715C179.339 221.091 179.339 219.467 179.339 217.843C179.339 217.031 179.339 216.219 179.339 215.367C179.396 214.903 179.621 214.476 179.971 214.167C180.321 213.857 180.772 213.686 181.239 213.686L248.919 214.059L260.604 214.149C261.039 214.122 261.476 214.152 261.903 214.238C262.325 214.376 262.681 214.665 262.902 215.05C263.112 215.408 263.203 215.823 263.162 216.236C263.162 216.617 263.162 216.999 263.162 217.364C263.162 218.834 263.162 220.182 263.162 221.424C263.162 222.667 263.162 223.714 263.162 224.672C263.162 225.135 263.162 225.565 263.162 225.963C263.193 226.327 263.134 226.692 262.991 227.027C262.886 227.251 262.733 227.45 262.544 227.61C262.355 227.769 262.134 227.886 261.895 227.953C261.705 228.018 261.502 228.037 261.302 228.01Z" fill="#E0E0E0"/>
<path d="M223.54 182.827L185.344 182.654L185.328 186.235L223.524 186.408L223.54 182.827Z" fill="#122750"/>
<path opacity="0.2" d="M223.54 182.827L185.344 182.654L185.328 186.235L223.524 186.408L223.54 182.827Z" fill="white"/>
<path d="M188.798 221.384C188.774 221.71 188.655 222.023 188.455 222.282C188.255 222.542 187.983 222.737 187.674 222.843C187.364 222.95 187.03 222.963 186.713 222.881C186.395 222.799 186.109 222.627 185.889 222.384C185.67 222.141 185.526 221.839 185.476 221.515C185.427 221.191 185.473 220.86 185.61 220.563C185.747 220.265 185.968 220.014 186.246 219.841C186.524 219.668 186.847 219.58 187.174 219.589C187.626 219.614 188.051 219.817 188.355 220.153C188.659 220.489 188.818 220.931 188.798 221.384Z" fill="#122750"/>
<path d="M193.97 221.408C193.986 221.637 193.955 221.867 193.878 222.083C193.802 222.299 193.681 222.498 193.525 222.665C193.368 222.833 193.179 222.967 192.969 223.059C192.758 223.15 192.531 223.197 192.302 223.197C192.072 223.197 191.845 223.15 191.635 223.059C191.424 222.967 191.235 222.833 191.078 222.665C190.922 222.498 190.802 222.299 190.725 222.083C190.648 221.867 190.617 221.637 190.633 221.408C190.617 221.179 190.648 220.949 190.725 220.733C190.802 220.517 190.922 220.319 191.078 220.151C191.235 219.983 191.424 219.849 191.635 219.758C191.845 219.666 192.072 219.619 192.302 219.619C192.531 219.619 192.758 219.666 192.969 219.758C193.179 219.849 193.368 219.983 193.525 220.151C193.681 220.319 193.802 220.517 193.878 220.733C193.955 220.949 193.986 221.179 193.97 221.408Z" fill="#122750"/>
<path d="M199.151 221.432C199.128 221.759 199.008 222.071 198.808 222.331C198.608 222.59 198.337 222.785 198.027 222.892C197.717 222.998 197.383 223.012 197.066 222.93C196.749 222.848 196.463 222.675 196.243 222.432C196.023 222.19 195.88 221.888 195.83 221.564C195.78 221.24 195.827 220.909 195.963 220.611C196.1 220.314 196.321 220.063 196.599 219.89C196.877 219.717 197.2 219.629 197.527 219.638C197.979 219.665 198.402 219.868 198.706 220.204C199.009 220.539 199.169 220.98 199.151 221.432Z" fill="#122750"/>
<path d="M204.323 221.457C204.299 221.783 204.18 222.096 203.98 222.355C203.78 222.615 203.509 222.81 203.199 222.916C202.889 223.023 202.555 223.036 202.238 222.954C201.921 222.873 201.635 222.7 201.415 222.457C201.195 222.214 201.052 221.912 201.002 221.588C200.952 221.265 200.999 220.933 201.135 220.636C201.272 220.338 201.493 220.087 201.771 219.914C202.049 219.741 202.372 219.654 202.699 219.662C203.151 219.689 203.574 219.893 203.878 220.228C204.181 220.564 204.341 221.005 204.323 221.457Z" fill="#122750"/>
<path d="M209.496 221.473C209.473 221.8 209.355 222.113 209.156 222.374C208.957 222.635 208.686 222.831 208.377 222.939C208.067 223.046 207.732 223.061 207.415 222.98C207.097 222.899 206.81 222.727 206.589 222.484C206.369 222.241 206.224 221.939 206.174 221.615C206.124 221.291 206.17 220.96 206.306 220.662C206.443 220.364 206.664 220.112 206.943 219.939C207.221 219.766 207.544 219.678 207.872 219.687C208.322 219.714 208.744 219.916 209.047 220.25C209.35 220.583 209.511 221.022 209.496 221.473Z" fill="#122750"/>
<path d="M214.678 221.497C214.655 221.823 214.539 222.135 214.341 222.394C214.144 222.654 213.876 222.851 213.568 222.96C213.261 223.069 212.928 223.086 212.611 223.009C212.295 222.931 212.007 222.763 211.785 222.524C211.563 222.285 211.415 221.987 211.36 221.665C211.305 221.344 211.345 221.013 211.476 220.714C211.606 220.416 211.821 220.161 212.094 219.983C212.367 219.805 212.687 219.71 213.013 219.711C213.47 219.728 213.902 219.925 214.214 220.26C214.526 220.595 214.693 221.04 214.678 221.497Z" fill="#122750"/>
<path d="M219.849 221.522C219.865 221.751 219.834 221.98 219.757 222.197C219.681 222.413 219.56 222.611 219.404 222.779C219.247 222.947 219.058 223.081 218.847 223.172C218.637 223.264 218.41 223.311 218.181 223.311C217.951 223.311 217.724 223.264 217.514 223.172C217.303 223.081 217.114 222.947 216.957 222.779C216.801 222.611 216.68 222.413 216.604 222.197C216.527 221.98 216.496 221.751 216.512 221.522C216.496 221.293 216.527 221.063 216.604 220.847C216.68 220.63 216.801 220.432 216.957 220.264C217.114 220.097 217.303 219.963 217.514 219.871C217.724 219.78 217.951 219.733 218.181 219.733C218.41 219.733 218.637 219.78 218.847 219.871C219.058 219.963 219.247 220.097 219.404 220.264C219.56 220.432 219.681 220.63 219.757 220.847C219.834 221.063 219.865 221.293 219.849 221.522Z" fill="#122750"/>
<path d="M225.021 221.546C224.999 221.871 224.882 222.183 224.685 222.443C224.488 222.703 224.219 222.9 223.912 223.009C223.605 223.118 223.272 223.135 222.955 223.057C222.638 222.98 222.351 222.811 222.129 222.573C221.906 222.334 221.759 222.036 221.704 221.714C221.649 221.393 221.689 221.062 221.819 220.763C221.95 220.464 222.165 220.21 222.438 220.032C222.711 219.853 223.03 219.759 223.357 219.76C223.814 219.777 224.246 219.974 224.558 220.309C224.87 220.644 225.037 221.089 225.021 221.546Z" fill="#122750"/>
<path d="M230.193 221.57C230.171 221.898 230.053 222.211 229.854 222.471C229.655 222.732 229.383 222.928 229.074 223.036C228.764 223.144 228.43 223.158 228.112 223.077C227.794 222.996 227.507 222.824 227.287 222.581C227.066 222.339 226.922 222.037 226.871 221.713C226.821 221.389 226.867 221.057 227.004 220.759C227.14 220.461 227.362 220.21 227.64 220.036C227.918 219.863 228.241 219.775 228.569 219.784C229.019 219.811 229.441 220.013 229.744 220.347C230.048 220.681 230.209 221.12 230.193 221.57Z" fill="#122750"/>
<g opacity="0.2">
<path d="M188.798 221.384C188.774 221.71 188.655 222.023 188.455 222.282C188.255 222.542 187.983 222.737 187.674 222.843C187.364 222.95 187.03 222.963 186.713 222.881C186.395 222.799 186.109 222.627 185.889 222.384C185.67 222.141 185.526 221.839 185.476 221.515C185.427 221.191 185.473 220.86 185.61 220.563C185.747 220.265 185.968 220.014 186.246 219.841C186.524 219.668 186.847 219.58 187.174 219.589C187.626 219.614 188.051 219.817 188.355 220.153C188.659 220.489 188.818 220.931 188.798 221.384Z" fill="white"/>
<path d="M193.97 221.408C193.986 221.637 193.955 221.867 193.878 222.083C193.802 222.299 193.681 222.498 193.525 222.665C193.368 222.833 193.179 222.967 192.969 223.059C192.758 223.15 192.531 223.197 192.302 223.197C192.072 223.197 191.845 223.15 191.635 223.059C191.424 222.967 191.235 222.833 191.078 222.665C190.922 222.498 190.802 222.299 190.725 222.083C190.648 221.867 190.617 221.637 190.633 221.408C190.617 221.179 190.648 220.949 190.725 220.733C190.802 220.517 190.922 220.319 191.078 220.151C191.235 219.983 191.424 219.849 191.635 219.758C191.845 219.666 192.072 219.619 192.302 219.619C192.531 219.619 192.758 219.666 192.969 219.758C193.179 219.849 193.368 219.983 193.525 220.151C193.681 220.319 193.802 220.517 193.878 220.733C193.955 220.949 193.986 221.179 193.97 221.408Z" fill="white"/>
<path d="M199.151 221.432C199.128 221.759 199.008 222.071 198.808 222.331C198.608 222.59 198.337 222.785 198.027 222.892C197.717 222.998 197.383 223.012 197.066 222.93C196.749 222.848 196.463 222.675 196.243 222.432C196.023 222.19 195.88 221.888 195.83 221.564C195.78 221.24 195.827 220.909 195.963 220.611C196.1 220.314 196.321 220.063 196.599 219.89C196.877 219.717 197.2 219.629 197.527 219.638C197.979 219.665 198.402 219.868 198.706 220.204C199.009 220.539 199.169 220.98 199.151 221.432Z" fill="white"/>
<path d="M204.323 221.457C204.299 221.783 204.18 222.096 203.98 222.355C203.78 222.615 203.509 222.81 203.199 222.916C202.889 223.023 202.555 223.036 202.238 222.954C201.921 222.873 201.635 222.7 201.415 222.457C201.195 222.214 201.052 221.912 201.002 221.588C200.952 221.265 200.999 220.933 201.135 220.636C201.272 220.338 201.493 220.087 201.771 219.914C202.049 219.741 202.372 219.654 202.699 219.662C203.151 219.689 203.574 219.893 203.878 220.228C204.181 220.564 204.341 221.005 204.323 221.457Z" fill="white"/>
<path d="M209.496 221.473C209.473 221.8 209.355 222.113 209.156 222.374C208.957 222.635 208.686 222.831 208.377 222.939C208.067 223.046 207.732 223.061 207.415 222.98C207.097 222.899 206.81 222.727 206.589 222.484C206.369 222.241 206.224 221.939 206.174 221.615C206.124 221.291 206.17 220.96 206.306 220.662C206.443 220.364 206.664 220.112 206.943 219.939C207.221 219.766 207.544 219.678 207.872 219.687C208.322 219.714 208.744 219.916 209.047 220.25C209.35 220.583 209.511 221.022 209.496 221.473Z" fill="white"/>
<path d="M214.676 221.497C214.653 221.823 214.537 222.135 214.339 222.394C214.142 222.654 213.874 222.851 213.566 222.96C213.259 223.069 212.926 223.086 212.609 223.009C212.293 222.931 212.005 222.763 211.783 222.524C211.561 222.285 211.413 221.987 211.358 221.665C211.303 221.344 211.343 221.013 211.474 220.714C211.604 220.416 211.819 220.161 212.092 219.983C212.366 219.805 212.685 219.71 213.011 219.711C213.468 219.728 213.9 219.925 214.212 220.26C214.524 220.595 214.691 221.04 214.676 221.497Z" fill="white"/>
<path d="M219.849 221.522C219.865 221.751 219.834 221.98 219.757 222.197C219.681 222.413 219.56 222.611 219.404 222.779C219.247 222.947 219.058 223.081 218.847 223.172C218.637 223.264 218.41 223.311 218.181 223.311C217.951 223.311 217.724 223.264 217.514 223.172C217.303 223.081 217.114 222.947 216.957 222.779C216.801 222.611 216.68 222.413 216.604 222.197C216.527 221.98 216.496 221.751 216.512 221.522C216.496 221.293 216.527 221.063 216.604 220.847C216.68 220.63 216.801 220.432 216.957 220.264C217.114 220.097 217.303 219.963 217.514 219.871C217.724 219.78 217.951 219.733 218.181 219.733C218.41 219.733 218.637 219.78 218.847 219.871C219.058 219.963 219.247 220.097 219.404 220.264C219.56 220.432 219.681 220.63 219.757 220.847C219.834 221.063 219.865 221.293 219.849 221.522Z" fill="white"/>
<path d="M225.021 221.546C224.999 221.871 224.882 222.183 224.685 222.443C224.488 222.703 224.219 222.9 223.912 223.009C223.605 223.118 223.272 223.135 222.955 223.057C222.638 222.98 222.351 222.811 222.129 222.573C221.906 222.334 221.759 222.036 221.704 221.714C221.649 221.393 221.689 221.062 221.819 220.763C221.95 220.464 222.165 220.21 222.438 220.032C222.711 219.853 223.03 219.759 223.357 219.76C223.814 219.777 224.246 219.974 224.558 220.309C224.87 220.644 225.037 221.089 225.021 221.546Z" fill="white"/>
<path d="M230.193 221.57C230.171 221.898 230.053 222.211 229.854 222.471C229.655 222.732 229.383 222.928 229.074 223.036C228.764 223.144 228.43 223.158 228.112 223.077C227.794 222.996 227.507 222.824 227.287 222.581C227.066 222.339 226.922 222.037 226.871 221.713C226.821 221.389 226.867 221.057 227.004 220.759C227.14 220.461 227.362 220.21 227.64 220.036C227.918 219.863 228.241 219.775 228.569 219.784C229.019 219.811 229.441 220.013 229.744 220.347C230.048 220.681 230.209 221.12 230.193 221.57Z" fill="white"/>
</g>
<path d="M222.845 104.35C223.409 104.102 223.887 103.693 224.221 103.175C224.554 102.656 224.728 102.051 224.72 101.435C224.741 101.034 224.681 100.634 224.542 100.257C224.403 99.8809 224.189 99.5367 223.913 99.2457C223.637 98.9547 223.304 98.7229 222.936 98.5645C222.567 98.4062 222.17 98.3245 221.769 98.3245C221.368 98.3245 220.971 98.4062 220.602 98.5645C220.233 98.7229 219.901 98.9547 219.625 99.2457C219.349 99.5367 219.135 99.8809 218.996 100.257C218.857 100.634 218.796 101.034 218.817 101.435C218.805 102.058 218.977 102.67 219.312 103.194C219.648 103.719 220.131 104.132 220.701 104.383C216.154 105.065 216.357 110.002 216.357 110.002L227.108 110.05C227.108 110.05 227.359 105.024 222.845 104.35Z" fill="#122750"/>
<path opacity="0.1" d="M222.845 104.35C223.409 104.102 223.887 103.693 224.221 103.175C224.554 102.656 224.728 102.051 224.72 101.435C224.741 101.034 224.681 100.634 224.542 100.257C224.403 99.8809 224.189 99.5367 223.913 99.2457C223.637 98.9547 223.304 98.7229 222.936 98.5645C222.567 98.4062 222.17 98.3245 221.769 98.3245C221.368 98.3245 220.971 98.4062 220.602 98.5645C220.233 98.7229 219.901 98.9547 219.625 99.2457C219.349 99.5367 219.135 99.8809 218.996 100.257C218.857 100.634 218.796 101.034 218.817 101.435C218.805 102.058 218.977 102.67 219.312 103.194C219.648 103.719 220.131 104.132 220.701 104.383C216.154 105.065 216.357 110.002 216.357 110.002L227.108 110.05C227.108 110.05 227.359 105.024 222.845 104.35Z" fill="black"/>
<path d="M240.316 113.235L201.998 113.061L201.977 117.64L240.295 117.814L240.316 113.235Z" fill="#122750"/>
<path opacity="0.2" d="M240.316 113.235L201.998 113.061L201.977 117.64L240.295 117.814L240.316 113.235Z" fill="white"/>
<path d="M99.4454 136.968H99.0638L97.9595 137.049C97.3618 137.085 96.7676 137.164 96.1812 137.285C95.8014 137.338 95.4247 137.411 95.0525 137.504L93.7939 137.853C91.6517 138.51 89.6306 139.511 87.8095 140.817C85.4034 142.563 83.3943 144.799 81.9143 147.378C81.0445 148.864 80.3522 150.448 79.8519 152.096C79.3261 153.887 79.0234 155.736 78.9506 157.601C78.9022 158.581 78.9184 159.563 78.9993 160.541C78.9993 161.036 79.1373 161.531 79.2023 162.035C79.2569 162.542 79.3519 163.044 79.4865 163.537C80.2166 166.795 81.6982 169.838 83.8129 172.422C85.9276 175.006 88.617 177.06 91.6665 178.421C93.8736 179.373 96.2392 179.905 98.6416 179.988C101.123 180.124 103.607 179.768 105.95 178.94L106.664 178.672H106.762L106.843 178.721L117.082 183.918L116.782 184.178C115.685 180.784 114.63 177.495 113.607 174.336V174.215L113.696 174.125C116.18 171.623 118.024 168.56 119.071 165.193C120.02 162.116 120.297 158.87 119.883 155.677C119.515 152.838 118.603 150.098 117.196 147.605C115.983 145.464 114.418 143.543 112.567 141.921C111.04 140.638 109.35 139.562 107.541 138.722C106.172 138.132 104.746 137.683 103.286 137.382L101.662 137.114L100.485 137.025L99.7702 136.976H99.5266C99.6076 136.967 99.6893 136.967 99.7702 136.976H100.493L101.67 137.025L103.294 137.26C104.773 137.539 106.218 137.972 107.606 138.552C109.446 139.382 111.167 140.455 112.722 141.743C114.606 143.357 116.204 145.279 117.447 147.427C118.894 149.946 119.835 152.724 120.216 155.604C120.664 158.847 120.407 162.148 119.461 165.283C118.407 168.719 116.534 171.848 114.005 174.401L114.053 174.19C115.076 177.349 116.14 180.638 117.244 184.024L117.399 184.519L116.936 184.283L106.697 179.095H106.875L106.144 179.363C103.756 180.203 101.227 180.567 98.6984 180.435C96.2443 180.341 93.8291 179.79 91.5772 178.811C87.2814 176.971 83.7074 173.773 81.4028 169.708C80.3422 167.83 79.5677 165.805 79.1048 163.699C78.9781 163.194 78.8831 162.682 78.8206 162.165C78.7557 161.653 78.6501 161.15 78.6258 160.646C78.406 157.757 78.7114 154.852 79.5271 152.071C80.0399 150.401 80.7514 148.798 81.6464 147.297C83.1617 144.695 85.2126 142.445 87.6633 140.695C89.5144 139.386 91.5695 138.393 93.7452 137.756L95.02 137.431C95.3952 137.344 95.7747 137.276 96.1568 137.228C96.7493 137.118 97.3491 137.053 97.9513 137.033L99.0638 136.993C99.1903 136.975 99.3178 136.967 99.4454 136.968Z" fill="#122750"/>
<path d="M104.073 155.904H102.571L99.3228 151.341V148.344C99.3228 148.344 97.0005 148.198 97.2766 152.12C97.5527 156.042 97.2766 155.043 97.2766 155.043C97.2766 155.043 92.3478 155.043 91.9418 155.49C91.5358 155.936 91.5114 160.695 91.4546 163.35C91.4234 163.99 91.6071 164.622 91.9764 165.146C92.3457 165.67 92.8793 166.055 93.4927 166.241C93.6646 166.288 93.8421 166.313 94.0205 166.314C95.2547 166.314 101.531 165.315 101.531 165.315H104.122L104.073 155.904Z" fill="#122750"/>
<path d="M108.369 155.1L107.443 165.364H104.877V155.311L108.369 155.1Z" fill="#122750"/>
<path d="M138.973 364.052V357.11L126.525 357.02L126.42 367.519L127.191 367.576C130.626 367.795 144.666 368.12 146.972 367.406C149.538 366.61 138.973 364.052 138.973 364.052Z" fill="#122750"/>
<path d="M147.264 366.756C147.264 366.87 142.603 366.967 136.863 366.967C131.122 366.967 126.461 366.87 126.461 366.756C126.461 366.642 131.122 366.545 136.863 366.545C142.603 366.545 147.264 366.642 147.264 366.756Z" fill="#263238"/>
<path d="M139.193 365.473C139.087 365.416 139.193 365.051 139.445 364.661C139.696 364.271 140.037 364.109 140.119 364.19C140.2 364.271 140.029 364.58 139.786 364.913C139.542 365.246 139.299 365.53 139.193 365.473Z" fill="#263238"/>
<path d="M139.988 365.928C139.874 365.928 139.931 365.473 140.175 365.043C140.418 364.612 140.743 364.353 140.832 364.417C140.922 364.482 140.776 364.848 140.548 365.229C140.321 365.611 140.093 365.968 139.988 365.928Z" fill="#263238"/>
<path d="M130.212 366.724C130.163 366.724 129.976 366.577 129.708 366.269C129.381 365.872 129.017 365.508 128.62 365.181C128.23 364.869 127.766 364.665 127.272 364.588C126.891 364.539 126.647 364.588 126.623 364.539C126.598 364.491 126.834 364.32 127.281 364.288C127.87 364.275 128.445 364.471 128.905 364.84C129.335 365.191 129.698 365.617 129.976 366.098C130.163 366.456 130.261 366.691 130.212 366.724Z" fill="#263238"/>
<path d="M139.234 364.166C139.291 364.263 139.079 364.507 138.722 364.637C138.365 364.767 138.048 364.718 138.032 364.637C138.016 364.556 138.267 364.385 138.576 364.271C138.885 364.158 139.169 364.068 139.234 364.166Z" fill="#263238"/>
<path d="M139.039 363.492C139.039 363.614 138.714 363.711 138.292 363.719C137.87 363.727 137.537 363.63 137.545 363.516C137.553 363.402 137.886 363.297 138.292 363.289C138.698 363.281 139.023 363.378 139.039 363.492Z" fill="#263238"/>
<path d="M169.628 364.052V357.11L157.18 357.02L157.074 367.414L157.846 367.471C161.28 367.69 175.328 368.12 177.626 367.406C180.192 366.61 169.628 364.052 169.628 364.052Z" fill="#122750"/>
<path d="M177.916 366.772C177.916 366.886 173.264 366.983 167.515 366.983C161.766 366.983 157.121 366.886 157.121 366.772C157.121 366.659 161.774 366.561 167.515 366.561C173.256 366.561 177.916 366.659 177.916 366.772Z" fill="#263238"/>
<path d="M169.846 365.473C169.748 365.416 169.846 365.051 170.098 364.661C170.349 364.271 170.69 364.109 170.771 364.19C170.853 364.271 170.682 364.58 170.439 364.913C170.195 365.246 169.951 365.53 169.846 365.473Z" fill="#263238"/>
<path d="M170.642 365.928C170.537 365.928 170.585 365.473 170.837 365.043C171.089 364.612 171.405 364.353 171.495 364.417C171.584 364.482 171.43 364.848 171.202 365.229C170.975 365.611 170.756 365.968 170.642 365.928Z" fill="#263238"/>
<path d="M160.866 366.724C160.817 366.724 160.639 366.577 160.363 366.269C160.036 365.872 159.671 365.508 159.275 365.181C158.885 364.869 158.42 364.665 157.927 364.588C157.553 364.539 157.301 364.588 157.277 364.539C157.253 364.491 157.488 364.32 157.935 364.288C158.524 364.275 159.099 364.471 159.559 364.84C159.992 365.188 160.355 365.615 160.631 366.098C160.817 366.456 160.915 366.691 160.866 366.724Z" fill="#263238"/>
<path d="M169.886 364.166C169.943 364.263 169.732 364.507 169.375 364.637C169.017 364.767 168.701 364.718 168.684 364.637C168.668 364.556 168.92 364.385 169.228 364.271C169.537 364.158 169.821 364.068 169.886 364.166Z" fill="#263238"/>
<path d="M169.709 363.492C169.709 363.614 169.384 363.711 168.962 363.719C168.539 363.727 168.215 363.63 168.223 363.516C168.231 363.402 168.556 363.297 168.962 363.289C169.368 363.281 169.709 363.378 169.709 363.492Z" fill="#263238"/>
<path d="M215.489 157.885C215.164 157.552 214.36 157.715 214.36 157.715C214.44 157.247 214.44 156.769 214.36 156.302C214.214 155.847 213.191 155.936 213.191 155.936C213.143 155.554 213.143 155.166 213.191 154.783C213.199 154.699 213.18 154.613 213.138 154.539C213.096 154.465 213.032 154.406 212.955 154.369C212.471 154.172 211.951 154.078 211.429 154.093C210.803 153.647 213.337 150.098 214.279 148.961C215.221 147.825 215.05 146.94 214.214 146.94C213.637 146.94 210.681 150.35 209.772 151.495C208.863 152.64 206.451 155.823 206.37 153.281C206.289 150.74 205.265 148.823 204.624 148.499C203.982 148.174 203.3 148.937 203.65 149.643C203.956 150.446 204.148 151.288 204.218 152.144C204.306 152.827 204.276 153.519 204.129 154.191C203.859 155.441 203.493 156.668 203.032 157.861H202.967C202.967 157.861 185.25 174.856 183.967 176.066C182.822 177.154 159.793 174.775 155.173 174.288C153.603 174.058 152.018 173.949 150.431 173.963C148.425 174.052 148.068 174.336 146.071 174.361C141.026 174.417 135.993 174.859 131.016 175.684C128.763 176.067 126.658 177.062 124.931 178.56C123.204 180.058 121.921 182.001 121.223 184.178C116.571 198.713 106.031 233.117 104.171 252.443C102.766 254.991 101.498 257.612 100.371 260.295C99.064 263.851 99.3807 263.973 99.8191 264.054C101.005 264.274 102.353 257.891 102.856 259.434C103.359 260.977 100.298 267.042 101.541 267.221C103.165 267.448 104.456 260.725 104.61 260.189C104.764 259.653 105.568 259.824 105.422 260.327C105.186 261.042 102.905 268.618 104.496 268.861C105.373 268.991 105.471 267.392 105.471 267.392C105.471 267.392 107.095 260.14 107.834 260.287C108.572 260.433 107.785 264.712 107.411 266.141C107.038 267.57 107.557 268.293 108.321 267.944C108.84 267.7 110.083 263.356 110.424 261.943C110.765 260.53 111.617 256.616 112.762 258.882C113.907 261.147 115.645 262.463 116.36 262.495C116.521 262.477 116.672 262.41 116.795 262.305C116.918 262.199 117.007 262.059 117.05 261.903C117.093 261.747 117.088 261.581 117.035 261.428C116.983 261.274 116.887 261.14 116.757 261.042C116.143 260.442 115.615 259.758 115.19 259.012C114.812 258.43 114.537 257.787 114.378 257.112C114.051 255.765 113.861 254.388 113.81 253.003L113.68 252.191C115.499 243.186 120.736 216.755 128.296 199.874L131.398 206.256L132.746 210.982L124.48 231.388L159.737 230.925L154.475 210.673L160.865 189.561C167.775 189.716 185.518 189.976 188.473 188.636C192.192 187.012 211.429 162.717 211.429 162.717C212.682 161.742 213.883 160.701 215.026 159.599C215.026 159.599 216.195 158.616 215.489 157.885Z" fill="#FFBE9D"/>
<path d="M122.929 216.309C123.953 212.817 129.206 195.554 129.206 195.554C129.206 195.554 131.788 209.626 131.106 211.323C130.479 212.776 129.738 214.177 128.889 215.513C122.929 224.583 123.709 229.122 123.709 229.122L159.721 228.026C159.802 222.991 156.822 211.282 156.205 209.415C155.588 207.547 157.642 201.433 157.642 201.433C157.642 201.433 161.702 197.3 161.556 195.172C161.479 193.261 161.243 191.36 160.85 189.488L182.774 190.3L182.084 175.441L150.594 172.29C149.498 175.384 139.584 173.865 139.584 173.865C128.881 174.223 128.216 176.188 123.766 179.647C119.316 183.106 111.951 212.793 111.951 212.793L122.929 216.309Z" fill="#122750"/>
<path d="M144.219 212.793C143.594 212.904 142.959 212.937 142.327 212.89C141.149 212.89 139.533 212.809 137.755 212.63C135.977 212.452 134.369 212.2 133.224 211.973C132.593 211.891 131.974 211.733 131.381 211.502C132.016 211.502 132.649 211.562 133.273 211.68C134.426 211.826 136.025 212.029 137.796 212.208C139.566 212.387 141.174 212.509 142.335 212.59C142.968 212.598 143.598 212.666 144.219 212.793Z" fill="#263238"/>
<path d="M146.689 209.731C146.064 210.037 145.404 210.264 144.724 210.405C141.484 211.257 138.142 211.653 134.793 211.583C134.1 211.605 133.407 211.54 132.73 211.388C133.414 211.302 134.104 211.266 134.793 211.282C136.068 211.242 137.822 211.152 139.754 210.925C141.687 210.698 143.408 210.373 144.626 210.113C145.303 209.932 145.992 209.805 146.689 209.731Z" fill="#263238"/>
<path d="M158.803 196.074C158.787 196.693 158.702 197.308 158.552 197.909C158.34 199.037 158.016 200.58 157.601 202.269C157.187 203.958 156.789 205.517 156.432 206.573C156.289 207.177 156.076 207.763 155.799 208.319C155.844 207.701 155.958 207.091 156.14 206.5C156.448 205.233 156.798 203.771 157.187 202.172C157.577 200.572 157.951 199.111 158.259 197.844C158.369 197.234 158.552 196.64 158.803 196.074Z" fill="#263238"/>
<path d="M123.311 214.238C121.432 213.948 119.578 213.516 117.765 212.947C115.912 212.514 114.093 211.944 112.324 211.242C114.202 211.537 116.055 211.968 117.87 212.533C119.724 212.965 121.542 213.535 123.311 214.238Z" fill="#263238"/>
<path d="M161.239 189.31C160.933 189.362 160.62 189.362 160.314 189.31C159.465 189.223 158.633 189.023 157.837 188.717C156.509 188.218 155.299 187.446 154.287 186.452C153.275 185.458 152.481 184.263 151.958 182.944C151.38 181.493 151.133 179.931 151.235 178.372C151.272 177.086 151.656 175.835 152.348 174.751C152.834 174.02 153.561 173.483 154.402 173.232C154.627 173.17 154.859 173.14 155.092 173.143C155.255 173.143 155.336 173.143 155.336 173.143C155.336 173.143 154.995 173.143 154.451 173.362C153.679 173.647 153.025 174.181 152.592 174.88C151.487 176.618 151.179 179.793 152.356 182.757C152.904 184.154 153.762 185.409 154.865 186.427C155.769 187.26 156.81 187.93 157.943 188.408C159.005 188.828 160.111 189.131 161.239 189.31Z" fill="#263238"/>
<path d="M180.167 190.008C179.964 187.518 179.899 185.019 179.972 182.521C179.909 180.026 179.985 177.53 180.2 175.043C180.403 177.53 180.468 180.027 180.395 182.521C180.463 185.019 180.387 187.519 180.167 190.008Z" fill="#263238"/>
<path d="M150.382 173.2C150.472 171.389 150.658 169.343 150.658 169.343C150.658 169.343 155.141 168.847 155.409 164.219C155.677 159.59 155.409 148.913 155.409 148.913L147.289 144.755L138.275 151.844L139.664 174.986L147.93 175.514C148.562 175.531 149.175 175.297 149.635 174.864C150.094 174.43 150.363 173.831 150.382 173.2Z" fill="#FFBE9D"/>
<path d="M151.186 160.557C151.186 160.557 151.186 160.646 151.113 160.752C151.053 160.828 150.974 160.889 150.885 160.929C150.796 160.968 150.699 160.985 150.601 160.979C150.082 160.979 149.578 160.378 149.4 159.68C149.315 159.341 149.315 158.987 149.4 158.649C149.416 158.501 149.47 158.36 149.555 158.238C149.64 158.116 149.754 158.017 149.887 157.95C149.996 157.905 150.119 157.905 150.228 157.95C150.309 157.99 150.374 158.056 150.415 158.137C150.471 158.275 150.415 158.364 150.415 158.356C150.415 158.348 150.415 158.275 150.333 158.194C150.291 158.136 150.229 158.095 150.158 158.08C150.088 158.065 150.014 158.077 149.952 158.113C149.852 158.173 149.769 158.257 149.711 158.358C149.653 158.459 149.621 158.573 149.619 158.689C149.551 158.991 149.551 159.305 149.619 159.607C149.781 160.24 150.22 160.752 150.609 160.8C150.686 160.811 150.763 160.805 150.837 160.784C150.911 160.763 150.98 160.727 151.04 160.679C151.137 160.614 151.17 160.549 151.186 160.557Z" fill="#EB996E"/>
<path d="M158.195 146.412C157.569 144.284 155.304 143.229 153.242 142.644C150.099 141.751 146.705 141.361 143.636 142.49C140.566 143.618 136.88 145.6 136.88 148.986C135.069 148.84 134.03 150.423 133.315 152.388C132.858 153.585 132.584 154.844 132.503 156.123C132.276 160.557 131.033 166.679 128.159 169.927C126.535 171.738 124.286 172.988 123.36 175.246C122.548 177.203 122.97 179.525 122.215 181.506C121.541 183.252 120.055 184.495 118.967 186.013C117.858 187.736 117.206 189.712 117.071 191.756C116.936 193.8 117.323 195.844 118.196 197.698C119.074 199.503 120.311 201.111 121.832 202.424C123.352 203.736 125.123 204.725 127.038 205.33C130.831 206.484 134.876 206.524 138.69 205.444C141.553 204.76 144.224 203.435 146.502 201.571C148.833 199.668 150.433 197.017 151.033 194.068C151.609 190.755 150.684 187.385 149.994 184.089C147.834 173.671 148.451 173.127 151.179 163.456C151.244 163.285 151.276 163.106 151.325 162.936C151.374 162.765 151.398 162.684 151.431 162.554C151.508 162.172 151.549 161.783 151.553 161.393C151.154 161.541 150.722 161.573 150.306 161.483C149.89 161.394 149.509 161.188 149.206 160.89C148.903 160.571 148.691 160.177 148.594 159.748C148.497 159.319 148.517 158.872 148.654 158.454C148.845 157.996 149.131 157.585 149.492 157.245C149.853 156.905 150.281 156.644 150.749 156.481C151.65 156.107 152.616 155.912 153.501 155.498C155.377 154.605 156.676 152.753 157.561 150.813C158.289 149.468 158.514 147.907 158.195 146.412Z" fill="#263238"/>
<path d="M151.511 160.776C151.683 161.029 151.824 161.302 151.933 161.588C152.177 162.1 152.502 162.822 152.859 163.659L152.924 163.813H152.754L151.942 163.886C151.381 163.886 150.91 163.992 150.358 163.983C150.31 163.973 150.266 163.95 150.229 163.917C150.192 163.884 150.164 163.843 150.147 163.797C150.123 163.723 150.123 163.643 150.147 163.569C150.166 163.46 150.19 163.351 150.22 163.244L150.366 162.668C150.44 162.283 150.554 161.908 150.707 161.547C150.692 161.939 150.635 162.329 150.537 162.709L150.423 163.285C150.383 163.48 150.309 163.78 150.423 163.756C150.829 163.756 151.406 163.667 151.942 163.634L152.754 163.561L152.648 163.74C152.299 162.928 152.007 162.165 151.836 161.637C151.686 161.367 151.577 161.077 151.511 160.776Z" fill="#122750"/>
<path d="M123.709 229.122L159.721 228.026L175.393 289.202L172.51 359.375H153.469L155.799 290.696L141.873 248.107L144.017 362.095L124.773 362.379L122.751 255.236C122.661 252.256 121.687 245.541 122.052 242.585L123.709 229.122Z" fill="#263238"/>
<path d="M146.663 248.975C146.074 249.013 145.482 248.977 144.901 248.87C143.813 248.74 142.327 248.513 140.695 248.188C139.063 247.863 137.601 247.489 136.546 247.189C135.982 247.065 135.436 246.869 134.922 246.604C134.922 246.483 137.569 247.116 140.817 247.774C144.065 248.431 146.68 248.854 146.663 248.975Z" fill="#455A64"/>
<path d="M172.314 355.526C172.314 355.64 168.002 355.737 162.683 355.737C157.365 355.737 153.045 355.64 153.045 355.526C153.045 355.412 157.357 355.315 162.683 355.315C168.01 355.315 172.314 355.404 172.314 355.526Z" fill="#455A64"/>
<path d="M143.845 359.131C143.845 359.253 139.655 359.342 134.491 359.342C129.326 359.342 125.145 359.253 125.145 359.131C125.145 359.01 129.334 358.92 134.491 358.92C139.647 358.92 143.845 359.018 143.845 359.131Z" fill="#455A64"/>
<path d="M141.362 358.839C141.248 358.839 140.745 333.935 140.233 303.217C139.722 272.499 139.421 247.579 139.527 247.579C139.632 247.579 140.152 272.475 140.656 303.209C141.159 333.943 141.484 358.839 141.362 358.839Z" fill="#455A64"/>
<path d="M169.757 355.526C169.748 355.415 169.748 355.304 169.757 355.193V354.219C169.757 353.342 169.822 352.083 169.871 350.484C169.985 347.236 170.147 342.518 170.35 336.736C170.789 325.109 171.406 309.08 172.08 291.386C172.08 291.216 172.08 291.053 172.08 290.907V290.964C167.817 273.912 163.96 258.435 161.158 247.238L157.91 233.994C157.537 232.443 157.253 231.233 157.05 230.389C156.952 229.991 156.887 229.682 156.83 229.447C156.799 229.341 156.78 229.232 156.773 229.122C156.816 229.224 156.848 229.33 156.871 229.439C156.936 229.666 157.017 229.975 157.131 230.364C157.35 231.176 157.667 232.411 158.073 233.953C158.885 237.088 160.03 241.602 161.459 247.165C164.284 258.354 168.182 273.79 172.502 290.867V290.923C172.502 291.07 172.502 291.24 172.502 291.402C171.779 309.096 171.121 325.117 170.642 336.745C170.391 342.534 170.18 347.219 170.033 350.484C169.952 352.108 169.887 353.342 169.847 354.219C169.847 354.633 169.798 354.958 169.79 355.193C169.791 355.305 169.78 355.417 169.757 355.526Z" fill="#455A64"/>
<path d="M163.544 289.478C162.177 289.928 160.768 290.24 159.338 290.412C157.584 290.712 156.09 290.923 155.416 290.956V290.793C155.635 290.858 155.749 290.899 155.749 290.931C155.749 290.964 155.611 290.931 155.384 290.931H154.896L155.384 290.785C156.017 290.599 157.511 290.29 159.265 289.973C160.672 289.668 162.105 289.502 163.544 289.478Z" fill="#455A64"/>
<path d="M163.212 291.808C161.946 291.866 160.677 291.809 159.42 291.638C158.152 291.612 156.888 291.473 155.645 291.224C158.182 291.017 160.737 291.214 163.212 291.808Z" fill="#455A64"/>
<path opacity="0.2" d="M123.555 230.413C123.981 230.961 124.518 231.412 125.131 231.738C125.744 232.064 126.419 232.257 127.111 232.305C128.562 232.477 130.029 232.45 131.472 232.224C140.769 231.193 150.619 230.243 159.721 228.026C147.939 228.684 135.491 228.464 123.709 229.122L123.587 230.129" fill="black"/>
<g opacity="0.2">
<path d="M135.693 247.019L142.336 272.791L141.873 248.107L135.693 247.019Z" fill="black"/>
</g>
</svg>
