<svg width="17" height="18" viewBox="0 0 17 18" fill="none" xmlns="http://www.w3.org/2000/svg">
<g clip-path="url(#clip0_1947_1893)">
<path d="M9.89947 5.4644V0.839918C10.5536 1.08693 11.1477 1.47017 11.6425 1.96422L14.106 4.42919C14.6006 4.92337 14.9842 5.51735 15.2311 6.1715H10.6066C10.419 6.1715 10.2392 6.097 10.1066 5.9644C9.97396 5.83179 9.89947 5.65193 9.89947 5.4644ZM15.5563 7.92866V13.9497C15.5552 14.887 15.1823 15.7856 14.5195 16.4484C13.8567 17.1112 12.9581 17.4841 12.0208 17.4852H4.94972C4.01238 17.4841 3.11376 17.1112 2.45096 16.4484C1.78816 15.7856 1.41531 14.887 1.41418 13.9497L1.41418 4.05018C1.41531 3.11285 1.78816 2.21422 2.45096 1.55142C3.11376 0.888624 4.01238 0.515771 4.94972 0.514648L8.14231 0.514648C8.25756 0.514648 8.37141 0.523841 8.48525 0.531619V5.4644C8.48525 6.027 8.70875 6.56657 9.10657 6.9644C9.5044 7.36222 10.044 7.58572 10.6066 7.58572H15.5393C15.5471 7.69956 15.5563 7.8134 15.5563 7.92866ZM9.4851 12.5355L10.7529 11.2676C10.8817 11.1343 10.953 10.9556 10.9514 10.7702C10.9498 10.5848 10.8754 10.4075 10.7443 10.2764C10.6132 10.1453 10.4359 10.0709 10.2505 10.0693C10.0651 10.0677 9.88646 10.139 9.75309 10.2678L8.48525 11.5356L7.21741 10.2678C7.08405 10.139 6.90543 10.0677 6.72003 10.0693C6.53463 10.0709 6.35728 10.1453 6.22617 10.2764C6.09507 10.4075 6.02071 10.5848 6.01909 10.7702C6.01748 10.9556 6.08876 11.1343 6.21756 11.2676L7.4854 12.5355L6.21756 13.8033C6.15002 13.8685 6.09616 13.9466 6.0591 14.0328C6.02204 14.1191 6.00253 14.2119 6.00172 14.3058C6.0009 14.3997 6.01879 14.4928 6.05435 14.5797C6.0899 14.6666 6.1424 14.7455 6.2088 14.8119C6.27519 14.8783 6.35414 14.9308 6.44104 14.9664C6.52794 15.0019 6.62105 15.0198 6.71494 15.019C6.80883 15.0182 6.90162 14.9987 6.98789 14.9616C7.07416 14.9246 7.15218 14.8707 7.21741 14.8032L8.48525 13.5353L9.75309 14.8032C9.88646 14.932 10.0651 15.0032 10.2505 15.0016C10.4359 15 10.6132 14.9256 10.7443 14.7945C10.8754 14.6634 10.9498 14.4861 10.9514 14.3007C10.953 14.1153 10.8817 13.9367 10.7529 13.8033L9.4851 12.5355Z" fill="white"/>
</g>
<defs>
<clipPath id="clip0_1947_1893">
<rect width="16.9706" height="16.9706" fill="white" transform="translate(0 0.514648)"/>
</clipPath>
</defs>
</svg>
