<svg width="17" height="18" viewBox="0 0 17 18" fill="none" xmlns="http://www.w3.org/2000/svg">
<g clip-path="url(#clip0_1947_5303)">
<path d="M9.89959 5.4644V0.839918C10.5537 1.08693 11.1478 1.47017 11.6426 1.96422L14.1062 4.42919C14.6008 4.92337 14.9843 5.51735 15.2312 6.1715H10.6067C10.4192 6.1715 10.2393 6.097 10.1067 5.9644C9.97409 5.83179 9.89959 5.65193 9.89959 5.4644ZM15.5564 7.92866V13.9497C15.5553 14.887 15.1825 15.7856 14.5197 16.4484C13.8569 17.1112 12.9582 17.4841 12.0209 17.4852H4.94984C4.0125 17.4841 3.11388 17.1112 2.45108 16.4484C1.78828 15.7856 1.41543 14.887 1.41431 13.9497L1.41431 4.05018C1.41543 3.11285 1.78828 2.21422 2.45108 1.55142C3.11388 0.888624 4.0125 0.515771 4.94984 0.514648L8.14243 0.514648C8.25769 0.514648 8.37153 0.523841 8.48537 0.531619V5.4644C8.48537 6.027 8.70887 6.56657 9.10669 6.9644C9.50452 7.36222 10.0441 7.58572 10.6067 7.58572H15.5395C15.5472 7.69956 15.5564 7.8134 15.5564 7.92866ZM9.89959 13.9497C9.89959 13.7621 9.82509 13.5823 9.69248 13.4497C9.55987 13.3171 9.38002 13.2426 9.19248 13.2426H5.65695C5.46941 13.2426 5.28956 13.3171 5.15695 13.4497C5.02434 13.5823 4.94984 13.7621 4.94984 13.9497C4.94984 14.1372 5.02434 14.3171 5.15695 14.4497C5.28956 14.5823 5.46941 14.6568 5.65695 14.6568H9.19248C9.38002 14.6568 9.55987 14.5823 9.69248 14.4497C9.82509 14.3171 9.89959 14.1372 9.89959 13.9497ZM12.0209 11.1213C12.0209 10.9337 11.9464 10.7539 11.8138 10.6213C11.6812 10.4886 11.5013 10.4141 11.3138 10.4141H5.65695C5.46941 10.4141 5.28956 10.4886 5.15695 10.6213C5.02434 10.7539 4.94984 10.9337 4.94984 11.1213C4.94984 11.3088 5.02434 11.4886 5.15695 11.6213C5.28956 11.7539 5.46941 11.8284 5.65695 11.8284H11.3138C11.5013 11.8284 11.6812 11.7539 11.8138 11.6213C11.9464 11.4886 12.0209 11.3088 12.0209 11.1213Z" fill="#173468"/>
</g>
<defs>
<clipPath id="clip0_1947_5303">
<rect width="16.9706" height="16.9706" fill="white" transform="translate(0 0.514648)"/>
</clipPath>
</defs>
</svg>
