<svg width="34" height="35" viewBox="0 0 34 35" fill="none" xmlns="http://www.w3.org/2000/svg">
<g clip-path="url(#clip0_1937_1377)">
<path d="M14.2632 28.8333C13.1108 28.8322 12.006 28.3739 11.1911 27.5591C10.3763 26.7442 9.91802 25.6394 9.91689 24.487C9.91689 24.1113 9.76763 23.7509 9.50196 23.4853C9.23628 23.2196 8.87595 23.0703 8.50022 23.0703C8.1245 23.0703 7.76417 23.2196 7.49849 23.4853C7.23281 23.7509 7.08356 24.1113 7.08356 24.487V24.5833C7.08356 24.6102 7.08356 24.6343 7.08356 24.6612C7.13084 26.5345 7.90786 28.3151 9.24902 29.6238C10.5902 30.9324 12.3894 31.6654 14.2632 31.6667H15.5836V33.0833C15.5836 33.4591 15.7328 33.8194 15.9985 34.0851C16.2642 34.3507 16.6245 34.5 17.0002 34.5C17.3759 34.5 17.7363 34.3507 18.002 34.0851C18.2676 33.8194 18.4169 33.4591 18.4169 33.0833V31.6667H19.7372C21.441 31.6648 23.0886 31.0572 24.3856 29.9522C25.6826 28.8473 26.5443 27.3172 26.8168 25.6353C27.0893 23.9534 26.7548 22.2295 25.8731 20.7716C24.9914 19.3136 23.6199 18.2168 22.0039 17.6771L18.4169 16.48V6.16667H19.7372C20.8896 6.16779 21.9945 6.62607 22.8093 7.44092C23.6242 8.25577 24.0824 9.36063 24.0836 10.513C24.0836 10.8887 24.2328 11.2491 24.4985 11.5147C24.7642 11.7804 25.1245 11.9297 25.5002 11.9297C25.8759 11.9297 26.2363 11.7804 26.502 11.5147C26.7676 11.2491 26.9169 10.8887 26.9169 10.513V10.4167C26.9169 10.3897 26.9169 10.3657 26.9169 10.3387C26.8696 8.46553 26.0926 6.68486 24.7514 5.37625C23.4103 4.06763 21.611 3.33458 19.7372 3.33333H18.4169V1.91667C18.4169 1.54094 18.2676 1.18061 18.002 0.914932C17.7363 0.649256 17.3759 0.5 17.0002 0.5C16.6245 0.5 16.2642 0.649256 15.9985 0.914932C15.7328 1.18061 15.5836 1.54094 15.5836 1.91667V3.33333H14.2632C12.5594 3.33515 10.9118 3.94283 9.61485 5.04775C8.3179 6.15267 7.45615 7.68282 7.18365 9.36468C6.91114 11.0465 7.24564 12.7705 8.12735 14.2284C9.00905 15.6864 10.3805 16.7832 11.9966 17.3229L15.5836 18.52V28.8333H14.2632ZM18.4169 19.4649L21.1086 20.3631C22.0878 20.689 22.9192 21.3528 23.4538 22.2357C23.9884 23.1185 24.1914 24.1628 24.0265 25.1816C23.8615 26.2005 23.3394 27.1274 22.5535 27.7964C21.7676 28.4655 20.7693 28.833 19.7372 28.8333H18.4169V19.4649ZM12.8919 14.6369C11.9126 14.311 11.0813 13.6472 10.5466 12.7643C10.012 11.8815 9.80903 10.8372 9.97398 9.81837C10.1389 8.79954 10.6611 7.87265 11.4469 7.20359C12.2328 6.53452 13.2311 6.16696 14.2632 6.16667H15.5836V15.5351L12.8919 14.6369Z" fill="#173468"/>
</g>
<defs>
<clipPath id="clip0_1937_1377">
<rect width="34" height="34" fill="white" transform="translate(0 0.5)"/>
</clipPath>
</defs>
</svg>
