<svg width="17" height="18" viewBox="0 0 17 18" fill="none" xmlns="http://www.w3.org/2000/svg">
<g clip-path="url(#clip0_1823_3195)">
<path d="M6.98492 13.3288C7.8131 14.1576 9.15623 14.158 9.98493 13.3298C9.98526 13.3295 9.98556 13.3292 9.98589 13.3288L12.2564 11.0583C12.5183 10.7687 12.4958 10.3215 12.2062 10.0596C11.9364 9.81574 11.5258 9.81617 11.2566 10.0606L9.18758 12.1303L9.19252 1.22178C9.19249 0.831222 8.87591 0.514648 8.48539 0.514648C8.09487 0.514648 7.7783 0.831222 7.7783 1.22174L7.77193 12.1168L5.71425 10.0606C5.43795 9.78449 4.99015 9.78465 4.71405 10.061C4.43795 10.3373 4.43811 10.7851 4.71441 11.0612L6.98492 13.3288Z" fill="#173468"/>
<path d="M16.2635 11.8284C15.8729 11.8284 15.5564 12.1449 15.5564 12.5355V15.3639C15.5564 15.7544 15.2398 16.071 14.8493 16.071H2.12132C1.7308 16.071 1.41422 15.7544 1.41422 15.3639L1.41422 12.5355C1.41422 12.145 1.09765 11.8284 0.707129 11.8284C0.316574 11.8284 0 12.145 0 12.5355L0 15.3639C0 16.5355 0.949755 17.4852 2.12132 17.4852H14.8492C16.0208 17.4852 16.9706 16.5355 16.9706 15.3639V12.5355C16.9706 12.145 16.654 11.8284 16.2635 11.8284Z" fill="#173468"/>
</g>
<defs>
<clipPath id="clip0_1823_3195">
<rect width="16.9706" height="16.9706" fill="white" transform="translate(0 0.514648)"/>
</clipPath>
</defs>
</svg>
