<svg width="12" height="7" viewBox="0 0 12 7" fill="none" xmlns="http://www.w3.org/2000/svg">
<path d="M11.2959 0.890307C11.1914 0.785764 11.0674 0.702833 10.9308 0.646251C10.7943 0.58967 10.648 0.560547 10.5002 0.560547C10.3524 0.560547 10.206 0.58967 10.0695 0.646251C9.93293 0.702833 9.80888 0.785764 9.7044 0.890307L6.26491 4.32906C6.19458 4.39936 6.09922 4.43885 5.99978 4.43885C5.90034 4.43885 5.80498 4.39936 5.73466 4.32906L2.29591 0.890307C2.08496 0.679261 1.79881 0.560657 1.50042 0.560586C1.20203 0.560516 0.915827 0.678985 0.704781 0.889931C0.493735 1.10088 0.375131 1.38702 0.375061 1.68542C0.374991 1.98381 0.49346 2.27001 0.704406 2.48106L4.14391 5.92056C4.38766 6.16434 4.67705 6.35772 4.99555 6.48966C5.31405 6.62159 5.65541 6.6895 6.00016 6.6895C6.3449 6.6895 6.68626 6.62159 7.00476 6.48966C7.32326 6.35772 7.61265 6.16434 7.85641 5.92056L11.2959 2.48106C11.5068 2.27009 11.6253 1.98399 11.6253 1.68568C11.6253 1.38737 11.5068 1.10128 11.2959 0.890307Z" fill="#404040"/>
</svg>
