<svg width="20" height="18" viewBox="0 0 20 18" fill="none" xmlns="http://www.w3.org/2000/svg">
<path d="M19.1428 2.85725H6.5714M4.28569 2.85725H0.857117M19.1428 14.2858H6.5714M4.28569 14.2858H0.857117M13.4285 8.57153H0.857117M19.1428 8.57153H15.7143M5.42855 0.571533C5.73165 0.571533 6.02234 0.691941 6.23667 0.906269C6.45099 1.1206 6.5714 1.41129 6.5714 1.71439V4.0001C6.5714 4.30321 6.45099 4.5939 6.23667 4.80823C6.02234 5.02255 5.73165 5.14296 5.42855 5.14296C5.12544 5.14296 4.83475 5.02255 4.62042 4.80823C4.4061 4.5939 4.28569 4.30321 4.28569 4.0001V1.71439C4.28569 1.41129 4.4061 1.1206 4.62042 0.906269C4.83475 0.691941 5.12544 0.571533 5.42855 0.571533V0.571533ZM5.42855 12.0001C5.73165 12.0001 6.02234 12.1205 6.23667 12.3348C6.45099 12.5492 6.5714 12.8399 6.5714 13.143V15.4287C6.5714 15.7318 6.45099 16.0225 6.23667 16.2368C6.02234 16.4511 5.73165 16.5715 5.42855 16.5715C5.12544 16.5715 4.83475 16.4511 4.62042 16.2368C4.4061 16.0225 4.28569 15.7318 4.28569 15.4287V13.143C4.28569 12.8399 4.4061 12.5492 4.62042 12.3348C4.83475 12.1205 5.12544 12.0001 5.42855 12.0001ZM14.5714 6.28582C14.8745 6.28582 15.1652 6.40623 15.3795 6.62055C15.5939 6.83488 15.7143 7.12557 15.7143 7.42868V9.71439C15.7143 10.0175 15.5939 10.3082 15.3795 10.5225C15.1652 10.7368 14.8745 10.8572 14.5714 10.8572C14.2683 10.8572 13.9776 10.7368 13.7633 10.5225C13.549 10.3082 13.4285 10.0175 13.4285 9.71439V7.42868C13.4285 7.12557 13.549 6.83488 13.7633 6.62055C13.9776 6.40623 14.2683 6.28582 14.5714 6.28582V6.28582Z" stroke="#173468" stroke-linecap="round" stroke-linejoin="round"/>
</svg>