<svg width="17" height="18" viewBox="0 0 17 18" fill="none" xmlns="http://www.w3.org/2000/svg">
<g clip-path="url(#clip0_1823_2841)">
<path d="M16.9528 4.43335L11.0004 10.3858C10.3367 11.0478 9.43749 11.4196 8.50005 11.4196C7.56261 11.4196 6.66343 11.0478 5.99972 10.3858L0.0472974 4.43335C0.0373979 4.54507 0.0147705 4.64619 0.0147705 4.7572L0.0147705 13.2425C0.0158933 14.1798 0.388747 15.0784 1.05154 15.7412C1.71434 16.404 2.61297 16.7769 3.5503 16.778H13.4498C14.3871 16.7769 15.2858 16.404 15.9486 15.7412C16.6114 15.0784 16.9842 14.1798 16.9853 13.2425V4.7572C16.9853 4.64619 16.9627 4.54507 16.9528 4.43335Z" fill="white"/>
<path d="M10.0006 9.38593L16.4593 2.92651C16.1464 2.40772 15.7051 1.97831 15.178 1.67969C14.6509 1.38108 14.0557 1.22333 13.4498 1.22168L3.55034 1.22168C2.94451 1.22333 2.34932 1.38108 1.82219 1.67969C1.29506 1.97831 0.853773 2.40772 0.540894 2.92651L6.99961 9.38593C7.39811 9.78284 7.93764 10.0057 8.50009 10.0057C9.06253 10.0057 9.60206 9.78284 10.0006 9.38593Z" fill="white"/>
</g>
<defs>
<clipPath id="clip0_1823_2841">
<rect width="16.9706" height="16.9706" fill="white" transform="translate(0.0147705 0.514648)"/>
</clipPath>
</defs>
</svg>
