<svg width="17" height="18" viewBox="0 0 17 18" fill="none" xmlns="http://www.w3.org/2000/svg">
<g clip-path="url(#clip0_1947_5221)">
<path d="M7.11926 14.6568C6.54407 14.6562 5.9926 14.4275 5.58588 14.0208C5.17916 13.614 4.95042 13.0626 4.94986 12.4874C4.94986 12.2998 4.87536 12.12 4.74275 11.9874C4.61014 11.8548 4.43029 11.7803 4.24275 11.7803C4.05521 11.7803 3.87536 11.8548 3.74275 11.9874C3.61014 12.12 3.53564 12.2998 3.53564 12.4874L3.53564 12.5355C3.53564 12.5489 3.53564 12.5609 3.53564 12.5744C3.55924 13.5093 3.94708 14.3981 4.6165 15.0513C5.28592 15.7045 6.18398 16.0704 7.11926 16.071H7.77829V16.7781C7.77829 16.9656 7.85278 17.1455 7.98539 17.2781C8.118 17.4107 8.29785 17.4852 8.48539 17.4852C8.67293 17.4852 8.85278 17.4107 8.98539 17.2781C9.118 17.1455 9.1925 16.9656 9.1925 16.7781V16.071H9.85152C10.7019 16.0701 11.5243 15.7668 12.1717 15.2153C12.819 14.6638 13.2492 13.9 13.3852 13.0605C13.5212 12.2211 13.3542 11.3606 12.9141 10.6329C12.4741 9.90518 11.7895 9.35771 10.9829 9.08832L9.1925 8.49081V3.34308H9.85152C10.4267 3.34364 10.9782 3.57238 11.3849 3.9791C11.7916 4.38582 12.0204 4.93729 12.0209 5.51248C12.0209 5.70002 12.0954 5.87987 12.228 6.01248C12.3606 6.14509 12.5405 6.21959 12.728 6.21959C12.9156 6.21959 13.0954 6.14509 13.228 6.01248C13.3606 5.87987 13.4351 5.70002 13.4351 5.51248V5.4644C13.4351 5.45096 13.4351 5.43894 13.4351 5.42551C13.4115 4.49052 13.0237 3.60172 12.3543 2.94855C11.6849 2.29538 10.7868 1.92949 9.85152 1.92886L9.1925 1.92886V1.22176C9.1925 1.03422 9.118 0.854363 8.98539 0.721755C8.85278 0.589147 8.67293 0.514648 8.48539 0.514648C8.29785 0.514648 8.118 0.589147 7.98539 0.721755C7.85278 0.854363 7.77829 1.03422 7.77829 1.22176V1.92886H7.11926C6.26884 1.92977 5.44645 2.23308 4.7991 2.78459C4.15175 3.33609 3.72162 4.09984 3.5856 4.93931C3.44959 5.77879 3.61655 6.63928 4.05664 7.36698C4.49673 8.09468 5.18126 8.64215 5.98789 8.91154L7.77829 9.50905V14.6568H7.11926ZM9.1925 9.98069L10.536 10.429C11.0248 10.5917 11.4397 10.923 11.7066 11.3637C11.9734 11.8043 12.0748 12.3256 11.9924 12.8341C11.9101 13.3426 11.6495 13.8053 11.2572 14.1392C10.865 14.4732 10.3667 14.6566 9.85152 14.6568H9.1925V9.98069ZM6.43478 7.57087C5.94599 7.40818 5.53104 7.07686 5.26419 6.6362C4.99735 6.19554 4.89602 5.6743 4.97836 5.16577C5.06069 4.65723 5.3213 4.19459 5.71356 3.86064C6.10581 3.52669 6.6041 3.34322 7.11926 3.34308L7.77829 3.34308V8.01917L6.43478 7.57087Z" fill="white"/>
</g>
<defs>
<clipPath id="clip0_1947_5221">
<rect width="16.9706" height="16.9706" fill="white" transform="translate(0 0.514648)"/>
</clipPath>
</defs>
</svg>
