<svg width="17" height="18" viewBox="0 0 17 18" fill="none" xmlns="http://www.w3.org/2000/svg">
<g clip-path="url(#clip0_2179_3001)">
<path d="M0.828729 14.0335C0.298259 14.5639 0.000160195 15.2832 0 16.0332L0 17.4849H1.45169C2.20177 17.4848 2.92108 17.1867 3.45139 16.6562L12.8863 7.22129L10.2637 4.59863L0.828729 14.0335Z" fill="white"/>
<path d="M16.3662 1.11891C16.194 0.946545 15.9895 0.809805 15.7644 0.71651C15.5394 0.623215 15.2981 0.575195 15.0545 0.575195C14.8108 0.575195 14.5696 0.623215 14.3445 0.71651C14.1194 0.809805 13.915 0.946545 13.7428 1.11891L11.2637 3.59874L13.8863 6.2214L16.3662 3.74228C16.5385 3.57009 16.6753 3.36562 16.7686 3.14055C16.8619 2.91548 16.9099 2.67423 16.9099 2.4306C16.9099 2.18696 16.8619 1.94571 16.7686 1.72064C16.6753 1.49557 16.5385 1.2911 16.3662 1.11891Z" fill="white"/>
</g>
<defs>
<clipPath id="clip0_2179_3001">
<rect width="16.9706" height="16.9706" fill="white" transform="translate(0 0.514648)"/>
</clipPath>
</defs>
</svg>
