<svg width="307" height="297" viewBox="0 0 307 297" fill="none" xmlns="http://www.w3.org/2000/svg">
<path d="M43.037 148.191L84.4694 199.765C90.864 196.851 132.283 140.86 132.283 140.86L160.229 183.972C160.229 183.972 111.831 243.393 87.6737 243.393C83.7311 243.393 77.3922 244.173 72.4744 239.936C49.0833 219.836 20.3007 158.701 20.3007 158.701L43.037 148.191Z" fill="#FFBE9D"/>
<path d="M231.907 65.7858C229.817 67.096 226.85 65.6882 225.749 63.4719C224.841 61.1457 224.786 58.5724 225.596 56.2098C226.414 53.8726 226.938 51.4425 227.156 48.9757C227.127 46.7178 226.373 44.5291 225.006 42.7323C223.639 40.9355 221.731 39.6256 219.564 38.9955C220.521 38.0771 221.282 36.9745 221.802 35.7541C222.323 34.5336 222.591 33.2205 222.591 31.8937C222.591 30.567 222.323 29.2539 221.802 28.0334C221.282 26.813 220.521 25.7104 219.564 24.792C217.669 23.1472 215.231 22.3248 213.058 21.0703C211.823 20.3389 210.665 19.4843 209.603 18.5195C211.497 18.8943 213.45 18.8562 215.328 18.408C216.834 17.992 218.21 17.203 219.33 16.114C220.45 15.025 221.278 13.6711 221.737 12.1774C222.158 10.672 222.149 9.0787 221.71 7.57828C221.272 6.07787 220.422 4.73039 219.257 3.68873C218.063 2.68071 216.589 2.06072 215.034 1.91132C213.478 1.76191 211.914 2.09016 210.55 2.8524C207.917 4.42747 206.579 7.45218 205.409 10.2817L204.323 12.9162C200.241 8.05154 196.395 3.01968 190.391 1.54217C184.972 0.148302 179.329 2.30879 173.757 2.18334C169.689 2.09971 165.732 0.789465 161.678 0.608261C157.624 0.427058 153.068 1.47247 150.853 4.88746C149.558 6.8807 149.237 9.40361 147.928 11.3968C145.211 15.5785 138.942 16.373 136.782 20.7916C135.013 24.3738 136.782 28.7087 136.1 32.6673C135.417 36.9744 132.073 40.25 129.371 43.665C126.668 47.08 124.397 51.7076 126.222 55.6662C127.81 59.1509 132.06 60.8514 133.592 64.364C134.72 66.9148 134.149 69.8559 134.233 72.6575C134.316 75.4592 135.626 78.693 138.412 79.1948L169.647 85.7739C180.527 89.5652 191.742 93.3984 203.25 92.7433C214.757 92.0881 226.738 85.983 230.737 75.1805C229.053 75.19 227.429 74.557 226.195 73.4102C227.655 72.6452 228.925 71.5636 229.913 70.2445C230.901 68.9254 231.583 67.402 231.907 65.7858Z" fill="#263238"/>
<path d="M207.053 76.7973C209.418 68.8728 211.091 60.7579 212.055 52.544C213.012 44.2902 211.906 35.9276 208.836 28.2069C208.349 27.064 204.225 19.3837 202.985 19.5649C202.093 19.7043 204.768 26.9246 204.378 27.7191C200.463 35.3157 199.753 44.2504 200.881 52.7251C202.052 60.9539 204.131 69.0274 207.081 76.7973" fill="#263238"/>
<path d="M173.729 146.407C186.504 145.473 209.77 119.547 209.77 119.547L206.245 45.268C205.855 24.5272 193.47 7.4801 172.809 8.44188L170.901 8.65095C161.643 9.62545 153.091 14.0515 146.947 21.0484C140.803 28.0453 137.517 37.1001 137.744 46.411C138.189 64.378 138.9 84.2267 140.028 93.8026C142.355 113.554 162.458 114.543 162.458 114.543C162.458 114.543 162.806 119.143 163.169 124.97C163.977 138.072 166.331 147.146 171.43 146.435L173.729 146.407Z" fill="#FFBE9D"/>
<path d="M162.417 114.516C171.551 113.534 180.211 109.949 187.368 104.187C187.368 104.187 182.603 119.241 162.681 119.52L162.417 114.516Z" fill="#EB996E"/>
<path d="M143.845 60.9073C143.874 61.2751 143.974 61.6337 144.142 61.9622C144.309 62.2908 144.541 62.5828 144.822 62.8213C145.103 63.0599 145.429 63.2402 145.78 63.3519C146.131 63.4636 146.501 63.5044 146.869 63.472C147.595 63.4359 148.279 63.1167 148.774 62.5827C149.269 62.0488 149.535 61.3424 149.516 60.6146C149.488 60.2468 149.387 59.8882 149.219 59.5597C149.052 59.2311 148.821 58.9391 148.539 58.7005C148.258 58.462 147.933 58.2816 147.581 58.1699C147.23 58.0582 146.86 58.0174 146.493 58.0499C145.766 58.086 145.082 58.4052 144.587 58.9391C144.093 59.4731 143.826 60.1795 143.845 60.9073Z" fill="#263238"/>
<path d="M142.787 54.1886C143.177 54.5092 145.155 52.6972 148.192 52.3905C151.229 52.0839 153.626 53.3663 153.904 52.962C154.057 52.7808 153.626 52.1536 152.511 51.5682C151.099 50.7972 149.484 50.4808 147.886 50.6621C146.33 50.8346 144.867 51.493 143.706 52.5439C142.843 53.3384 142.606 54.0353 142.787 54.1886Z" fill="#263238"/>
<path d="M173.032 59.0673C173.06 59.4351 173.161 59.7937 173.329 60.1222C173.496 60.4508 173.727 60.7428 174.009 60.9814C174.29 61.2199 174.615 61.4003 174.967 61.512C175.318 61.6237 175.688 61.6645 176.055 61.6321C176.782 61.5959 177.466 61.2767 177.961 60.7428C178.455 60.2088 178.721 59.5024 178.702 58.7746C178.628 58.0388 178.272 57.3604 177.708 56.8821C177.144 56.4038 176.417 56.1629 175.679 56.2099C174.952 56.246 174.269 56.5652 173.774 57.0992C173.279 57.6332 173.013 58.3395 173.032 59.0673Z" fill="#263238"/>
<path d="M172.684 52.321C173.074 52.6415 175.052 50.8295 178.089 50.5229C181.126 50.2162 183.523 51.4986 183.815 51.0943C183.955 50.9131 183.537 50.2859 182.422 49.7005C181.01 48.9295 179.395 48.6131 177.797 48.7945C176.241 48.9669 174.778 49.6253 173.617 50.6762C172.754 51.4289 172.433 52.1258 172.684 52.321Z" fill="#263238"/>
<path d="M164.255 76.7835C162.601 76.454 160.911 76.3323 159.226 76.4211C158.432 76.4211 157.68 76.3374 157.499 75.8217C157.354 75.0263 157.451 74.2057 157.777 73.4661L159.449 67.3191C161.748 58.5656 163.322 51.4011 162.974 51.3035C162.625 51.2059 160.466 58.2728 158.167 66.9985C157.624 69.1451 157.095 71.1801 156.593 73.1733C156.208 74.1639 156.178 75.2577 156.509 76.2677C156.653 76.5264 156.853 76.7495 157.094 76.9208C157.335 77.0921 157.611 77.2071 157.903 77.2574C158.365 77.3157 158.833 77.3157 159.296 77.2574C160.962 77.3093 162.629 77.1501 164.255 76.7835Z" fill="#263238"/>
<path d="M173.409 77.9403C172.921 77.9403 173.256 81.2717 170.623 83.9061C167.99 86.5405 164.507 86.5544 164.521 87.0284C164.521 87.2374 165.37 87.5859 166.861 87.4605C168.797 87.2879 170.609 86.4333 171.974 85.0491C173.289 83.7239 174.038 81.9399 174.064 80.0729C174.092 78.6791 173.646 77.8985 173.409 77.9403Z" fill="#263238"/>
<path d="M171.556 39.9154C171.946 40.71 174.941 39.9991 178.521 40.0548C182.102 40.1106 185.111 40.7796 185.487 40.0548C185.654 39.6785 185.069 38.9537 183.829 38.2707C182.17 37.4592 180.347 37.0374 178.5 37.0374C176.654 37.0374 174.831 37.4592 173.172 38.2707C171.974 38.8143 171.388 39.5391 171.556 39.9154Z" fill="#263238"/>
<path d="M142.982 43.9577C143.595 44.585 145.615 43.6511 148.123 43.3584C150.63 43.0657 152.817 43.3584 153.235 42.5499C153.417 42.1736 152.999 41.5184 152.01 40.9748C150.682 40.2986 149.177 40.0549 147.705 40.2779C146.226 40.4533 144.841 41.0925 143.748 42.1039C142.926 42.8844 142.717 43.6371 142.982 43.9577Z" fill="#263238"/>
<path d="M206.175 60.0848C206.496 59.9036 219.341 54.6209 220.33 68.1972C221.319 81.7735 207.499 79.9754 207.457 79.5851C207.415 79.1948 206.175 60.0848 206.175 60.0848Z" fill="#FFBE9D"/>
<path d="M211.219 74.135C211.219 74.135 211.47 74.2883 211.874 74.4417C212.453 74.6424 213.089 74.6074 213.643 74.3441C215.036 73.7168 216.081 71.3473 215.969 68.8941C215.914 67.7308 215.605 66.5937 215.064 65.5627C214.903 65.1501 214.645 64.7818 214.313 64.4885C213.981 64.1952 213.584 63.9853 213.155 63.8761C212.871 63.8136 212.575 63.8552 212.319 63.9934C212.063 64.1316 211.866 64.3571 211.762 64.6288C211.609 65.0191 211.762 65.2839 211.651 65.3118C211.539 65.3397 211.33 65.1027 211.4 64.5452C211.455 64.2035 211.621 63.8897 211.874 63.6531C212.226 63.3426 212.686 63.1824 213.155 63.2071C213.72 63.2772 214.257 63.4908 214.715 63.8275C215.174 64.1642 215.538 64.6129 215.774 65.1306C216.447 66.2592 216.826 67.539 216.875 68.8522C216.986 71.64 215.774 74.2605 213.852 74.9713C213.495 75.1039 213.113 75.1539 212.734 75.1177C212.355 75.0815 211.99 74.96 211.665 74.7623C211.275 74.4696 211.177 74.1629 211.219 74.135Z" fill="#EB996E"/>
<path d="M145.03 23.3563C142.759 22.283 148.889 14.7422 154.141 11.9405C162.054 7.75888 174.37 4.62267 182.004 6.28138C191.227 8.26068 199.042 12.289 204.114 20.2201C209.041 28.3334 211.715 37.6153 211.86 47.1079C212.146 49.97 211.665 52.8568 210.466 55.4711C208.767 58.5934 205.256 60.7121 205.674 64.8519C205.855 66.3417 205.445 67.8432 204.532 69.0335C202.219 71.8213 199.029 69.5493 197.468 67.1518C194.139 62.0223 193.4 55.6942 192.745 49.6169C192.042 45.3199 192.042 40.9369 192.745 36.6399C193.261 34.34 194.139 32.1238 194.584 29.796C194.854 28.6421 194.869 27.4433 194.629 26.283C194.388 25.1227 193.897 24.0289 193.191 23.0776C192.837 22.6907 192.445 22.3405 192.021 22.0321C190.023 20.5009 187.653 19.5298 185.156 19.2187C182.658 18.9075 180.123 19.2676 177.811 20.2619C170.343 23.4678 157.54 28.3464 153.974 25.9629C148.819 22.5479 147.496 20.1922 147.496 20.1922L145.03 23.3563Z" fill="#263238"/>
<path d="M181.196 4.48325C177.393 3.41219 173.415 3.10711 169.493 3.58564C165.571 4.06418 161.783 5.31683 158.348 7.271C154.768 9.4315 151.619 12.721 150.742 16.819C149.864 20.917 151.912 25.7538 155.883 27.0779L156.161 27.2313C162.068 28.8063 165.788 27.7888 171.486 25.4192C176.237 23.412 180.36 20.1365 185.125 18.1711C190.226 16.0663 195.84 15.5372 201.244 16.6518C195.748 10.9011 188.833 6.70351 181.196 4.48325Z" fill="#263238"/>
<path d="M207.722 16.5821C207.61 16.6936 206.454 15.453 204.169 14.0313C202.858 13.2075 201.455 12.5386 199.99 12.038C198.203 11.4111 196.299 11.1921 194.417 11.3968C190.979 11.9625 187.768 13.4839 185.153 15.7875C183.133 17.5717 182.227 19.0213 182.102 18.9238C181.976 18.8262 182.213 18.5056 182.631 17.8505C183.228 16.9352 183.924 16.089 184.707 15.3276C187.321 12.7586 190.672 11.0722 194.292 10.5048C196.31 10.2802 198.352 10.5332 200.255 11.2435C201.791 11.7946 203.244 12.5544 204.573 13.5016C205.832 14.2899 206.906 15.3406 207.722 16.5821Z" fill="#455A64"/>
<path d="M209.324 21.3352C209.277 22.6842 208.994 24.0145 208.488 25.266C206.369 31.4859 202.146 36.7707 196.549 40.2083C195.442 40.9802 194.206 41.5467 192.899 41.8809C192.718 41.63 198.471 39.0932 203.11 33.211C207.75 27.3289 209.031 21.2237 209.324 21.3352Z" fill="#455A64"/>
<path d="M214.966 23.2446C215.096 23.7494 215.139 24.2727 215.092 24.7918C215.092 26.1942 214.966 27.5937 214.715 28.9734C213.909 33.5982 211.971 37.9511 209.073 41.6433C206.175 45.3356 202.408 48.2521 198.109 50.1324C196.825 50.7148 195.492 51.1812 194.125 51.5263C193.632 51.696 193.113 51.7762 192.592 51.7633C192.592 51.6099 194.696 51.1221 197.844 49.5749C201.951 47.5931 205.549 44.6975 208.365 41.1097C211.181 37.522 213.138 33.3373 214.089 28.8759C214.841 25.4469 214.799 23.2446 214.966 23.2446Z" fill="#455A64"/>
<path d="M165.579 4.05103C165.579 4.19041 164.186 4.59464 162.054 5.58429C159.269 6.86928 156.699 8.57589 154.434 10.6441C152.174 12.724 150.244 15.135 148.708 17.7946C148.158 18.955 147.539 20.0814 146.855 21.1678C147.066 19.8761 147.499 18.631 148.137 17.488C149.55 14.6532 151.477 12.1057 153.821 9.97498C156.146 7.82952 158.854 6.1414 161.803 4.99887C162.991 4.44848 164.272 4.12692 165.579 4.05103Z" fill="#455A64"/>
<path d="M218.198 3.04754C218.421 3.04754 218.031 6.9922 215.133 10.7835C212.236 14.5749 208.586 16.0524 208.53 15.8294C208.474 15.6063 211.72 13.8501 214.409 10.2539C217.098 6.65769 217.92 2.9639 218.198 3.04754Z" fill="#455A64"/>
<path d="M162.974 122.419C162.974 122.419 145.197 125.43 135.932 134.699C126.668 143.968 97.4675 183.93 97.4675 183.93L123.213 229.134L135.111 218.875L144.417 296.458L289.556 296.918C290.016 295.524 266.694 173.156 266.694 173.156C266.694 173.156 272.392 139.173 258.6 129.751C251.843 125.137 239.862 121.875 230.918 119.45C217.335 115.756 210.021 113.624 210.021 113.624C210.021 113.624 184.219 143.564 173.534 143.494C163.141 143.425 162.974 122.419 162.974 122.419Z" fill="#122750"/>
<path d="M5.97909 99.2527C9.83813 99.9915 26.96 118.92 26.96 118.92L30.1921 118.446C31.5979 118.242 33.0306 118.327 34.4019 118.698C35.7732 119.07 37.0539 119.718 38.1649 120.604C39.276 121.489 40.1938 122.593 40.8616 123.848C41.5295 125.102 41.9331 126.48 42.0478 127.897C42.8001 137.082 43.1763 148.512 43.1763 148.512L26.9739 160.29H21.4013C16.4278 161.015 9.61518 151.997 5.15709 145.543C0.69899 139.09 5.38004 136.706 5.38004 136.706C3.98689 129.737 10.1725 129.89 10.1725 129.89C9.07191 123.618 15.3271 122.516 15.3271 122.516C15.3271 122.516 4.46054 109.623 1.88321 104.828C-0.69413 100.033 2.10611 98.514 5.97909 99.2527Z" fill="#FFBE9D"/>
<path d="M234.317 183.54C238.72 197.981 256.942 261.137 256.942 261.137L171.542 276.902L173.172 295.858L302.735 295.733C306.037 280.331 308.851 260.886 302.303 238.696C294.279 211.599 282.256 174.159 282.256 174.159" fill="#FFBE9D"/>
<path d="M299.113 197.716C299.113 197.716 265.677 132.441 258.6 129.751C246.215 125.025 219.452 139.326 222.698 155.077C225.944 170.828 245.393 224.13 245.393 224.13L299.113 197.716Z" fill="#122750"/>
<path d="M130.04 172.389C130.003 172.685 130.003 172.985 130.04 173.281C130.04 173.936 130.137 174.773 130.193 175.804C130.332 178.006 130.597 181.171 130.959 185.087C131.683 192.921 132.909 203.723 134.386 215.627C135.863 227.531 137.173 238.305 138.022 246.125C138.44 249.958 138.775 253.094 139.025 255.38C139.137 256.398 139.234 257.234 139.304 257.889C139.327 258.186 139.379 258.48 139.457 258.767C139.494 258.471 139.494 258.172 139.457 257.875C139.457 257.22 139.36 256.384 139.304 255.352C139.165 253.15 138.9 249.986 138.538 246.069C137.813 238.236 136.587 227.447 135.111 215.529C133.634 203.612 132.324 192.851 131.474 185.032C131.057 181.198 130.722 178.062 130.471 175.79C130.36 174.759 130.262 173.922 130.193 173.267C130.17 172.97 130.118 172.676 130.04 172.389Z" fill="#263238"/>
<path d="M222.378 165.545C222.183 165.545 226.724 178.09 232.52 193.534C238.315 208.978 243.164 221.412 243.359 221.286C243.554 221.161 238.998 208.741 233.203 193.283C227.407 177.825 222.587 165.476 222.378 165.545Z" fill="#263238"/>
<path d="M225.164 148.191C225.276 148.261 226.251 146.686 228.159 144.428C233.14 138.488 239.714 134.097 247.106 131.772C249.893 130.88 251.759 130.587 251.732 130.461C251.298 130.424 250.861 130.452 250.436 130.545C249.265 130.713 248.107 130.955 246.967 131.27C239.354 133.356 232.616 137.843 227.755 144.066C227.031 145.002 226.361 145.979 225.749 146.993C225.495 147.361 225.298 147.765 225.164 148.191Z" fill="#263238"/>
<path d="M85.7927 211.766C85.9878 211.766 85.2215 208.978 84.9986 205.396C84.7757 201.814 85.124 199.012 84.915 198.97C84.2288 201.053 84.01 203.261 84.2742 205.438C84.2978 207.635 84.8169 209.798 85.7927 211.766Z" fill="#EB996E"/>
<path d="M10.5626 129.778C11.3903 131.237 12.3215 132.634 13.3489 133.96C13.8281 134.668 14.3541 135.343 14.9231 135.981C15.6173 136.691 16.4218 137.284 17.3055 137.737C18.2846 138.294 19.3841 138.605 20.5097 138.643C21.131 138.632 21.7429 138.49 22.3066 138.229C22.8703 137.967 23.3733 137.591 23.7836 137.124C24.1989 136.612 24.447 135.984 24.4941 135.326C24.5164 134.712 24.4121 134.1 24.1877 133.528C23.7507 132.533 23.2383 131.573 22.6551 130.656C21.6953 129.12 20.6293 127.653 19.4648 126.266C18.6842 125.328 17.8516 124.434 16.971 123.59C16.6676 123.255 16.3154 122.968 15.9262 122.739C15.8426 122.823 17.2079 124.133 19.0747 126.586C20.1626 128 21.1674 129.475 22.084 131.005C22.6119 131.901 23.0774 132.833 23.4771 133.793C23.6976 134.254 23.787 134.768 23.7354 135.276C23.6838 135.785 23.4932 136.27 23.1845 136.678C22.8333 137.071 22.4042 137.387 21.9245 137.605C21.4449 137.823 20.9252 137.94 20.3982 137.946C19.3937 137.915 18.4106 137.648 17.5283 137.166C16.6946 136.75 15.9289 136.209 15.2575 135.563C14.6854 134.972 14.1591 134.338 13.6832 133.667C12.7438 132.293 11.7005 130.993 10.5626 129.778Z" fill="#EB996E"/>
<path d="M5.42175 135.633C5.54554 136.051 5.72852 136.45 5.9651 136.817C6.35518 137.542 6.95423 138.588 7.79013 139.828C8.78061 141.295 9.99864 142.593 11.3984 143.675C12.2343 144.356 13.2167 144.833 14.2682 145.069C14.8645 145.244 15.4991 145.241 16.0933 145.058C16.6875 144.876 17.2152 144.524 17.6112 144.045C18.0071 143.565 18.2539 142.981 18.3208 142.362C18.3878 141.744 18.2721 141.12 17.988 140.567C17.6187 139.593 17.152 138.659 16.5949 137.779C15.7072 136.279 14.7399 134.827 13.6971 133.43C13.0112 132.464 12.2765 131.534 11.4959 130.643C10.9526 130.015 10.6182 129.709 10.5764 129.737C10.5346 129.764 11.6352 131.242 13.2792 133.681C14.1011 134.908 15.0485 136.385 16.0655 138.072C16.5949 138.922 17.0383 139.824 17.389 140.762C17.6278 141.198 17.731 141.695 17.6854 142.19C17.6398 142.685 17.4476 143.155 17.1332 143.54C16.8189 143.925 16.3968 144.207 15.9211 144.35C15.4454 144.494 14.9378 144.492 14.4633 144.344C13.5136 144.122 12.6242 143.694 11.8581 143.09C10.4884 142.075 9.2811 140.858 8.2777 139.48C6.46659 137.166 5.5332 135.563 5.42175 135.633Z" fill="#EB996E"/>
<path d="M3.31807 141.529C3.55733 142.678 4.03166 143.764 4.71122 144.721C5.37897 145.803 6.15886 146.812 7.03785 147.732C7.55338 148.295 8.13317 148.795 8.76535 149.223C9.13825 149.484 9.56938 149.65 10.0211 149.706C10.4728 149.762 10.9314 149.706 11.3566 149.544C11.775 149.331 12.1212 148.999 12.3517 148.59C12.5822 148.18 12.6868 147.712 12.6522 147.244C12.6069 146.46 12.4081 145.693 12.0671 144.986C11.5224 143.834 10.8393 142.752 10.0331 141.766C9.35726 140.832 8.62198 139.943 7.83188 139.104C8.27495 140.177 8.87606 141.177 9.61516 142.072C10.3396 143.063 10.9562 144.129 11.4541 145.25C11.7402 145.883 11.9055 146.564 11.9417 147.258C11.9658 147.583 11.896 147.908 11.7403 148.195C11.5847 148.482 11.3499 148.718 11.064 148.875C10.7442 148.988 10.4023 149.024 10.0658 148.981C9.72938 148.937 9.40798 148.815 9.12759 148.624C8.53845 148.221 7.99631 147.753 7.51148 147.23C6.63793 146.375 5.84509 145.442 5.1431 144.442C3.8614 142.63 3.41559 141.403 3.31807 141.529Z" fill="#EB996E"/>
<path d="M30.192 118.446C25.5806 119.199 18.7959 120.551 14.4493 121.792C13.9059 124.579 16.2744 127.186 18.9632 127.966C21.7209 128.526 24.5763 128.362 27.2524 127.493C26.3955 128.69 25.7992 130.053 25.5021 131.495C25.2049 132.937 25.2136 134.426 25.5274 135.864C25.8412 137.303 26.4533 138.659 27.324 139.846C28.1946 141.033 29.3046 142.024 30.582 142.755" fill="#FFBE9D"/>
<path d="M30.582 142.755C29.2512 141.804 28.1042 140.618 27.1967 139.257C26.222 137.717 25.6694 135.948 25.5945 134.127C25.5258 131.832 26.2056 129.576 27.531 127.701L28.0744 126.949L27.1827 127.158C24.7875 127.881 22.2677 128.094 19.7851 127.785C16.7759 127.283 14.2125 124.468 14.7837 121.861L14.5468 122.112C19.0606 120.844 23.0172 120.035 25.7896 119.436L29.0356 118.753C29.4328 118.701 29.8215 118.598 30.192 118.446C29.7955 118.437 29.399 118.465 29.0078 118.53C28.2415 118.627 27.1131 118.795 25.7199 119.032C22.9336 119.519 18.9352 120.23 14.3657 121.457H14.1707V121.666C14.0437 122.445 14.0956 123.243 14.3225 123.999C14.5494 124.754 14.9453 125.449 15.4803 126.029C16.5564 127.288 18.0317 128.139 19.6597 128.44C22.2414 128.773 24.8643 128.545 27.3499 127.771L26.9877 127.242C25.5816 129.242 24.8897 131.658 25.0234 134.099C25.1382 136.011 25.7689 137.856 26.8484 139.438C27.5411 140.461 28.4145 141.349 29.4257 142.058C29.7656 142.359 30.1575 142.595 30.582 142.755Z" fill="#EB996E"/>
<path d="M171.542 276.902C171.542 276.902 150.226 279.369 144.974 282.868C139.722 286.366 130.039 295.859 130.039 295.859H173.227L171.542 276.902Z" fill="#FFBE9D"/>
</svg>
