<svg width="24" height="25" viewBox="0 0 24 25" fill="none" xmlns="http://www.w3.org/2000/svg">
<path d="M17 11.9705H13V7.97046C13 7.70524 12.8946 7.45089 12.7071 7.26335C12.5196 7.07582 12.2652 6.97046 12 6.97046C11.7348 6.97046 11.4804 7.07582 11.2929 7.26335C11.1054 7.45089 11 7.70524 11 7.97046V11.9705H7C6.73478 11.9705 6.48043 12.0758 6.29289 12.2634C6.10536 12.4509 6 12.7052 6 12.9705C6 13.2357 6.10536 13.49 6.29289 13.6776C6.48043 13.8651 6.73478 13.9705 7 13.9705H11V17.9705C11 18.2357 11.1054 18.49 11.2929 18.6776C11.4804 18.8651 11.7348 18.9705 12 18.9705C12.2652 18.9705 12.5196 18.8651 12.7071 18.6776C12.8946 18.49 13 18.2357 13 17.9705V13.9705H17C17.2652 13.9705 17.5196 13.8651 17.7071 13.6776C17.8946 13.49 18 13.2357 18 12.9705C18 12.7052 17.8946 12.4509 17.7071 12.2634C17.5196 12.0758 17.2652 11.9705 17 11.9705Z" fill="#374957"/>
</svg>
