<svg width="18" height="18" viewBox="0 0 18 18" fill="none" xmlns="http://www.w3.org/2000/svg">
<path d="M14.2958 5.89031C14.1914 5.78576 14.0673 5.70283 13.9308 5.64625C13.7942 5.58967 13.6479 5.56055 13.5001 5.56055C13.3523 5.56055 13.2059 5.58967 13.0694 5.64625C12.9329 5.70283 12.8088 5.78576 12.7043 5.89031L9.26484 9.32906C9.19452 9.39936 9.09916 9.43885 8.99972 9.43885C8.90028 9.43885 8.80492 9.39936 8.73459 9.32906L5.29584 5.89031C5.0849 5.67926 4.79875 5.56066 4.50036 5.56059C4.20197 5.56052 3.91577 5.67898 3.70472 5.88993C3.49367 6.10088 3.37507 6.38702 3.375 6.68542C3.37493 6.98381 3.4934 7.27001 3.70435 7.48106L7.14384 10.9206C7.3876 11.1643 7.67699 11.3577 7.99549 11.4897C8.31399 11.6216 8.65535 11.6895 9.00009 11.6895C9.34484 11.6895 9.6862 11.6216 10.0047 11.4897C10.3232 11.3577 10.6126 11.1643 10.8563 10.9206L14.2958 7.48106C14.5068 7.27009 14.6252 6.98399 14.6252 6.68568C14.6252 6.38737 14.5068 6.10128 14.2958 5.89031Z" fill="#404040"/>
<path d="M14.2958 5.89031C14.1914 5.78576 14.0673 5.70283 13.9308 5.64625C13.7942 5.58967 13.6479 5.56055 13.5001 5.56055C13.3523 5.56055 13.2059 5.58967 13.0694 5.64625C12.9329 5.70283 12.8088 5.78576 12.7043 5.89031L9.26484 9.32906C9.19452 9.39936 9.09916 9.43885 8.99972 9.43885C8.90028 9.43885 8.80492 9.39936 8.73459 9.32906L5.29584 5.89031C5.0849 5.67926 4.79875 5.56066 4.50036 5.56059C4.20197 5.56052 3.91577 5.67898 3.70472 5.88993C3.49367 6.10088 3.37507 6.38702 3.375 6.68542C3.37493 6.98381 3.4934 7.27001 3.70435 7.48106L7.14384 10.9206C7.3876 11.1643 7.67699 11.3577 7.99549 11.4897C8.31399 11.6216 8.65535 11.6895 9.00009 11.6895C9.34484 11.6895 9.6862 11.6216 10.0047 11.4897C10.3232 11.3577 10.6126 11.1643 10.8563 10.9206L14.2958 7.48106C14.5068 7.27009 14.6252 6.98399 14.6252 6.68568C14.6252 6.38737 14.5068 6.10128 14.2958 5.89031Z" fill="#404040"/>
</svg>
