<svg width="18" height="19" viewBox="0 0 18 19" fill="none" xmlns="http://www.w3.org/2000/svg">
<g clip-path="url(#clip0_2179_6921)">
<path d="M15.75 3.49999H13.425C13.0662 1.75518 11.5313 0.50225 9.74998 0.5H8.24996C6.46863 0.50225 4.93378 1.75518 4.57498 3.49999H2.24999C1.83578 3.49999 1.5 3.83577 1.5 4.24998C1.5 4.66419 1.83578 5 2.24999 5H2.99998V14.75C3.00247 16.82 4.67995 18.4975 6.74999 18.5H11.25C13.32 18.4975 14.9975 16.82 15 14.75V5H15.75C16.1642 5 16.5 4.66422 16.5 4.25001C16.5 3.8358 16.1642 3.49999 15.75 3.49999ZM8.25 13.25C8.25 13.6642 7.91422 14 7.50001 14C7.08577 14 6.74999 13.6642 6.74999 13.25V8.75001C6.74999 8.3358 7.08576 8.00002 7.49998 8.00002C7.91419 8.00002 8.24996 8.3358 8.24996 8.75001V13.25H8.25ZM11.25 13.25C11.25 13.6642 10.9142 14 10.5 14C10.0858 14 9.75001 13.6642 9.75001 13.25V8.75001C9.75001 8.3358 10.0858 8.00002 10.5 8.00002C10.9142 8.00002 11.25 8.3358 11.25 8.75001V13.25ZM6.12825 3.49999C6.44726 2.60171 7.29677 2.00114 8.25 1.99998H9.75001C10.7032 2.00114 11.5528 2.60171 11.8718 3.49999H6.12825Z" fill="#D62D33"/>
</g>
<defs>
<clipPath id="clip0_2179_6921">
<rect width="18" height="18" fill="white" transform="translate(0 0.5)"/>
</clipPath>
</defs>
</svg>
