<svg width="406" height="406" viewBox="0 0 406 406" fill="none" xmlns="http://www.w3.org/2000/svg">
<path d="M77.4318 287.083C72.8974 284.235 67.7687 282.468 62.4423 281.918C60.0063 281.667 57.3186 281.74 55.3535 283.226C55.1252 283.353 54.9364 283.541 54.8075 283.769C54.6786 283.997 54.6147 284.255 54.6227 284.517C54.7342 284.888 54.9805 285.203 55.3129 285.402C61.4111 290.055 70.6435 290.647 77.4318 287.083Z" fill="#E0E0E0"/>
<path d="M77.0499 286.636C73.5867 284.093 70.3558 281.248 67.3952 278.134C64.4101 274.996 62.3138 271.12 61.3214 266.904C61.0616 265.63 60.9804 264.168 61.8005 263.153C69.5226 269.178 75.6045 276.957 77.0742 286.652" fill="#E0E0E0"/>
<path d="M77.359 287.018C76.7743 282.795 76.547 278.459 77.5376 274.31C78.5283 270.161 80.7856 266.19 84.3097 263.819C85.6414 266.937 85.0649 270.526 84.1311 273.782C82.6718 278.826 80.4039 283.601 77.4158 287.919" fill="#E0E0E0"/>
<path d="M84.9187 300.578C80.3309 301.138 76.3277 303.558 72.9011 306.668C69.4477 309.802 67.0458 313.925 66.0234 318.474C70.53 318.19 74.3464 315.015 77.1235 311.451C79.9005 307.886 81.8168 303.98 84.8618 300.651" fill="#E0E0E0"/>
<path d="M86.5668 302.746C84.7568 298.156 84.1222 293.186 84.7206 288.288C85.319 283.39 87.1315 278.719 89.9934 274.7C92.6081 284.005 91.6174 294.52 86.5668 302.746Z" fill="#E0E0E0"/>
<path d="M96.5628 314.65C92.3673 314.386 88.1868 315.361 84.5413 317.455C80.8959 319.548 77.9464 322.667 76.0598 326.424C75.8081 326.927 75.5807 327.577 75.9217 328.048C76.1006 328.219 76.3179 328.344 76.5553 328.413C76.7927 328.483 77.0433 328.494 77.2859 328.446C81.3459 328.186 84.9025 325.75 87.8419 322.989C90.7813 320.228 93.3716 317.021 96.6359 314.626" fill="#E0E0E0"/>
<path d="M96.2461 314.009C94.0937 307.079 93.9613 299.679 95.8645 292.677C96.6115 289.925 97.8783 287.034 100.412 285.751C100.513 285.683 100.628 285.637 100.748 285.616C100.868 285.595 100.992 285.599 101.11 285.629C101.318 285.735 101.476 285.919 101.549 286.141C102.405 288.059 102.776 290.159 102.628 292.255C102.476 294.343 102.156 296.414 101.67 298.451C100.858 302.243 100.444 306.311 98.3655 309.575C97.8737 310.358 97.4317 311.172 97.0419 312.011C96.6521 312.823 96.6521 313.132 96.2867 313.789" fill="#E0E0E0"/>
<path d="M122.709 317.947C120.752 310.493 122.831 301.447 127.532 295.333C127.873 294.886 128.344 294.399 128.896 294.456C129.765 294.537 129.992 295.69 129.952 296.559C129.594 304.227 127.084 311.639 122.709 317.947Z" fill="#E0E0E0"/>
<path d="M125.097 319.579C134.159 321.934 144.585 319.644 152.088 314.09C147.569 311.82 142.405 311.186 137.472 312.295C132.6 313.416 128.134 315.6 125.097 319.603" fill="#E0E0E0"/>
<path d="M127.11 314.609C132.185 306.335 141.913 300.935 151.608 300.448C150.488 304.386 147.248 307.456 143.594 309.307C139.94 311.158 135.856 311.962 131.836 312.742C130.269 313.05 128.125 313.383 127.11 314.609Z" fill="#E0E0E0"/>
<path d="M123.212 290.517C124.584 285.808 125.965 281.058 126.346 276.169C126.728 271.281 126.03 266.174 123.488 261.976C118.746 271.151 118.267 281.87 123.074 291.005" fill="#E0E0E0"/>
<path d="M139.177 282.446C144.715 272.377 156.026 264.33 167.467 263.202C163.058 274.188 151.016 282.69 139.177 282.446Z" fill="#E0E0E0"/>
<path d="M135.685 284.427C143.951 285.686 150.999 290.964 158.721 294.171C160.342 294.952 162.139 295.297 163.934 295.17C164.772 295.168 165.588 294.906 166.271 294.422C166.955 293.937 167.471 293.253 167.751 292.464C168.03 291.674 168.058 290.817 167.831 290.011C167.604 289.204 167.134 288.488 166.484 287.96C165.39 286.947 164.103 286.165 162.7 285.662C154.279 282.154 145.258 282.064 136.415 284.2" fill="#E0E0E0"/>
<path d="M130.902 290.225C132.769 290.761 133.411 291.727 134.897 292.986C139.95 297.283 145.927 300.356 152.363 301.967C153.029 302.129 153.906 302.194 154.239 301.593C154.571 300.992 154.157 300.432 153.784 299.969C150.974 296.675 147.327 294.2 143.228 292.807C139.168 291.305 135.701 289.494 130.894 289.884" fill="#E0E0E0"/>
<path d="M125.502 255.203C128.892 258.328 132.897 260.709 137.261 262.195C141.626 263.68 146.253 264.236 150.844 263.827C151.269 263.834 151.681 263.687 152.006 263.413C152.639 262.714 151.876 261.643 151.129 261.066C143.683 255.252 134.653 252.849 125.502 255.203Z" fill="#E0E0E0"/>
<path d="M131.9 252.857C136.389 249.558 141.594 247.368 147.091 246.465C152.587 245.561 158.22 245.971 163.528 247.66C159.549 251.582 154.019 253.693 148.457 254.27C142.899 254.781 137.294 254.308 131.9 252.873" fill="#E0E0E0"/>
<path d="M129.359 236.763C128.628 229.325 129.099 223.454 128.588 215.984C128.547 215.383 128.417 214.668 127.857 214.449C127.045 214.157 126.428 215.107 126.176 215.903C125.092 219.366 124.815 223.032 125.365 226.62C125.915 230.207 127.279 233.621 129.351 236.601" fill="#E0E0E0"/>
<path d="M128.823 237.591C133.866 234.473 137.65 230.397 141.141 225.614C143.577 222.285 145.632 218.306 145.079 214.206C141.661 214.141 138.413 216.024 136.188 218.623C133.963 221.221 132.648 224.461 131.657 227.733C130.666 231.006 129.984 234.368 128.823 237.591Z" fill="#E0E0E0"/>
<path d="M140.93 234.221C152.021 230.123 162.29 224.073 171.25 216.357C167.629 214.904 163.479 215.773 159.882 217.234C151.616 220.58 144.852 226.215 140.792 234.156" fill="#E0E0E0"/>
<path d="M132.226 241.659C137.828 242.268 143.512 242.666 149.066 241.741C154.621 240.815 159.679 238.663 164.787 236.519C165.229 236.389 165.608 236.1 165.851 235.707C165.931 235.47 165.938 235.215 165.869 234.974C165.801 234.733 165.662 234.519 165.469 234.359C165.076 234.051 164.618 233.837 164.129 233.734C158.583 232.183 152.599 232.922 147.142 234.749C141.942 236.525 136.943 238.841 132.226 241.659Z" fill="#E0E0E0"/>
<path d="M100.265 255.455C96.449 247.749 96.6926 238.752 99.9974 230.803C102.32 234.343 102.604 238.85 102.174 243.064C101.743 247.278 100.468 251.606 100.387 255.837" fill="#E0E0E0"/>
<path d="M85.0074 247.757C80.2262 247.696 75.4847 248.632 71.0861 250.507C66.6874 252.382 62.7283 255.154 59.4619 258.646C64.2202 259.393 69.1247 258.167 73.4527 256.048C77.7806 253.929 81.6295 250.973 85.4378 248.025" fill="#E0E0E0"/>
<path d="M74.752 244.331C70.0911 243.949 65.6008 243.373 61.1185 244.753C56.6363 246.133 52.5519 249.284 50.7168 253.563C55.1212 253.914 59.5387 253.072 63.5058 251.127C67.448 249.189 71.2113 246.907 74.752 244.306" fill="#E0E0E0"/>
<path d="M89.9367 244.485C85.7468 241.74 81.4351 238.939 76.5468 237.802C71.6586 236.665 65.9908 237.502 62.5967 241.188C66.5511 243.503 71.35 243.779 75.9297 243.779C80.5094 243.779 86.1366 243.722 90.4645 245.248" fill="#E0E0E0"/>
<path d="M89.9606 244.712C82.7907 237.664 80.0705 225.013 82.9531 215.383C88.6187 224.051 91.0958 234.419 89.9606 244.712Z" fill="#E0E0E0"/>
<path d="M109.692 224.753C111.04 221.603 111.998 218.306 113.208 215.099C114.318 211.863 116.02 208.862 118.227 206.248C120.469 203.607 123.659 201.954 127.11 201.644C126.005 206.497 123.901 211.067 120.931 215.061C117.962 219.055 114.192 222.387 109.863 224.843" fill="#E0E0E0"/>
<path d="M106.12 228.911C103.879 225.825 101.296 221.603 98.2595 219.346C95.2226 217.088 91.2681 215.651 87.5654 216.536C89.4839 219.899 92.1597 222.768 95.3804 224.916C98.6011 227.064 102.278 228.432 106.12 228.911Z" fill="#E0E0E0"/>
<path d="M106.835 225.005C105.365 221.278 103.887 217.51 103.294 213.548C102.702 209.585 103.067 205.347 105.089 201.896C109.027 209.334 110.294 217.324 107.038 225.095" fill="#E0E0E0"/>
<path d="M109.725 201.896C111.958 194.515 118.713 189.082 126.005 186.589C126.91 186.219 127.89 186.072 128.863 186.159C129.349 186.207 129.81 186.4 130.185 186.713C130.56 187.025 130.832 187.444 130.967 187.913C131.234 189.172 130.195 190.292 129.221 191.161C123.518 196.028 116.889 199.69 109.733 201.928" fill="#E0E0E0"/>
<path d="M109.806 195.854C110.09 191.096 110.391 186.273 111.934 181.766C113.476 177.26 116.464 173.029 120.801 171.056C121.539 175.863 119.42 180.638 116.862 184.779C114.305 188.92 111.227 192.818 109.692 197.43" fill="#E0E0E0"/>
<path d="M109.692 199.135C107.849 193.751 107.654 186.955 104.439 182.237C102.181 178.989 98.5759 176.732 96.6433 173.265C95.4688 176.591 95.6289 180.244 97.0899 183.455C98.5564 186.627 100.574 189.514 103.05 191.981C105.437 194.523 107.475 196.439 109.692 199.135Z" fill="#E0E0E0"/>
<path d="M109.725 357.507C109.587 357.507 109.457 321.633 109.449 277.387C109.441 233.141 109.546 197.259 109.692 197.259C109.838 197.259 109.96 233.125 109.968 277.387C109.976 321.649 109.871 357.507 109.725 357.507Z" fill="#E0E0E0"/>
<path d="M141.076 250.039C140.646 250.257 140.195 250.428 139.728 250.551L136.018 251.801C132.883 252.865 128.588 254.408 123.919 256.324C119.25 258.24 114.938 259.913 112.461 262.065C111.472 262.892 110.683 263.933 110.155 265.11C109.798 265.922 109.741 266.466 109.693 266.458C109.668 266.335 109.668 266.208 109.693 266.084C109.744 265.727 109.831 265.377 109.952 265.037C110.423 263.785 111.196 262.67 112.202 261.789C113.697 260.521 115.372 259.481 117.171 258.703C119.16 257.778 121.369 256.803 123.708 255.845C128.385 253.929 132.721 252.435 135.888 251.452C137.471 250.957 138.762 250.591 139.655 250.356C140.118 250.207 140.594 250.101 141.076 250.039Z" fill="#E0E0E0"/>
<path d="M151.357 224.802C151.241 224.946 151.114 225.079 150.975 225.2L149.822 226.288L145.527 230.186L131.219 242.926C125.641 247.895 120.817 252.67 117.472 256.218C115.799 258.005 114.476 259.466 113.574 260.522L112.535 261.708C112.426 261.854 112.297 261.985 112.153 262.097C112.232 261.933 112.334 261.78 112.454 261.643C112.673 261.35 112.99 260.92 113.42 260.392C114.232 259.312 115.556 257.794 117.204 255.975C121.521 251.256 126.085 246.77 130.878 242.536C136.481 237.583 141.58 233.125 145.283 229.918L149.692 226.134L150.91 225.127C151.186 224.924 151.34 224.786 151.357 224.802Z" fill="#E0E0E0"/>
<path d="M125.194 247.977C125.048 247.912 126.217 245.224 127.378 241.814C128.539 238.403 129.1 235.537 129.254 235.561C129.408 235.586 129.059 238.533 127.866 241.984C127.366 243.451 126.789 244.89 126.136 246.296C125.907 246.9 125.59 247.466 125.194 247.977Z" fill="#E0E0E0"/>
<path d="M109.757 269.698C109.442 269.39 109.154 269.056 108.897 268.699L106.696 265.865C104.845 263.478 102.287 260.181 99.3882 256.559C96.4894 252.938 93.8828 249.698 91.9746 247.351L89.7173 244.566C89.4046 244.243 89.1319 243.883 88.9053 243.494C89.2405 243.778 89.5503 244.09 89.831 244.428C90.4075 245.053 91.2195 245.971 92.2101 247.116C94.1995 249.406 96.8791 252.613 99.7536 256.235C102.628 259.856 105.145 263.194 106.924 265.646C107.809 266.872 108.548 267.871 108.994 268.577C109.292 268.919 109.548 269.296 109.757 269.698Z" fill="#E0E0E0"/>
<path d="M102.888 260.871C102.798 260.961 100.963 258.784 100.005 255.48C99.4658 253.719 99.2458 251.877 99.3556 250.039H99.5829C99.4774 250.453 99.4043 250.673 99.3637 250.664C99.3231 250.656 99.3231 250.429 99.3637 249.999H99.5911C99.7025 251.792 100.01 253.567 100.509 255.293C101.426 258.533 103.026 260.782 102.888 260.871Z" fill="#E0E0E0"/>
<path d="M94.013 249.706C93.3939 249.233 92.7172 248.84 91.9993 248.537C90.1916 247.999 88.2911 247.847 86.4209 248.09C84.5232 248.237 82.641 248.541 80.7937 249C80.0365 249.239 79.2631 249.423 78.4795 249.552C79.1724 249.149 79.9187 248.845 80.6962 248.651C82.5438 248.077 84.4509 247.718 86.3802 247.579C88.321 247.319 90.2958 247.53 92.1373 248.196C92.9169 248.47 93.5789 249.003 94.013 249.706Z" fill="#E0E0E0"/>
<path d="M91.9095 247.002C91.9095 247.083 90.7321 246.531 88.8239 245.882C86.3395 245.035 83.7589 244.503 81.1424 244.298C78.524 244.108 75.8922 244.242 73.3066 244.696C71.3172 245.053 70.1154 245.419 70.0586 245.338C70.3099 245.181 70.5837 245.063 70.8706 244.988C71.6316 244.719 72.4103 244.502 73.201 244.339C75.8088 243.762 78.4876 243.573 81.1505 243.779C83.8123 243.982 86.4302 244.573 88.9214 245.533C89.6744 245.821 90.4092 246.154 91.1219 246.531C91.407 246.647 91.6727 246.806 91.9095 247.002Z" fill="#E0E0E0"/>
<path d="M109.693 235.561C109.554 235.561 108.548 232.102 107.443 227.758C106.339 223.414 105.559 219.857 105.697 219.825C105.836 219.792 106.842 223.284 107.947 227.628C109.051 231.972 109.831 235.521 109.693 235.561Z" fill="#E0E0E0"/>
<path d="M109.831 235.561C109.676 235.61 109.019 233.271 107.346 230.884C106.29 229.473 105.057 228.204 103.676 227.108C104.201 227.231 104.689 227.479 105.097 227.831C106.134 228.596 107.037 229.53 107.768 230.592C109.522 233.044 109.961 235.553 109.831 235.561Z" fill="#E0E0E0"/>
<path d="M109.725 338.385C109.668 338.385 109.562 337.516 109.156 335.997C108.554 333.851 107.738 331.769 106.72 329.786C104.284 324.719 99.7372 318.296 94.0045 311.865C91.1625 308.617 88.4098 305.556 86.0713 302.632C83.9687 300.055 82.0683 297.318 80.3873 294.447C79.2596 292.509 78.3006 290.477 77.5209 288.374C77.2611 287.627 77.0662 287.042 76.9606 286.636C76.8888 286.436 76.8398 286.229 76.8145 286.019C76.8632 286.019 77.123 286.831 77.7158 288.301C78.5587 290.36 79.5577 292.353 80.7039 294.261C82.4176 297.086 84.3335 299.783 86.4367 302.332C88.7833 305.231 91.5441 308.276 94.3861 311.524C100.135 317.971 104.634 324.516 107.045 329.623C108.022 331.646 108.781 333.766 109.311 335.949C109.473 336.761 109.587 337.329 109.627 337.743C109.682 337.953 109.715 338.168 109.725 338.385Z" fill="#E0E0E0"/>
<path d="M138.039 306.384C137.561 306.684 137.065 306.955 136.553 307.196C135.211 307.949 133.925 308.799 132.705 309.737C130.902 311.142 129.211 312.684 127.646 314.35C125.867 316.225 124.04 318.41 122.173 320.74C118.446 325.417 114.954 329.558 112.867 332.871C111.804 334.495 111.032 335.892 110.529 336.866C110.292 337.382 110.021 337.881 109.717 338.36C109.741 338.213 109.787 338.071 109.855 337.938C109.969 337.67 110.115 337.272 110.358 336.777C111.006 335.377 111.744 334.021 112.567 332.717C114.589 329.331 118.056 325.125 121.783 320.456C123.651 318.117 125.502 315.933 127.313 314.057C128.909 312.391 130.642 310.862 132.493 309.486C133.745 308.558 135.077 307.743 136.472 307.05C136.959 306.798 137.365 306.644 137.625 306.53C137.755 306.461 137.895 306.411 138.039 306.384Z" fill="#E0E0E0"/>
<path d="M138.608 316.761C137.577 316.998 136.529 317.15 135.473 317.216C132.952 317.478 130.459 317.97 128.027 318.686C125.625 319.466 123.374 320.649 121.369 322.185C119.826 323.371 119.103 324.353 119.03 324.297C119.145 324.031 119.304 323.786 119.501 323.574C119.985 322.963 120.529 322.403 121.125 321.901C123.113 320.244 125.401 318.984 127.865 318.19C130.325 317.458 132.862 317.012 135.425 316.859C136.48 316.73 137.546 316.697 138.608 316.761Z" fill="#E0E0E0"/>
<path d="M119.948 323.176C119.786 323.087 121.199 320.927 122.295 318.02C123.391 315.113 123.57 312.514 123.757 312.547C123.829 313.107 123.81 313.674 123.7 314.228C123.544 315.582 123.237 316.914 122.782 318.198C122.307 319.472 121.698 320.692 120.963 321.836C120.403 322.689 120.005 323.176 119.948 323.176Z" fill="#E0E0E0"/>
<path d="M147.231 278.516C147.074 278.623 146.905 278.713 146.728 278.784L145.258 279.45C144.608 279.726 143.821 280.083 142.944 280.546C142.067 281.009 141.019 281.472 139.939 282.121L138.226 283.096C137.633 283.437 137.049 283.843 136.424 284.232C135.165 284.996 133.898 285.938 132.55 286.904C126.768 291.201 121.724 296.412 117.618 302.332C116.708 303.712 115.807 305.012 115.084 306.303C114.711 306.936 114.329 307.537 114.004 308.146L113.095 309.892C112.486 310.988 112.047 312.035 111.625 312.937C111.203 313.838 110.862 314.634 110.61 315.291C110.358 315.949 110.147 316.388 109.985 316.786C109.921 316.964 109.839 317.135 109.741 317.297C109.766 317.11 109.816 316.927 109.887 316.753L110.415 315.218C110.643 314.544 110.943 313.741 111.357 312.782C111.771 311.824 112.169 310.801 112.77 309.681L113.655 307.91C113.972 307.301 114.345 306.692 114.711 306.043C115.425 304.735 116.335 303.42 117.228 301.983C121.318 295.978 126.404 290.716 132.266 286.425C133.63 285.467 134.913 284.525 136.196 283.77C136.83 283.388 137.422 282.958 138.031 282.649L139.769 281.699C140.865 281.074 141.913 280.619 142.814 280.189C143.584 279.808 144.373 279.467 145.177 279.166L146.687 278.589C146.865 278.542 147.048 278.518 147.231 278.516Z" fill="#E0E0E0"/>
<path d="M124.812 293.538C125.019 292.811 125.452 292.169 126.047 291.703C127.424 290.503 129.181 289.827 131.008 289.795C132.802 289.785 134.58 290.132 136.237 290.818C136.941 291.04 137.608 291.363 138.219 291.776C137.5 291.636 136.796 291.429 136.116 291.159C134.474 290.611 132.754 290.337 131.024 290.347C129.307 290.383 127.645 290.966 126.282 292.011C125.756 292.484 125.265 292.994 124.812 293.538Z" fill="#E0E0E0"/>
<path d="M121.459 296.997C121.321 296.916 122.579 295.065 122.872 292.401C123.164 289.738 122.401 287.659 122.555 287.618C122.856 288.008 123.057 288.465 123.14 288.95C123.74 291.264 123.45 293.718 122.328 295.828C121.897 296.624 121.507 297.03 121.459 296.997Z" fill="#E0E0E0"/>
<path d="M84.9512 343.525C85.7226 357.231 89.8232 371.173 96.2055 385.27H123.813C129.871 371.319 133.72 357.394 134.369 343.525H84.9512Z" fill="#E0E0E0"/>
<path d="M129.919 365.709C129.919 365.855 120.825 365.968 109.619 365.968C98.4137 365.968 89.3193 365.855 89.3193 365.709C89.3193 365.562 98.4137 365.449 109.619 365.449C120.825 365.449 129.919 365.562 129.919 365.709Z" fill="#FAFAFA"/>
<path d="M129.335 370.678C129.335 370.816 120.809 370.93 110.286 370.93C99.7623 370.93 91.2363 370.816 91.2363 370.678C91.2363 370.54 99.7623 370.418 110.286 370.418C120.809 370.418 129.335 370.532 129.335 370.678Z" fill="#FAFAFA"/>
<path d="M96.627 352.522C96.7732 352.522 96.8869 355.372 96.8869 358.888C96.8869 362.404 96.7732 365.254 96.627 365.254C96.4809 365.254 96.3672 362.404 96.3672 358.888C96.3672 355.372 96.5133 352.522 96.627 352.522Z" fill="#FAFAFA"/>
<path d="M111.463 352.522C111.601 352.522 111.723 355.477 111.723 359.115C111.723 362.753 111.601 365.709 111.463 365.709C111.325 365.709 111.203 362.753 111.203 359.115C111.203 355.477 111.317 352.522 111.463 352.522Z" fill="#FAFAFA"/>
<path d="M125.356 352.408C125.502 352.408 125.616 355.412 125.616 359.123C125.616 362.834 125.502 365.847 125.356 365.847C125.21 365.847 125.104 362.842 125.104 359.123C125.104 355.404 125.218 352.408 125.356 352.408Z" fill="#FAFAFA"/>
<path d="M133.557 352.522C133.557 352.668 122.879 352.782 109.725 352.782C96.5707 352.782 85.8848 352.668 85.8848 352.522C85.8848 352.376 96.5545 352.262 109.725 352.262C122.896 352.262 133.557 352.408 133.557 352.522Z" fill="#FAFAFA"/>
<path d="M107.525 44.6275H42.3535V112.559H107.525V44.6275Z" fill="#E0E0E0"/>
<path d="M103.108 44.6275H37.9365V112.559H103.108V44.6275Z" fill="#FAFAFA"/>
<path d="M103.124 112.584H37.9199V44.6113H103.124V112.584ZM37.9524 112.543H103.124V44.66H37.9605L37.9524 112.543Z" fill="#E0E0E0"/>
<path d="M94.3454 53.7625H46.6973V103.433H94.3454V53.7625Z" fill="white"/>
<path d="M46.6975 103.765C46.359 104.264 45.9639 104.722 45.5201 105.13C44.7649 105.942 43.6931 107.022 42.4913 108.199C41.2896 109.376 40.1934 110.432 39.3814 111.179C38.971 111.617 38.5072 112.002 38.001 112.324C38.3387 111.827 38.7339 111.372 39.1784 110.968C39.9335 110.156 41.0054 109.068 42.2071 107.89C43.4089 106.713 44.5132 105.649 45.3252 104.902C45.7338 104.468 46.1948 104.086 46.6975 103.765Z" fill="#E0E0E0"/>
<path d="M94.3457 103.636C94.845 103.976 95.3052 104.371 95.718 104.813C96.53 105.576 97.6018 106.648 98.7873 107.842C99.9729 109.035 101.02 110.148 101.767 110.96C102.202 111.371 102.586 111.831 102.912 112.332C102.412 111.998 101.954 111.606 101.548 111.163C100.736 110.408 99.6562 109.328 98.4707 108.126C97.2851 106.924 96.2377 105.82 95.4906 105.008C95.0565 104.597 94.6722 104.136 94.3457 103.636Z" fill="#E0E0E0"/>
<path d="M94.1914 53.8924C94.5331 53.3963 94.9279 52.9389 95.3688 52.5283C96.1321 51.7163 97.1958 50.6363 98.3976 49.4589C99.5993 48.2815 100.687 47.2259 101.499 46.4789C101.909 46.0402 102.373 45.6555 102.88 45.334C102.544 45.8302 102.152 46.2853 101.711 46.69C100.947 47.502 99.8754 48.582 98.6736 49.7675C97.4719 50.953 96.3676 52.0086 95.5556 52.7556C95.1516 53.1916 94.6931 53.5737 94.1914 53.8924Z" fill="#E0E0E0"/>
<path d="M46.5673 54.0142C46.0686 53.6757 45.6109 53.2806 45.2031 52.8368C44.3911 52.0817 43.3111 51.0098 42.1337 49.8081C40.9563 48.6063 39.9007 47.5101 39.1537 46.6981C38.7165 46.2901 38.3319 45.8291 38.0088 45.3258C38.5075 45.6579 38.963 46.0506 39.3648 46.4951C40.1768 47.2503 41.2568 48.3221 42.4423 49.5239C43.6278 50.7256 44.6591 51.83 45.4711 52.642C45.8888 53.055 46.2567 53.5156 46.5673 54.0142Z" fill="#E0E0E0"/>
<path d="M94.1914 103.433C94.1914 103.433 94.1914 103.343 94.1914 103.189C94.1914 103.035 94.1914 102.791 94.1914 102.499C94.1914 101.871 94.1914 100.978 94.1914 99.8191C94.1914 97.4643 94.1914 94.0377 94.1427 89.6935C94.1427 80.997 94.0859 68.5815 94.0534 53.7625L94.232 53.9493H46.7219L46.933 53.7381C46.933 71.9675 46.933 89.0195 46.933 103.408L46.7463 103.23L81.1507 103.319L90.8216 103.368H93.3794H94.0372H93.3794H90.8622L81.24 103.416L46.7138 103.506H46.5352V103.327C46.5352 88.9383 46.5352 71.8863 46.5352 53.6569V53.592H46.7544H94.1914H94.3782V53.7787C94.3376 68.6627 94.3051 81.1025 94.2808 89.8234C94.2808 94.1514 94.2808 97.5618 94.232 99.9085C94.232 101.053 94.232 101.938 94.232 102.556C94.232 102.84 94.232 103.059 94.232 103.23C94.2248 103.298 94.2112 103.366 94.1914 103.433Z" fill="#E0E0E0"/>
<path d="M78.4712 70.644H62.5723V86.5429H78.4712V70.644Z" fill="#EBEBEB"/>
<path d="M359.253 30.0602H264.558V167.313H359.253V30.0602Z" fill="#E0E0E0"/>
<path d="M354.502 30.0602H259.807V167.313H354.502V30.0602Z" fill="#F5F5F5"/>
<path d="M342.737 44.9198H271.573V152.445H342.737V44.9198Z" fill="white"/>
<path d="M342.736 152.445C342.736 152.445 342.736 152.258 342.736 151.917C342.736 151.576 342.736 151.056 342.736 150.391C342.736 149.043 342.736 147.061 342.736 144.495C342.736 139.339 342.737 131.836 342.672 122.344C342.672 103.384 342.607 76.5391 342.558 44.9198L342.793 45.1553H271.638L271.898 44.8955C271.898 85.4549 271.898 122.847 271.841 152.421L271.638 152.218L323.435 152.323L337.751 152.372H341.502H342.801H341.543H337.832L323.565 152.429L271.638 152.534H271.435V152.331C271.435 122.766 271.435 85.3656 271.378 44.8062V44.66H271.646H342.801H343.037V44.8955C342.988 76.5635 342.948 103.481 342.923 122.474C342.923 131.942 342.875 139.429 342.858 144.568C342.858 147.118 342.858 149.083 342.858 150.423C342.858 151.073 342.858 151.576 342.858 151.917C342.858 152.258 342.736 152.445 342.736 152.445Z" fill="#E0E0E0"/>
<path d="M354.77 30.044C354.274 30.9004 353.71 31.7151 353.082 32.48C351.977 33.9497 350.418 35.9472 348.64 38.1153C346.862 40.2833 345.189 42.1753 343.955 43.5557C343.319 44.3342 342.615 45.0543 341.852 45.7075C342.385 44.8706 342.988 44.0802 343.654 43.3445C344.929 41.8099 346.488 39.9098 348.218 37.8148L352.773 32.2851C353.371 31.4803 354.04 30.7303 354.77 30.044Z" fill="#E0E0E0"/>
<path d="M343.102 152.096C346.64 157.721 350.802 162.93 355.509 167.621L343.102 152.096Z" fill="white"/>
<path d="M355.509 167.621C354.724 167.038 354 166.377 353.349 165.648C350.044 162.291 347.094 158.601 344.547 154.637C343.977 153.843 343.493 152.991 343.102 152.096C343.739 152.832 344.323 153.614 344.847 154.434C345.887 155.904 347.356 157.91 349.07 160.045C350.783 162.181 352.415 164.105 353.609 165.404C354.299 166.092 354.935 166.834 355.509 167.621Z" fill="#E0E0E0"/>
<path d="M259.84 167.199L272.239 151.901L259.84 167.199Z" fill="white"/>
<path d="M272.198 151.901C272.312 151.99 269.624 155.482 266.197 159.712C262.771 163.943 259.904 167.288 259.799 167.199C259.693 167.11 262.373 163.61 265.8 159.387C269.226 155.165 272.093 151.844 272.198 151.901Z" fill="#E0E0E0"/>
<path d="M259.84 30.044C259.954 29.9547 262.649 33.1702 265.865 37.2383C269.08 41.3064 271.589 44.6681 271.476 44.7574C269.345 42.4641 267.337 40.0599 265.459 37.555C263.454 35.1528 261.578 32.6456 259.84 30.044Z" fill="#E0E0E0"/>
<path d="M320.56 66.7545H296.736V134.41H320.56V66.7545Z" fill="#E0E0E0"/>
<path d="M303.883 310.996C303.802 311.085 303.16 310.704 302.438 310.127C301.715 309.551 301.203 309.007 301.276 308.909C301.35 308.812 301.999 309.201 302.722 309.778C303.445 310.355 303.956 310.882 303.883 310.996Z" fill="#263238"/>
<path d="M323.468 281.691C323.59 278.954 323.663 276.153 322.803 273.571C321.942 270.989 319.936 268.577 317.257 268.025C314.195 267.392 311.061 269.324 309.34 271.939C307.618 274.553 307.042 277.72 306.53 280.806C303.04 302.078 301.753 323.653 302.689 345.189L315.218 346.943C320.74 324.451 322.47 304.809 323.468 281.691Z" fill="#455A64"/>
<path d="M315.519 267.911C315.519 267.911 315.519 267.984 315.462 268.114C315.405 268.244 315.332 268.447 315.251 268.683C315.048 269.21 314.772 269.933 314.439 270.843C314.268 271.314 314.033 271.825 313.846 272.41L313.237 274.302C313.018 274.984 312.79 275.715 312.539 276.486L311.889 278.963C310.839 283.045 310.026 287.185 309.453 291.362C308.779 296.071 308.333 301.284 307.983 306.79C307.342 317.768 307.245 327.723 306.96 334.926C306.83 338.531 306.709 341.422 306.571 343.46C306.497 344.434 306.449 345.206 306.408 345.774L306.359 346.375C306.368 346.442 306.368 346.51 306.359 346.578C306.348 346.511 306.348 346.442 306.359 346.375C306.359 346.212 306.359 346.009 306.359 345.766C306.359 345.197 306.384 344.426 306.433 343.452C306.522 341.438 306.595 338.523 306.684 334.918C306.887 327.715 306.936 317.76 307.577 306.765C307.927 301.276 308.389 296.047 309.088 291.337C309.674 287.148 310.517 282.999 311.613 278.914L312.287 276.437L313.026 274.261L313.676 272.369C313.87 271.785 314.114 271.281 314.301 270.81C314.691 269.909 314.991 269.186 315.218 268.675L315.462 268.122C315.471 268.05 315.49 267.979 315.519 267.911Z" fill="#263238"/>
<path d="M316.68 267.96C317.334 268.73 317.853 269.606 318.215 270.55C319.176 273.143 319.567 275.913 319.359 278.67C319.027 285.589 318.401 295.121 317.581 305.653C316.761 316.185 315.868 325.612 315.056 332.53C314.682 335.965 314.366 338.75 314.13 340.65C314.008 341.576 313.911 342.315 313.846 342.859C313.846 343.086 313.781 343.273 313.757 343.427C313.755 343.494 313.741 343.56 313.716 343.622C313.705 343.558 313.705 343.492 313.716 343.427L313.757 342.851C313.805 342.299 313.87 341.56 313.96 340.626C314.146 338.661 314.414 335.884 314.772 332.506C315.429 325.62 316.298 316.095 317.126 305.572C317.955 295.048 318.621 285.507 319.035 278.605C319.269 275.891 318.931 273.158 318.044 270.583C317.672 269.668 317.215 268.79 316.68 267.96Z" fill="#263238"/>
<path d="M325.36 300.334C324.539 300.27 323.736 300.061 322.989 299.717C322.191 299.509 321.438 299.16 320.764 298.686C321.585 298.74 322.389 298.947 323.135 299.295C323.934 299.502 324.688 299.855 325.36 300.334Z" fill="#263238"/>
<path d="M326.87 287.57C325.434 288.533 323.844 289.244 322.169 289.673C323.6 288.701 325.192 287.989 326.87 287.57Z" fill="#263238"/>
<path d="M326.083 277.152C325.476 277.326 324.837 277.36 324.215 277.249C323.192 277.176 322.372 277.022 322.38 276.892C322.987 276.717 323.627 276.687 324.248 276.803C324.878 276.772 325.507 276.892 326.083 277.152Z" fill="#263238"/>
<path d="M313.164 270.477C313.059 270.542 312.506 269.86 311.938 268.951C311.37 268.041 310.988 267.254 311.126 267.189C311.264 267.124 311.776 267.806 312.344 268.715C312.912 269.625 313.27 270.396 313.164 270.477Z" fill="#263238"/>
<path d="M308.892 276.778C308.322 276.98 307.712 277.041 307.114 276.957C306.511 277.018 305.903 276.929 305.344 276.697C305.913 276.494 306.523 276.43 307.122 276.51C308.096 276.535 308.892 276.648 308.892 276.778Z" fill="#263238"/>
<path d="M305.823 289.381C305.17 289.354 304.531 289.179 303.955 288.869C302.965 288.471 302.202 288.057 302.25 287.935C302.903 287.963 303.542 288.138 304.118 288.447C305.108 288.845 305.872 289.267 305.823 289.381Z" fill="#263238"/>
<path d="M305.499 299.977C305.499 300.099 304.808 300.351 303.875 300.546C302.941 300.74 302.251 300.789 302.186 300.667C302.121 300.546 302.876 300.294 303.81 300.107C304.743 299.92 305.474 299.855 305.499 299.977Z" fill="#263238"/>
<path d="M304.053 317.321C303.54 317.629 302.961 317.81 302.364 317.849C301.406 318.02 300.61 318.06 300.594 317.939C300.578 317.817 301.325 317.581 302.283 317.411C302.857 317.236 303.465 317.206 304.053 317.321Z" fill="#263238"/>
<path d="M303.095 326.887C303.152 327.001 302.519 327.447 301.682 327.886C300.846 328.324 300.123 328.6 300.058 328.495C299.993 328.389 300.627 327.934 301.471 327.496C302.316 327.057 303.038 326.781 303.095 326.887Z" fill="#263238"/>
<path d="M310.914 337.792C310.801 337.857 310.257 337.094 309.68 336.095C309.277 335.521 309 334.868 308.868 334.179C308.974 334.114 309.526 334.877 310.094 335.876C310.494 336.453 310.773 337.105 310.914 337.792Z" fill="#263238"/>
<path d="M313.163 319.701C313.253 319.79 312.636 320.513 311.799 321.325C310.963 322.137 310.175 322.746 310.11 322.656C310.045 322.567 310.638 321.844 311.483 321.032C312.327 320.22 313.082 319.611 313.163 319.701Z" fill="#263238"/>
<path d="M312.668 310.225C312.579 310.314 312.011 309.843 311.393 309.185C310.776 308.528 310.362 307.927 310.452 307.837C310.541 307.748 311.117 308.219 311.726 308.885C312.335 309.551 312.758 310.184 312.668 310.225Z" fill="#263238"/>
<path d="M314.244 298.126C314.333 298.207 313.822 298.938 313.099 299.75C312.376 300.562 311.719 301.146 311.629 301.057C311.54 300.968 312.044 300.245 312.766 299.433C313.489 298.621 314.122 298.045 314.244 298.126Z" fill="#263238"/>
<path d="M315.056 289.34C314.975 289.429 314.244 288.869 313.432 288.089C312.62 287.31 312.068 286.604 312.157 286.514C312.246 286.425 312.969 286.993 313.781 287.773C314.593 288.552 315.178 289.251 315.056 289.34Z" fill="#263238"/>
<path d="M316.801 277.469C316.667 278.115 316.39 278.722 315.989 279.247C315.437 280.164 314.909 280.871 314.804 280.79C314.939 280.144 315.216 279.536 315.616 279.011C316.168 278.094 316.679 277.404 316.801 277.469Z" fill="#263238"/>
<path d="M320.033 266.466C319.933 267.104 319.691 267.711 319.327 268.244C318.824 269.17 318.328 269.868 318.223 269.811C318.322 269.173 318.564 268.566 318.929 268.033C319.433 267.148 319.928 266.409 320.033 266.466Z" fill="#263238"/>
<path d="M323.687 271.46C323.744 271.573 323.241 271.923 322.575 272.272C321.909 272.621 321.316 272.759 321.259 272.645C321.202 272.532 321.706 272.191 322.38 271.833C323.054 271.476 323.638 271.354 323.687 271.46Z" fill="#263238"/>
<path d="M323.777 310.996C322.928 311.003 322.091 310.799 321.341 310.403C320.53 310.137 319.8 309.667 319.222 309.039C320.016 309.282 320.786 309.6 321.52 309.989C322.306 310.244 323.062 310.581 323.777 310.996Z" fill="#263238"/>
<path d="M322.282 319.343C322.282 319.465 321.552 319.717 320.593 319.904C319.635 320.09 318.848 320.139 318.831 320.017C318.815 319.896 319.562 319.644 320.512 319.457C321.085 319.282 321.691 319.243 322.282 319.343Z" fill="#263238"/>
<path d="M320.448 333.732C319.675 333.353 319.017 332.776 318.54 332.059C317.95 331.43 317.535 330.658 317.338 329.818C317.911 330.424 318.43 331.078 318.889 331.775C319.462 332.383 319.984 333.037 320.448 333.732Z" fill="#263238"/>
<path d="M300.31 340.228C300.229 340.139 300.741 339.57 301.447 338.961C302.153 338.352 302.795 337.946 302.876 338.036C302.957 338.125 302.446 338.693 301.739 339.302C301.033 339.911 300.391 340.358 300.31 340.228Z" fill="#263238"/>
<path d="M294.528 308.942C293.716 306.392 292.182 303.428 289.51 303.388C288.715 303.43 287.946 303.686 287.284 304.129C286.623 304.572 286.093 305.186 285.751 305.905C285.019 307.325 284.669 308.912 284.736 310.509C285.067 321.846 286.999 333.078 290.476 343.874H300.22C300.12 332.007 298.201 320.226 294.528 308.942Z" fill="#455A64"/>
<path d="M276.843 292.913C275.471 287.448 271.395 284.5 266.661 284.224C262.341 284.98 260.66 289.234 260.165 293.595C259.669 297.955 260.977 302.291 262.341 306.473C266.628 319.887 270.913 333.304 275.195 346.724L287.375 345.392C283.51 327.423 281.301 310.752 276.843 292.913Z" fill="#455A64"/>
<path d="M289.51 303.388C289.2 303.826 288.928 304.291 288.698 304.776C288.193 306.157 288.034 307.64 288.235 309.096C288.43 310.955 288.641 313.156 288.95 315.649C289.258 318.142 289.713 320.797 290.265 323.598C291.37 329.217 292.612 334.26 293.408 337.938C293.806 339.773 294.106 341.259 294.301 342.299C294.382 342.77 294.447 343.167 294.504 343.492C294.538 343.63 294.551 343.773 294.544 343.914C294.484 343.785 294.441 343.649 294.415 343.508C294.333 343.192 294.244 342.802 294.13 342.331L293.099 338.003C292.23 334.349 290.931 329.323 289.851 323.688C289.307 320.87 288.869 318.166 288.576 315.697C288.422 314.463 288.316 313.261 288.219 312.182C288.122 311.102 288.008 310.062 287.951 309.12C287.78 307.619 287.992 306.1 288.568 304.703C288.786 304.203 289.107 303.755 289.51 303.388Z" fill="#263238"/>
<path d="M266.84 283.875C266.301 284.495 265.809 285.155 265.37 285.848C264.244 287.789 263.606 289.973 263.51 292.214C263.458 295.54 263.969 298.851 265.021 302.007C266.084 305.629 267.262 309.607 268.488 313.773L274.716 335.177C275.487 337.889 276.105 340.098 276.559 341.673C276.754 342.404 276.917 342.997 277.03 343.444C277.096 343.647 277.143 343.856 277.168 344.069C277.075 343.876 277.002 343.675 276.949 343.468C276.803 343.029 276.624 342.445 276.389 341.722C275.91 340.147 275.236 337.954 274.416 335.226L268.058 313.862C266.84 309.689 265.678 305.742 264.623 302.08C263.567 298.418 262.999 295.04 263.202 292.158C263.325 289.877 264.018 287.663 265.216 285.718C265.654 285.02 266.202 284.398 266.84 283.875Z" fill="#263238"/>
<path d="M284.712 344.101C284.597 343.918 284.505 343.721 284.435 343.517C284.273 343.127 284.013 342.558 283.737 341.803C283.161 340.309 282.414 338.109 281.65 335.348C280.887 332.587 280.116 329.25 279.385 325.539C278.654 321.828 277.899 317.727 277.087 313.432C276.275 309.137 275.3 305.101 274.212 301.479C273.265 298.272 272.079 295.14 270.664 292.109C269.715 290.068 268.63 288.093 267.416 286.198C266.994 285.515 266.604 285.028 266.393 284.671C266.258 284.501 266.143 284.316 266.052 284.119C266.203 284.273 266.341 284.438 266.466 284.614C266.709 284.955 267.115 285.426 267.562 286.1C268.846 287.969 269.989 289.932 270.981 291.971C272.443 295.002 273.665 298.143 274.635 301.366C275.816 305.307 276.792 309.308 277.558 313.351C278.37 317.638 279.125 321.731 279.815 325.458C280.505 329.185 281.252 332.498 281.983 335.267C282.714 338.036 283.412 340.236 283.94 341.763C284.184 342.526 284.419 343.102 284.549 343.5C284.616 343.697 284.67 343.898 284.712 344.101Z" fill="#263238"/>
<path d="M262.543 304.5C262.543 304.622 261.91 304.882 261.066 305.093C260.221 305.304 259.506 305.361 259.482 305.247C259.458 305.133 260.115 304.857 260.96 304.654C261.804 304.451 262.511 304.338 262.543 304.5Z" fill="#263238"/>
<path d="M261.253 296.161C259.894 296.399 258.509 296.453 257.136 296.323C258.461 295.859 259.895 295.802 261.253 296.161Z" fill="#263238"/>
<path d="M262.625 288.577C262.544 288.666 261.886 288.244 261.147 287.619C260.408 286.993 259.88 286.409 259.961 286.319C260.043 286.23 260.7 286.652 261.439 287.277C262.178 287.903 262.706 288.479 262.625 288.577Z" fill="#263238"/>
<path d="M266.336 281.553C266.458 281.553 266.425 282.17 266.401 282.893C266.377 283.615 266.401 284.2 266.255 284.216C266.109 284.232 265.93 283.64 265.954 282.876C265.979 282.113 266.214 281.529 266.336 281.553Z" fill="#263238"/>
<path d="M273.919 284.866C274.017 284.931 273.724 285.532 273.254 286.198C272.783 286.863 272.328 287.351 272.222 287.286C272.117 287.221 272.417 286.612 272.888 285.946C273.359 285.28 273.814 284.793 273.919 284.866Z" fill="#263238"/>
<path d="M278.84 293.408C278.881 293.53 278.256 293.895 277.428 294.22C276.599 294.545 275.901 294.732 275.852 294.618C275.804 294.504 276.437 294.139 277.265 293.806C278.093 293.473 278.792 293.294 278.84 293.408Z" fill="#263238"/>
<path d="M281.821 302.21C280.633 303.02 279.181 303.345 277.761 303.12C278.406 302.87 279.08 302.701 279.766 302.616C280.429 302.385 281.12 302.249 281.821 302.21Z" fill="#263238"/>
<path d="M268.114 299.709C268 299.709 268.114 299.068 268.308 298.353C268.503 297.639 268.804 297.095 268.926 297.127C269.047 297.16 268.926 297.777 268.731 298.483C268.536 299.19 268.235 299.75 268.114 299.709Z" fill="#263238"/>
<path d="M270.03 310.752C270.069 310.109 270.258 309.483 270.582 308.925C270.997 307.967 271.394 307.228 271.541 307.301C271.502 307.945 271.313 308.571 270.988 309.128C270.574 310.062 270.144 310.801 270.03 310.752Z" fill="#263238"/>
<path d="M265.305 313.773C265.256 313.895 264.493 313.684 263.551 313.391C262.609 313.099 261.87 312.831 261.927 312.709C261.984 312.588 262.739 312.669 263.721 312.961C264.704 313.253 265.354 313.667 265.305 313.773Z" fill="#263238"/>
<path d="M268.025 322.778C268.098 322.884 267.578 323.379 266.863 323.882C266.149 324.386 265.515 324.694 265.442 324.629C265.369 324.565 265.889 324.029 266.604 323.525C267.318 323.022 267.96 322.681 268.025 322.778Z" fill="#263238"/>
<path d="M270.209 331.759C270.209 331.881 269.6 332.14 268.772 332.335C267.944 332.53 267.254 332.603 267.229 332.482C267.205 332.36 267.846 332.108 268.666 331.905C269.487 331.702 270.185 331.637 270.209 331.759Z" fill="#263238"/>
<path d="M282.064 309.705C282.129 309.81 281.577 310.249 280.773 310.517C279.969 310.785 279.271 310.858 279.247 310.736C279.222 310.614 279.856 310.387 280.619 310.103C281.382 309.819 281.999 309.599 282.064 309.705Z" fill="#263238"/>
<path d="M283.761 323.671C283.704 323.785 283.047 323.59 282.291 323.233C281.536 322.876 280.96 322.494 281.017 322.38C281.073 322.267 281.723 322.47 282.478 322.827C283.233 323.184 283.81 323.566 283.761 323.671Z" fill="#263238"/>
<path d="M286.749 333.667C286.072 333.64 285.409 333.462 284.808 333.147C283.785 332.749 282.99 332.335 283.038 332.214C283.712 332.247 284.371 332.424 284.971 332.733C285.625 332.911 286.232 333.229 286.749 333.667Z" fill="#263238"/>
<path d="M270.688 341.495C270.632 341.389 271.427 340.853 272.353 340.122C273.279 339.392 273.977 338.75 274.083 338.839C274.188 338.929 273.587 339.725 272.629 340.463C272.094 340.985 271.42 341.343 270.688 341.495Z" fill="#263238"/>
<path d="M278.597 336.42C278.467 336.42 278.297 335.762 277.988 334.982C277.68 334.203 277.371 333.586 277.469 333.513C277.566 333.44 278.086 333.976 278.41 334.82C278.735 335.665 278.711 336.403 278.597 336.42Z" fill="#263238"/>
<path d="M276.502 324.394C276.429 324.5 275.918 324.256 275.357 323.85C274.797 323.444 274.407 323.038 274.48 322.949C274.554 322.859 275.065 323.087 275.617 323.493C276.169 323.899 276.575 324.297 276.502 324.394Z" fill="#263238"/>
<path d="M294.918 305.564C294.991 305.661 294.495 306.148 293.805 306.66C293.115 307.171 292.506 307.472 292.433 307.391C292.36 307.31 292.855 306.806 293.545 306.295C294.236 305.783 294.845 305.458 294.918 305.564Z" fill="#263238"/>
<path d="M297.696 313.148C297.696 313.27 296.932 313.432 295.966 313.326C295 313.221 294.277 312.896 294.342 312.782C294.407 312.669 295.154 312.782 296.039 312.88C296.924 312.977 297.687 313.026 297.696 313.148Z" fill="#263238"/>
<path d="M285.759 314.853C285.759 314.967 285.068 315.227 284.135 315.291C283.201 315.356 282.454 315.194 282.47 315.072C282.486 314.95 283.209 314.902 284.094 314.845C284.979 314.788 285.734 314.731 285.759 314.853Z" fill="#263238"/>
<path d="M286.79 307.675C286.79 307.797 286.051 307.813 285.255 307.448C284.459 307.082 283.996 306.514 284.078 306.433C284.159 306.351 284.711 306.709 285.442 307.042C286.172 307.374 286.806 307.553 286.79 307.675Z" fill="#263238"/>
<path d="M298.718 321.3C298.108 321.161 297.539 320.884 297.054 320.488C296.201 319.952 295.56 319.433 295.625 319.327C295.69 319.222 296.437 319.571 297.289 320.139C298.142 320.708 298.816 321.195 298.718 321.3Z" fill="#263238"/>
<path d="M327.837 342.599H264.168V353.886H327.837V342.599Z" fill="#122750"/>
<path d="M268.926 351.645L276.664 385.359H314.609L323.086 351.645H268.926Z" fill="#122750"/>
<path d="M327.804 353.894C327.804 354.016 313.44 354.121 295.73 354.121C278.021 354.121 263.656 354.016 263.656 353.894C263.656 353.772 278.012 353.667 295.73 353.667C313.448 353.667 327.804 353.772 327.804 353.894Z" fill="#263238"/>
<path d="M292.393 315.097C292.287 315.162 291.857 314.658 291.426 313.968C290.996 313.278 290.728 312.661 290.834 312.596C290.939 312.531 291.369 313.034 291.8 313.724C292.23 314.415 292.498 315.056 292.393 315.097Z" fill="#263238"/>
<path d="M292.417 324.175C292.386 323.585 292.5 322.997 292.75 322.461C293.05 321.552 293.391 320.837 293.513 320.894C293.544 321.484 293.43 322.072 293.18 322.608C292.88 323.509 292.539 324.215 292.417 324.175Z" fill="#263238"/>
<path d="M295.568 333.732C295.454 333.789 294.983 333.026 294.504 332.027C294.15 331.452 293.925 330.806 293.847 330.135C293.96 330.086 294.431 330.841 294.91 331.84C295.265 332.415 295.49 333.061 295.568 333.732Z" fill="#263238"/>
<path d="M288.803 341.373C288.706 341.292 289.088 340.707 289.615 340.057C290.143 339.408 290.712 338.953 290.801 339.034C290.89 339.116 290.517 339.7 289.989 340.35C289.461 340.999 288.893 341.454 288.803 341.373Z" fill="#263238"/>
<path d="M287.391 327.455C287.391 327.577 286.758 327.569 286.027 327.455C285.296 327.342 284.712 327.122 284.736 327.001C284.76 326.879 285.369 326.887 286.1 327.001C286.831 327.114 287.448 327.333 287.391 327.455Z" fill="#263238"/>
<path d="M137.789 101.248L130.529 88.4511C135.026 81.1591 136.632 72.4488 135.033 64.0325C133.433 55.6161 128.743 48.1026 121.884 42.9688C115.026 37.835 106.495 35.4523 97.9693 36.2891C89.4433 37.1258 81.5386 41.1216 75.8091 47.4908C70.0797 53.86 66.9399 62.142 67.0069 70.7087C67.074 79.2754 70.343 87.5073 76.1715 93.786C82 100.065 89.9662 103.936 98.5043 104.639C107.042 105.343 115.535 102.827 122.312 97.5861L137.789 101.248Z" fill="#FAFAFA"/>
<path d="M137.789 101.248L122.28 97.708H122.125L122.223 97.578L122.369 97.7323C120.197 99.4169 117.834 100.84 115.329 101.971C112.344 103.309 109.183 104.214 105.942 104.659C104.148 104.909 102.336 104.998 100.526 104.927C99.5923 104.878 98.6422 104.854 97.6841 104.772L94.7934 104.334C88.1077 103.024 81.9591 99.7651 77.1215 94.968C72.284 90.1709 68.9738 84.0499 67.6076 77.3755C66.6197 72.3298 66.7584 67.1282 68.0136 62.1424C69.2968 56.9352 71.8019 52.1086 75.3216 48.0623L76.7182 46.5276C77.173 46.0079 77.7251 45.5776 78.2204 45.1066C78.7158 44.6356 79.2111 44.1484 79.7795 43.7506L81.4035 42.5244C81.9422 42.1092 82.5093 41.732 83.1005 41.3958L84.8382 40.3402L86.6571 39.4632C87.2513 39.1545 87.8642 38.8833 88.4922 38.6512C93.3663 36.7244 98.6115 35.9196 103.839 36.2964C108.783 36.6331 113.593 38.0524 117.927 40.4538C125.702 44.7949 131.515 51.9533 134.167 60.4534C135.222 64.0707 135.723 67.8268 135.653 71.594C135.475 77.6057 133.71 83.4634 130.538 88.573V88.4674L137.708 101.313L130.44 88.508V88.4512V88.4024C131.842 86.1047 132.973 83.6524 133.81 81.0944C134.802 78.0075 135.349 74.7948 135.434 71.5534C135.491 67.8199 134.982 64.0993 133.924 60.5184C131.277 52.1108 125.505 45.0394 117.797 40.7624C113.508 38.4079 108.754 37.022 103.872 36.7024C98.7117 36.3172 93.5312 37.0941 88.7115 38.976C88.0866 39.2095 87.4765 39.4806 86.8845 39.788L85.09 40.665L83.3766 41.7043C82.7927 42.0381 82.2312 42.4097 81.6958 42.8168L80.0718 44.0348C79.5196 44.4245 79.0568 44.928 78.5371 45.3664C78.0174 45.8049 77.514 46.284 77.0593 46.7631L75.6789 48.2815C72.1913 52.2763 69.7056 57.0444 68.4277 62.1911C67.1861 67.1152 67.0447 72.2525 68.0136 77.2374C68.9558 81.9527 70.8937 86.4125 73.6976 90.3188C78.7555 97.3718 86.3002 102.244 94.8096 103.952L97.676 104.391C98.626 104.472 99.5679 104.504 100.494 104.553C102.287 104.63 104.083 104.546 105.861 104.301C109.076 103.875 112.215 102.995 115.183 101.687C117.677 100.568 120.034 99.1651 122.206 97.505L122.84 97.0178L122.353 97.6511L122.296 97.4887L137.789 101.248Z" fill="#263238"/>
<path d="M78.708 74.0625L79.5768 72.13C80.6526 72.8774 81.9291 73.2821 83.239 73.2911C84.7574 73.2911 85.3826 72.7796 85.3826 72.0975C85.3826 70.0188 78.8866 71.4479 78.8866 67.3229C78.8866 65.4391 80.4051 63.8719 83.5638 63.8719C84.9121 63.844 86.2426 64.1837 87.4126 64.8544L86.6006 66.8032C85.7007 66.2697 84.6822 65.9683 83.6368 65.9263C82.1103 65.9263 81.5256 66.5028 81.5256 67.2011C81.5256 69.2474 88.0216 67.8345 88.0216 71.9107C88.0216 73.7621 86.487 75.3536 83.312 75.3536C81.6809 75.4091 80.0725 74.9581 78.708 74.0625Z" fill="#263238"/>
<path d="M88.8896 70.8957C88.8896 68.3217 90.8709 66.5028 93.583 66.5028C96.2951 66.5028 98.252 68.3217 98.252 70.8957C98.252 73.4697 96.287 75.2886 93.5749 75.2886C90.8628 75.2886 88.8896 73.4616 88.8896 70.8957ZM95.751 70.8957C95.7163 70.4723 95.5589 70.0683 95.298 69.7331C95.0372 69.3978 94.6843 69.1459 94.2824 69.0081C93.8806 68.8704 93.4473 68.8528 93.0357 68.9575C92.624 69.0622 92.2518 69.2846 91.9646 69.5976C91.6774 69.9106 91.4878 70.3006 91.4188 70.7197C91.3498 71.1388 91.4046 71.569 91.5763 71.9575C91.748 72.346 92.0293 72.676 92.3858 72.9071C92.7422 73.1382 93.1582 73.2604 93.583 73.2586C93.8856 73.2624 94.1856 73.2022 94.4634 73.0822C94.7412 72.9621 94.9906 72.7847 95.1952 72.5617C95.3998 72.3387 95.555 72.0751 95.6508 71.788C95.7466 71.5009 95.7808 71.1969 95.751 70.8957Z" fill="#263238"/>
<path d="M105.203 66.5028V68.7845C105 68.7845 104.838 68.7845 104.651 68.7845C104.336 68.7559 104.019 68.7988 103.723 68.9099C103.426 69.0209 103.159 69.1973 102.941 69.426C102.722 69.6546 102.558 69.9296 102.461 70.2305C102.363 70.5313 102.335 70.8503 102.377 71.1637V75.2237H99.9414V66.6246H102.312V67.7533C102.659 67.3289 103.103 66.9938 103.606 66.7762C104.109 66.5586 104.656 66.4649 105.203 66.5028Z" fill="#263238"/>
<path d="M111.976 66.5028V68.7845C111.765 68.7845 111.61 68.7845 111.415 68.7845C110.051 68.7845 109.15 69.5315 109.15 71.1637V75.2237H106.714V66.6246H109.077V67.7533C109.426 67.3292 109.871 66.9946 110.375 66.7771C110.879 66.5596 111.428 66.4656 111.976 66.5028Z" fill="#263238"/>
<path d="M122.215 66.6246L118.366 75.6865C117.554 77.7409 116.36 78.3661 114.825 78.3661C113.963 78.3758 113.123 78.0892 112.446 77.5541L113.348 75.7921C113.736 76.1301 114.23 76.3224 114.744 76.3361C115.426 76.3361 115.808 76.0275 116.141 75.2724V75.1912L112.446 66.5921H114.996L117.432 72.3817L119.868 66.5921L122.215 66.6246Z" fill="#263238"/>
<path d="M122.864 73.8433C122.892 73.4587 123.065 73.099 123.347 72.8364C123.63 72.5739 124.001 72.428 124.387 72.428C124.772 72.428 125.144 72.5739 125.426 72.8364C125.709 73.099 125.881 73.4587 125.909 73.8433C125.881 74.2279 125.709 74.5876 125.426 74.8501C125.144 75.1126 124.772 75.2586 124.387 75.2586C124.001 75.2586 123.63 75.1126 123.347 74.8501C123.065 74.5876 122.892 74.2279 122.864 73.8433ZM122.913 64.0993H125.861L125.365 71.3504H123.425L122.913 64.0993Z" fill="#263238"/>
<path d="M171.819 122.206L184.43 117.537L215.659 115.247L223.877 117.756L212.793 165.502L185.55 171.389L172.916 154.621L171.819 122.206Z" fill="#FFBE9D"/>
<path d="M242.578 124.155L222.221 116.928C222.221 116.928 203.131 144.236 171.82 122.165C171.82 122.165 158.089 127.102 156.043 128.239C153.997 129.376 165.592 164.073 165.592 164.073L164.228 207.214C182.092 216.43 210.674 213.004 235.554 208.838L234.839 160.93L242.578 124.155Z" fill="#122750"/>
<path d="M234.668 85.0164C235.724 83.4994 236.187 81.6482 235.971 79.8128C235.754 77.9774 234.873 76.2849 233.493 75.0551C232.113 73.8254 230.331 73.1437 228.483 73.1389C226.635 73.134 224.849 73.8064 223.463 75.0288L219.403 82.2312C217.125 84.9559 215.629 88.2478 215.075 91.756C214.55 95.2985 215.395 98.9077 217.438 101.849C218.462 103.272 219.782 104.456 221.306 105.322C222.83 106.188 224.523 106.714 226.269 106.865C228.016 107.017 229.774 106.789 231.425 106.199C233.075 105.608 234.579 104.668 235.833 103.443C237.086 102.219 238.061 100.737 238.69 99.1012C239.319 97.465 239.587 95.7123 239.477 93.9629C239.366 92.2135 238.88 90.5085 238.05 88.9645C237.22 87.4205 236.066 86.0738 234.668 85.0164Z" fill="#263238"/>
<path d="M224.112 85.5767C223.99 83.1407 223.731 80.7047 224.421 78.3418C224.764 77.4916 224.988 76.598 225.087 75.6865C225.081 75.0229 224.872 74.3771 224.488 73.8359C224.103 73.2947 223.563 72.8841 222.938 72.6595C222.314 72.4348 221.636 72.4068 220.995 72.5793C220.354 72.7517 219.781 73.1163 219.354 73.624L219.24 73.892C217.835 75.0288 217.162 76.8233 216.609 78.5448C215.759 81.2278 215.065 83.958 214.531 86.7216C214.155 88.262 214.064 89.8581 214.263 91.4312C214.369 92.2151 214.659 92.9629 215.109 93.6135C215.559 94.264 216.157 94.7989 216.853 95.1745C219.062 96.1976 221.79 94.7847 223 92.6817C224.21 90.5786 224.258 87.9964 224.112 85.5767Z" fill="#122750"/>
<path d="M221.108 77.2293C220.646 74.4685 219.444 71.8701 219.022 69.1093C218.469 65.4797 219.29 61.8013 219.493 58.1311C219.696 54.4608 219.119 50.4252 216.431 47.9242C213.565 45.2527 209.253 45.1309 205.396 44.4326C201.011 43.6206 196.854 41.9073 192.542 40.7624C188.231 39.6175 183.562 39.0734 179.388 40.6406C175.612 42.0535 172.656 45.0173 169.985 48.0298C165.649 52.9099 161.589 58.6913 161.589 65.2198C161.589 68.6059 162.783 71.8863 163.213 75.248C163.627 78.496 163.367 81.744 164.122 84.992C164.877 88.24 167.021 91.3256 170.22 91.9103L205.315 95.4181C207.618 95.4819 209.906 95.0343 212.016 94.1075C214.125 93.1806 216.002 91.7977 217.513 90.0581C219.023 88.3186 220.129 86.2657 220.751 84.0474C221.373 81.8291 221.495 79.5005 221.108 77.2293Z" fill="#263238"/>
<path d="M211.559 60.0149L211.47 55.7194L185.486 51.8624C177.512 51.3427 169.246 59.6576 169.067 67.6477C168.872 76.5229 168.978 87.3712 170.293 93.9403C172.94 107.143 183.196 108.418 183.196 108.418V115.921C183.2 119.918 184.79 123.75 187.618 126.576C190.445 129.401 194.278 130.99 198.275 130.992C200.296 130.992 202.296 130.585 204.157 129.797C206.018 129.008 207.702 127.854 209.108 126.402C210.514 124.949 211.613 123.23 212.341 121.344C213.069 119.459 213.411 117.446 213.345 115.426L211.559 60.0149Z" fill="#FFBE9D"/>
<path d="M174.58 76.4985C174.603 76.9373 174.794 77.3504 175.112 77.6527C175.431 77.9549 175.854 78.1231 176.293 78.1225C176.513 78.1324 176.732 78.0977 176.937 78.0205C177.143 77.9433 177.331 77.8253 177.489 77.6735C177.648 77.5217 177.774 77.3393 177.86 77.1373C177.946 76.9354 177.991 76.7181 177.99 76.4985C177.968 76.0598 177.777 75.6466 177.458 75.3443C177.139 75.0421 176.716 74.8739 176.277 74.8745C176.058 74.8646 175.839 74.8993 175.633 74.9765C175.428 75.0537 175.24 75.1717 175.081 75.3235C174.923 75.4753 174.796 75.6577 174.71 75.8597C174.624 76.0616 174.58 76.279 174.58 76.4985Z" fill="#263238"/>
<path d="M172.145 73.1774C172.364 73.3885 173.622 72.3654 175.449 72.3167C177.276 72.268 178.697 73.1287 178.86 72.877C178.949 72.7714 178.722 72.3817 178.113 71.9757C177.296 71.4604 176.341 71.2081 175.376 71.253C174.424 71.2867 173.507 71.6255 172.762 72.2193C172.193 72.674 172.023 73.08 172.145 73.1774Z" fill="#263238"/>
<path d="M191.933 75.9139C191.956 76.3526 192.146 76.7658 192.465 77.068C192.784 77.3703 193.207 77.5385 193.646 77.5379C193.865 77.5477 194.084 77.513 194.29 77.4359C194.495 77.3587 194.683 77.2406 194.842 77.0888C195 76.937 195.127 76.7546 195.213 76.5527C195.299 76.3507 195.343 76.1334 195.343 75.9139C195.32 75.4751 195.13 75.0619 194.811 74.7597C194.492 74.4575 194.069 74.2893 193.63 74.2899C193.41 74.28 193.191 74.3147 192.986 74.3918C192.78 74.469 192.592 74.5871 192.434 74.7389C192.275 74.8907 192.149 75.0731 192.063 75.275C191.977 75.477 191.932 75.6943 191.933 75.9139Z" fill="#263238"/>
<path d="M190.171 72.7877C190.39 72.9988 191.641 71.9757 193.476 71.9269C195.311 71.8782 196.724 72.7389 196.878 72.4872C196.976 72.3817 196.748 71.9919 196.139 71.5859C195.322 71.0706 194.367 70.8184 193.403 70.8632C192.462 70.9044 191.558 71.2426 190.821 71.8295C190.236 72.268 190.065 72.6902 190.171 72.7877Z" fill="#263238"/>
<path d="M184.065 86.6566C183.087 86.3946 182.081 86.2555 181.069 86.2425C180.598 86.2425 180.151 86.1369 180.054 85.8203C180 85.3392 180.09 84.853 180.313 84.4236C180.711 83.2706 181.125 82.0607 181.556 80.8021C183.269 75.6459 184.495 71.456 184.325 71.3423C184.154 71.2286 182.555 75.4023 180.841 80.5585C180.427 81.8252 180.029 83.0351 179.656 84.1963C179.367 84.7775 179.295 85.4425 179.453 86.072C179.529 86.2356 179.642 86.3793 179.783 86.492C179.923 86.6047 180.088 86.6833 180.265 86.7216C180.531 86.7827 180.804 86.81 181.077 86.8028C182.075 86.8816 183.079 86.8325 184.065 86.6566Z" fill="#263238"/>
<path d="M183.229 108.451C189.635 108.292 195.877 106.385 201.279 102.937C201.279 102.937 197.033 112.462 183.229 111.796V108.451Z" fill="#EB996E"/>
<path d="M185.023 91.0495C185.349 90.5927 185.789 90.2284 186.298 89.9922C186.808 89.7559 187.37 89.6558 187.93 89.7016C188.337 89.7187 188.737 89.819 189.104 89.9963C189.471 90.1737 189.798 90.4243 190.065 90.7329C190.321 91.029 190.479 91.3963 190.52 91.7853C190.561 92.1743 190.481 92.5664 190.293 92.909C190.011 93.2498 189.634 93.499 189.211 93.6248C188.787 93.7506 188.335 93.7474 187.913 93.6155C187.037 93.3459 186.222 92.9042 185.518 92.3163C185.304 92.1749 185.117 91.9961 184.966 91.7885C184.901 91.6866 184.866 91.5683 184.866 91.4474C184.866 91.3266 184.901 91.2082 184.966 91.1064" fill="#EB996E"/>
<path d="M198.631 67.3391C198.526 66.8195 196.675 66.787 194.571 66.2186C192.468 65.6502 190.836 64.8138 190.511 65.2198C190.357 65.4066 190.585 65.9181 191.21 66.4947C192.051 67.218 193.047 67.7402 194.12 68.0215C195.194 68.3029 196.317 68.3361 197.405 68.1187C198.225 67.9157 198.672 67.5827 198.631 67.3391Z" fill="#263238"/>
<path d="M177.414 66.0156C176.837 65.8451 175.522 67.0062 173.719 67.9644C171.917 68.9225 170.228 69.4422 170.073 70.0106C170.017 70.2786 170.447 70.5222 171.299 70.5303C172.472 70.4861 173.617 70.1603 174.637 69.5803C175.67 69.0485 176.557 68.2704 177.219 67.3148C177.666 66.584 177.682 66.113 177.414 66.0156Z" fill="#263238"/>
<path d="M206.711 47.3396L186.671 48.9149L170.065 54.6395C172.201 59.2922 172.607 63.1168 177.706 63.5715C180.263 63.7943 182.833 63.3582 185.173 62.3048C187.513 61.2515 189.544 59.616 191.072 57.5546C191.933 61.3222 196.179 63.2386 200.004 63.7745C202.711 64.265 205.5 64.0124 208.075 63.0437C210.584 61.9718 212.712 59.7145 213.053 57.0024C213.394 54.2903 209.407 47.7862 206.711 47.3396Z" fill="#263238"/>
<path d="M222.586 60.6564C221.47 58.5843 219.641 56.9864 217.438 56.1579L216.927 52.2684L202.075 56.9537C198.559 62.524 200.167 70.644 205.591 74.5497L205.656 77.3673C205.721 80.3219 206.537 83.2113 208.027 85.7634L212.737 96.019C216.196 96.1002 216.983 92.3569 218.356 89.2956C219.728 86.2344 219.744 82.7996 219.622 79.438C219.563 77.814 219.479 76.19 219.371 74.566C220.426 72.7796 221.929 71.1149 222.814 69.2149C223.43 67.8651 223.73 66.3925 223.69 64.9093C223.651 63.4261 223.273 61.9715 222.586 60.6564Z" fill="#263238"/>
<path d="M207.637 78.2281C207.84 78.1225 215.757 74.9801 216.236 83.3112C216.715 91.6423 208.286 90.4081 208.262 90.1726C208.238 89.9371 207.637 78.2281 207.637 78.2281Z" fill="#FFBE9D"/>
<path d="M210.609 86.884C210.609 86.884 210.763 86.9814 211.015 87.0789C211.367 87.2038 211.755 87.1863 212.095 87.0302C212.956 86.6566 213.613 85.2194 213.556 83.7172C213.537 83.0041 213.356 82.3047 213.029 81.671C212.936 81.4159 212.782 81.1873 212.581 81.0048C212.381 80.8223 212.138 80.6914 211.876 80.6235C211.71 80.5941 211.539 80.6224 211.391 80.7037C211.243 80.7849 211.128 80.9142 211.064 81.0701C210.966 81.3137 211.023 81.4761 210.982 81.4923C210.942 81.5086 210.796 81.3624 210.844 81.0132C210.877 80.8062 210.98 80.6169 211.137 80.4773C211.247 80.3812 211.376 80.3085 211.516 80.2639C211.656 80.2192 211.803 80.2034 211.949 80.2175C212.3 80.2586 212.634 80.3902 212.918 80.5995C213.203 80.8088 213.429 81.0884 213.573 81.4111C213.969 82.1111 214.189 82.897 214.214 83.701C214.263 85.3818 213.5 86.9977 212.314 87.4118C212.096 87.4921 211.863 87.5214 211.632 87.4975C211.401 87.4735 211.179 87.397 210.982 87.2738C210.633 87.0708 210.584 86.884 210.609 86.884Z" fill="#EB996E"/>
<path d="M221.717 59.6658C221.847 59.6658 221.928 60.0799 221.798 60.7538C221.575 61.7133 221.114 62.6013 220.458 63.336C219.468 64.4727 218.134 65.2541 216.658 65.5609C214.936 65.9263 213.215 65.5609 211.786 65.7152C211.029 65.8249 210.284 66.0071 209.561 66.2592C209.171 66.3729 208.749 66.4866 208.343 66.5759C207.937 66.6652 207.531 66.7302 207.141 66.7789C205.713 67.0003 204.252 66.8806 202.878 66.4297C201.936 66.1142 201.096 65.5537 200.442 64.8057C200.004 64.2779 199.89 63.9044 199.988 63.8151C200.231 63.5715 201.254 64.6271 203.236 64.9762C204.422 65.152 205.631 65.1052 206.8 64.8382C207.141 64.7732 207.49 64.692 207.84 64.6027C208.189 64.5134 208.53 64.3916 208.903 64.2617C209.75 63.9442 210.63 63.7209 211.526 63.5958C213.507 63.4253 215.066 63.8313 216.301 63.5958C217.436 63.4261 218.503 62.9487 219.386 62.2154C220.986 60.9568 221.4 59.5846 221.717 59.6658Z" fill="white"/>
<path d="M191.332 90.0427C191.381 90.2781 189.757 90.7735 187.954 91.7316C186.152 92.6898 184.82 93.7454 184.65 93.5667C184.479 93.3881 185.616 92.0077 187.557 90.9846C189.497 89.9615 191.3 89.8234 191.332 90.0427Z" fill="#263238"/>
<path d="M192.786 91.3094C192.672 91.2525 192.875 90.676 192.704 89.9858C192.534 89.2956 192.136 88.849 192.209 88.7597C192.282 88.6704 192.932 89.0358 193.118 89.8884C193.305 90.741 192.875 91.3825 192.786 91.3094Z" fill="#EB996E"/>
<path d="M196.642 77.887C196.739 77.9358 196.342 78.699 195.4 79.1538C194.458 79.6085 193.605 79.4136 193.638 79.2999C193.67 79.1862 194.409 79.17 195.221 78.7721C196.033 78.3742 196.545 77.814 196.642 77.887Z" fill="#EB996E"/>
<path d="M197.414 78.5285C197.511 78.5935 197.202 79.1375 196.545 79.4948C195.887 79.8521 195.27 79.8196 195.262 79.7059C195.254 79.5922 195.773 79.438 196.342 79.1213C196.91 78.8046 197.316 78.4554 197.414 78.5285Z" fill="#EB996E"/>
<path d="M174.67 80.2906C174.67 80.4042 174.215 80.4773 173.744 80.2337C173.273 79.9901 173.07 79.5841 173.159 79.511C173.249 79.438 173.549 79.6572 173.971 79.8521C174.393 80.047 174.678 80.1688 174.67 80.2906Z" fill="#EB996E"/>
<path d="M174.58 81.2731C174.58 81.3868 174.061 81.3949 173.509 81.1432C172.956 80.8914 172.623 80.5017 172.697 80.4205C172.77 80.3393 173.184 80.5342 173.679 80.7615C174.174 80.9889 174.621 81.2 174.58 81.2731Z" fill="#EB996E"/>
<path d="M186.395 65.0331C185.461 65.7841 184.329 66.2469 183.136 66.3652C181.944 66.4834 180.743 66.2519 179.68 65.6989C180.807 65.9064 181.953 65.9881 183.098 65.9425C184.227 65.7625 185.333 65.4575 186.395 65.0331Z" fill="#EB996E"/>
<path d="M187.182 65.8857C187.004 66.217 186.757 66.5061 186.457 66.7331C186.157 66.9601 185.812 67.1197 185.445 67.2011C185.099 67.3492 184.725 67.4195 184.349 67.4068C183.972 67.3942 183.604 67.299 183.269 67.128C183.956 67.0544 184.639 66.9433 185.315 66.7951C186.403 66.4622 187.093 65.772 187.182 65.8857Z" fill="#EB996E"/>
<path d="M172.639 60.762C172.639 60.762 172.558 60.6889 172.436 60.5265C172.256 60.2885 172.101 60.0328 171.974 59.7632C171.507 58.7657 171.282 57.6726 171.316 56.572C171.316 53.7869 172.94 49.9867 176.188 47.2178C177.694 45.9102 179.451 44.9238 181.352 44.319C182.898 43.8315 184.514 43.6011 186.135 43.6369C187.231 43.6509 188.321 43.7954 189.383 44.0672C189.748 44.1647 190.032 44.254 190.195 44.3271C190.357 44.4002 190.479 44.4408 190.471 44.457C189.042 44.1323 187.584 43.9555 186.119 43.9292C184.532 43.9398 182.957 44.1974 181.45 44.6925C179.612 45.3015 177.912 46.2672 176.448 47.5345C173.313 50.2303 171.689 53.8924 171.633 56.5802C171.574 57.6444 171.748 58.7086 172.144 59.6982C172.42 60.3966 172.672 60.7376 172.639 60.762Z" fill="#455A64"/>
<path d="M202.594 63.7501C202.351 63.7342 202.113 63.6794 201.888 63.5877C201.262 63.3746 200.659 63.1027 200.085 62.7757C198.169 61.7017 196.531 60.1946 195.302 58.3747C194.683 57.3242 194.285 56.1581 194.133 54.948C193.99 53.9778 193.933 52.9969 193.962 52.0167C193.98 51.3578 194.045 50.7011 194.157 50.0517C194.179 49.8108 194.239 49.575 194.336 49.3533C194.409 49.3533 194.239 50.3765 194.263 52.0248C194.272 52.9827 194.357 53.9383 194.515 54.8831C194.686 56.0289 195.074 57.1314 195.66 58.1311C196.861 59.9005 198.421 61.3972 200.239 62.524C201.636 63.3847 202.618 63.6851 202.594 63.7501Z" fill="#455A64"/>
<path d="M178.982 60.6483C178.855 60.3921 178.768 60.1184 178.722 59.8363C178.562 59.0894 178.488 58.3264 178.503 57.5627C178.514 54.9948 179.435 52.514 181.104 50.5618C182.772 48.6096 185.079 47.3124 187.613 46.9011C188.366 46.7669 189.132 46.7233 189.895 46.7712C190.17 46.7735 190.444 46.8145 190.707 46.893C189.681 46.9242 188.658 47.0246 187.646 47.1934C185.216 47.6725 183.018 48.9576 181.409 50.8409C179.799 52.7242 178.873 55.0954 178.779 57.5708C178.769 58.6003 178.837 59.629 178.982 60.6483Z" fill="#455A64"/>
<path d="M205.883 44.9604C204.145 44.7144 202.379 44.7556 200.654 45.0822C198.956 45.5359 197.345 46.2686 195.888 47.2503C196.202 46.8225 196.599 46.4633 197.057 46.1947C199.196 44.7378 201.805 44.1405 204.365 44.5219C204.895 44.5689 205.41 44.7177 205.883 44.9604Z" fill="#455A64"/>
<path d="M235.196 85.1869C234.774 85.6254 232.647 84.1963 229.74 83.3518C226.833 82.5073 224.283 82.4505 224.178 81.8496C224.137 81.5735 224.77 81.1919 225.907 80.9889C227.396 80.7713 228.915 80.8847 230.355 81.3213C231.795 81.7578 233.121 82.5065 234.238 83.5142C235.067 84.31 235.383 84.9839 235.196 85.1869Z" fill="white"/>
<path d="M233.922 87.3549C233.922 87.3549 234.287 87.1682 234.92 86.8028C235.803 86.2848 236.587 85.6139 237.234 84.8215C238.198 83.6654 238.807 82.2555 238.988 80.7615C239.174 78.9191 238.683 77.0722 237.608 75.5647C236.503 74.0582 234.876 73.0186 233.045 72.6496C231.559 72.3317 230.023 72.3317 228.538 72.6496C227.169 72.9804 225.826 73.4092 224.519 73.9326C224.83 73.7083 225.169 73.5229 225.525 73.3804C226.471 72.9331 227.462 72.59 228.481 72.3573C230.004 71.9881 231.59 71.9604 233.126 72.2761C235.048 72.6405 236.761 73.7163 237.925 75.2886C238.969 76.7245 239.489 78.475 239.399 80.2482C239.309 82.0213 238.614 83.71 237.429 85.0326C236.748 85.8265 235.921 86.4826 234.993 86.9652C234.731 87.0961 234.46 87.2074 234.181 87.2981C234.097 87.3266 234.01 87.3457 233.922 87.3549Z" fill="#263238"/>
<path d="M166.785 209.171C166.785 209.171 149.498 245.597 149.668 262.365C149.782 272.921 164.56 385.27 164.56 385.27H196.05L198.607 280.603L200.767 277.712L202.115 281.009C202.115 281.009 197.365 382.679 198.478 385.27H233.678C233.678 385.27 244.867 304.654 246.353 292.442C247.839 280.229 249.601 274.383 248.838 256.616C248.075 238.85 235.618 209.171 235.618 209.171C235.618 209.171 187.881 216.942 166.785 209.171Z" fill="#263238"/>
<path d="M168.376 209.415L165.453 219.467L173.882 221.278L176.253 211.161L168.376 209.415Z" fill="#455A64"/>
<path d="M179.452 211.583L177.747 221.278C184.345 221.953 190.978 222.225 197.609 222.09C207.491 221.822 217.145 220.994 221.473 219.484L220.215 210.836C220.215 210.836 187.572 213.832 179.452 211.583Z" fill="#455A64"/>
<path d="M224.429 210.349L226.516 218.875C226.516 218.875 233.255 218.136 236.032 216.512L233.71 208.855L224.429 210.349Z" fill="#455A64"/>
<path d="M179.453 383.865C179.371 381.543 178.218 348.088 176.716 304.403C176.018 282.479 175.522 262.568 175.376 248.18C175.376 244.583 175.376 241.326 175.336 238.436C175.295 235.545 175.384 233.125 175.401 231.128C175.417 229.13 175.506 227.571 175.539 226.499C175.539 225.98 175.539 225.582 175.579 225.289C175.62 224.997 175.579 224.883 175.579 224.883C175.579 224.883 175.579 225.021 175.579 225.297C175.579 225.574 175.579 225.98 175.579 226.499C175.579 227.579 175.579 229.13 175.522 231.128C175.466 233.125 175.522 235.61 175.522 238.436C175.522 241.261 175.579 244.55 175.62 248.18C175.839 262.56 176.383 282.438 177.081 304.386C177.78 326.335 178.421 346.18 178.884 360.577C179.103 367.771 179.25 373.569 179.331 377.629C179.331 379.626 179.379 381.177 179.396 382.257C179.396 382.777 179.396 383.175 179.396 383.467C179.396 383.759 179.453 383.865 179.453 383.865Z" fill="#455A64"/>
<path d="M199.931 222.74C199.962 222.897 199.975 223.058 199.971 223.219C199.971 223.576 199.971 224.031 199.971 224.583C199.971 225.817 199.971 227.514 200.028 229.585C200.069 233.815 200.158 239.654 200.337 246.101C200.515 252.548 200.775 258.387 200.97 262.609C201.067 264.68 201.141 266.377 201.197 267.611C201.197 268.152 201.214 268.607 201.246 268.975C201.268 269.134 201.268 269.295 201.246 269.454C201.212 269.299 201.187 269.141 201.173 268.983L201.051 267.619C200.946 266.442 200.824 264.736 200.686 262.625C200.418 258.403 200.117 252.564 199.931 246.117C199.744 239.67 199.752 233.856 199.752 229.585C199.752 227.474 199.793 225.76 199.825 224.575L199.874 223.219C199.872 223.057 199.891 222.896 199.931 222.74Z" fill="#455A64"/>
<path d="M201.263 269.454C201.086 269.433 200.91 269.404 200.735 269.365L199.233 269.072C197.379 268.714 195.546 268.25 193.744 267.684C193.132 267.489 192.548 267.216 192.006 266.872C191.844 266.763 191.715 266.611 191.633 266.433C191.576 266.263 191.527 266.101 191.479 265.938C191.395 265.596 191.333 265.249 191.292 264.899C191.129 263.478 191.219 261.984 191.203 260.408C191.203 257.25 191.243 253.791 191.267 250.161C191.341 242.91 191.414 236.357 191.462 231.542C191.511 229.195 191.552 227.279 191.576 225.898C191.576 225.265 191.592 224.753 191.625 224.364C191.62 224.184 191.637 224.004 191.673 223.828C191.691 224.006 191.691 224.185 191.673 224.364C191.673 224.753 191.673 225.265 191.673 225.898C191.673 227.279 191.673 229.195 191.673 231.542C191.673 236.349 191.625 242.91 191.6 250.161C191.6 253.799 191.535 257.258 191.503 260.408C191.503 261.984 191.414 263.486 191.552 264.858C191.587 265.194 191.644 265.528 191.722 265.857C191.763 266.011 191.803 266.174 191.852 266.32C191.915 266.436 192.004 266.536 192.112 266.612C192.618 266.937 193.164 267.196 193.736 267.383C195.969 268.155 197.861 268.561 199.152 268.894L200.638 269.267C200.856 269.291 201.068 269.354 201.263 269.454Z" fill="#455A64"/>
<path d="M218.826 383.865C218.826 383.865 218.826 383.727 218.826 383.451C218.826 383.175 218.867 382.744 218.899 382.216C218.964 381.12 219.07 379.529 219.192 377.491C219.492 373.374 219.914 367.446 220.442 360.122C221.514 345.465 223.008 325.206 224.202 302.811C225.395 280.416 225.826 260.092 225.347 245.403C225.273 243.568 225.192 241.822 225.119 240.173C225.046 238.525 224.997 236.925 224.851 235.504C224.591 232.597 224.453 230.088 224.194 228.05C223.934 226.012 223.698 224.453 223.544 223.365C223.479 222.837 223.422 222.431 223.39 222.139C223.357 221.847 223.349 221.725 223.349 221.725C223.349 221.725 223.349 221.863 223.43 222.139C223.511 222.415 223.544 222.829 223.633 223.349C223.796 224.437 224.047 226.012 224.356 228.026C224.664 230.04 224.803 232.581 225.087 235.488C225.249 236.942 225.314 238.501 225.395 240.157C225.476 241.814 225.558 243.559 225.647 245.394C226.232 260.1 225.753 280.424 224.624 302.835C223.495 325.247 221.887 345.49 220.734 360.146C220.158 367.454 219.687 373.39 219.362 377.507C219.2 379.537 219.07 381.128 218.98 382.225C218.932 382.752 218.899 383.158 218.875 383.451C218.851 383.743 218.826 383.865 218.826 383.865Z" fill="#455A64"/>
<path d="M198.218 222.431V224.315L209.131 223.893C209.477 223.88 209.805 223.733 210.045 223.483C210.284 223.233 210.417 222.899 210.414 222.553V212.476C210.414 212.121 210.273 211.78 210.022 211.529C209.771 211.277 209.43 211.136 209.075 211.136H197.487V212.647L208.474 213.215V216.877H207.735C207.658 216.875 207.581 216.888 207.509 216.916C207.437 216.944 207.372 216.986 207.317 217.04C207.261 217.094 207.217 217.158 207.187 217.229C207.157 217.3 207.142 217.376 207.142 217.454C207.144 217.602 207.203 217.744 207.308 217.85C207.412 217.956 207.554 218.018 207.702 218.022H208.514V221.676L198.218 222.431Z" fill="#E0E0E0"/>
<path d="M191.9 211.818H188.814V222.374H191.9V211.818Z" fill="#263238"/>
<path d="M207.507 218.655C207.466 218.696 207.296 218.655 207.117 218.371C206.895 218.047 206.786 217.659 206.809 217.267C206.828 216.874 206.99 216.502 207.263 216.219C207.466 216 207.645 215.943 207.677 215.984C207.71 216.024 207.28 216.552 207.231 217.299C207.182 218.046 207.596 218.582 207.507 218.655Z" fill="#263238"/>
<path d="M198.738 216.512C198.738 216.512 198.794 216.447 198.916 216.455C199 216.469 199.079 216.502 199.148 216.551C199.217 216.6 199.273 216.665 199.314 216.739C199.381 216.851 199.421 216.977 199.43 217.107C199.438 217.237 199.415 217.367 199.363 217.486C199.286 217.633 199.169 217.755 199.025 217.837C198.881 217.919 198.716 217.958 198.551 217.949C198.383 217.927 198.227 217.854 198.103 217.739C197.979 217.624 197.895 217.473 197.861 217.307C197.838 217.178 197.85 217.046 197.896 216.923C197.942 216.8 198.019 216.692 198.12 216.609C198.47 216.341 198.754 216.471 198.729 216.512C198.705 216.552 198.502 216.593 198.332 216.82C198.283 216.874 198.249 216.94 198.233 217.011C198.218 217.083 198.221 217.157 198.242 217.226C198.262 217.303 198.304 217.373 198.363 217.427C198.423 217.48 198.496 217.515 198.575 217.527C198.661 217.527 198.746 217.507 198.823 217.467C198.899 217.428 198.965 217.37 199.014 217.299C199.042 217.232 199.056 217.161 199.056 217.088C199.056 217.016 199.042 216.944 199.014 216.877C198.94 216.601 198.746 216.569 198.738 216.512Z" fill="#263238"/>
<path d="M229.179 218.655C229.387 218.108 229.66 217.587 229.991 217.104C230.292 216.593 230.608 216.049 230.949 215.48L231.526 214.522C231.74 214.21 231.93 213.881 232.094 213.54C232.142 213.38 232.152 213.211 232.124 213.046C232.096 212.881 232.03 212.725 231.932 212.59C231.691 212.338 231.418 212.119 231.12 211.94L229.585 210.844C229.094 210.53 228.642 210.159 228.237 209.74C228.777 209.959 229.288 210.245 229.756 210.592L231.339 211.623L231.794 211.924C231.975 212.034 232.135 212.178 232.265 212.346C232.402 212.535 232.493 212.752 232.533 212.981C232.572 213.211 232.558 213.446 232.492 213.67C232.416 213.878 232.313 214.074 232.184 214.254L231.867 214.75L231.266 215.692L230.235 217.259C229.942 217.766 229.588 218.235 229.179 218.655Z" fill="#263238"/>
<path d="M247.66 243.235C247.574 243.301 247.478 243.353 247.376 243.389C247.086 243.51 246.784 243.6 246.475 243.657C245.323 243.809 244.152 243.664 243.073 243.235C241.491 242.606 239.992 241.788 238.607 240.799C232.746 236.888 228.301 231.193 225.931 224.559C225.781 224.169 225.664 223.767 225.582 223.357C225.789 223.72 225.957 224.104 226.085 224.502C226.394 225.249 226.897 226.304 227.515 227.587C229.236 230.903 231.46 233.933 234.108 236.568C235.564 238.012 237.143 239.327 238.826 240.498C240.18 241.471 241.64 242.288 243.178 242.934C244.202 243.371 245.316 243.558 246.426 243.478C247.246 243.389 247.66 243.194 247.66 243.235Z" fill="#455A64"/>
<path d="M168.426 226.783C168.061 227.536 167.611 228.244 167.086 228.895C164.713 232.147 161.847 235.01 158.592 237.38C157.942 237.902 157.237 238.351 156.489 238.72C157.096 238.154 157.739 237.628 158.414 237.145C161.536 234.661 164.367 231.83 166.85 228.708C167.336 228.035 167.862 227.393 168.426 226.783Z" fill="#455A64"/>
<path d="M196.757 145.242L196.188 118.13C195.912 114.646 192.9 115.296 192.9 115.296C192.9 115.296 192.705 124.91 191.901 130.31C191.097 135.71 188.19 141.678 188.093 142.888C187.995 144.097 187.622 154.377 187.281 157.674C186.827 160.457 186.134 163.195 185.21 165.859L192.932 171.795L195.279 168.498C195.279 168.498 197.918 166.614 198.527 164.259C199.136 161.905 196.757 145.242 196.757 145.242Z" fill="#FFBE9D"/>
<path d="M196.756 145.242C196.756 145.242 196.796 145.389 196.845 145.681L197.04 146.956C197.211 148.076 197.446 149.725 197.722 151.828C197.998 153.931 198.323 156.529 198.575 159.526C198.648 160.281 198.697 161.052 198.737 161.856C198.737 162.262 198.778 162.668 198.737 163.082C198.746 163.513 198.702 163.944 198.607 164.365C198.338 165.219 197.902 166.011 197.324 166.695C196.736 167.413 196.066 168.059 195.327 168.62V168.579L192.988 171.884L192.875 172.03L192.728 171.917L184.998 165.997L184.893 165.916V165.778C186.142 162.384 186.903 158.83 187.15 155.222C187.402 151.446 187.556 147.54 187.751 143.537C187.751 143.196 187.786 142.856 187.856 142.522C187.946 142.189 188.051 141.881 188.157 141.564L188.831 139.737C189.286 138.527 189.724 137.301 190.122 136.124C190.92 133.791 191.464 131.379 191.746 128.929C192.282 124.13 192.452 119.535 192.558 115.312V115.158H192.704C193.331 115.044 193.978 115.118 194.564 115.369C195.136 115.63 195.593 116.092 195.846 116.668C196.086 117.211 196.21 117.797 196.212 118.39C196.212 118.95 196.212 119.502 196.212 120.054C196.212 122.238 196.293 124.317 196.326 126.274C196.39 130.18 196.447 133.582 196.496 136.416C196.545 139.25 196.561 141.426 196.577 142.961C196.577 143.7 196.577 144.276 196.577 144.69C196.577 144.869 196.577 145.015 196.577 145.137C196.577 145.259 196.577 145.283 196.577 145.283C196.577 145.283 196.577 145.234 196.577 145.137C196.577 145.039 196.577 144.877 196.577 144.698C196.577 144.284 196.577 143.708 196.512 142.969C196.464 141.434 196.407 139.226 196.326 136.432C196.244 133.639 196.163 130.196 196.066 126.29C196.066 124.333 195.976 122.23 195.92 120.07C195.855 118.982 196.017 117.805 195.538 116.822C195.323 116.321 194.925 115.92 194.425 115.702C193.913 115.486 193.349 115.424 192.801 115.523L192.948 115.345C192.842 119.583 192.688 124.171 192.136 129.002C191.843 131.491 191.285 133.941 190.471 136.31C190.073 137.52 189.659 138.746 189.18 139.932L188.506 141.759C188.4 142.059 188.295 142.368 188.222 142.668C188.155 142.975 188.122 143.288 188.124 143.602C187.929 147.605 187.775 151.519 187.515 155.295C187.266 158.951 186.492 162.553 185.217 165.989L185.152 165.77L192.858 171.714L192.607 171.754L194.961 168.466C196.41 167.465 197.522 166.05 198.153 164.406C198.238 164.008 198.279 163.602 198.274 163.196C198.274 162.79 198.274 162.384 198.274 161.986C198.274 161.174 198.193 160.419 198.136 159.672C197.901 156.684 197.6 154.093 197.365 151.974C197.129 149.855 196.91 148.222 196.772 147.102C196.707 146.55 196.658 146.128 196.618 145.819C196.577 145.51 196.756 145.242 196.756 145.242Z" fill="#EB996E"/>
<path d="M196.221 120.541C196.009 120.232 195.782 119.934 195.539 119.648C195.235 119.348 194.884 119.101 194.499 118.917C194.275 118.791 194.016 118.741 193.762 118.775C193.507 118.808 193.27 118.924 193.086 119.104L193.127 118.974C193.232 119.786 193.395 120.761 193.476 121.8C193.557 122.839 193.582 123.952 193.549 125.113C193.448 127.569 193.147 130.014 192.648 132.421C192.461 133.339 192.299 134.045 192.177 134.589C192.141 134.87 192.061 135.144 191.941 135.401C192.019 134.393 192.155 133.389 192.347 132.397C192.769 130.004 193.04 127.588 193.159 125.162C193.159 124.017 193.159 122.921 193.103 121.914C193.046 120.907 192.9 119.949 192.818 119.104V119.031L192.859 118.974C192.975 118.843 193.117 118.737 193.277 118.665C193.436 118.592 193.609 118.554 193.785 118.552C194.085 118.551 194.38 118.623 194.645 118.763C195.049 118.962 195.411 119.238 195.709 119.575C195.896 119.797 196.051 120.042 196.172 120.306C196.213 120.436 196.237 120.541 196.221 120.541Z" fill="#EB996E"/>
<path d="M196.439 131.065C196.348 130.647 196.283 130.224 196.244 129.798C196.184 129.324 196.021 128.87 195.765 128.467C195.366 128.006 194.805 127.715 194.198 127.655L194.417 127.492C194.369 129.035 194.271 130.886 194.076 132.859C193.808 135.628 193.41 138.129 193.069 139.924C192.891 140.817 192.728 141.548 192.607 142.035C192.566 142.3 192.486 142.557 192.371 142.798C192.452 141.815 192.585 140.836 192.769 139.867C193.045 138.072 193.394 135.58 193.654 132.819C193.849 130.854 193.971 129.011 194.06 127.476V127.265L194.271 127.305C194.957 127.403 195.577 127.765 196.001 128.312C196.258 128.759 196.411 129.259 196.447 129.774C196.514 130.202 196.511 130.638 196.439 131.065Z" fill="#EB996E"/>
<path d="M192.444 145.722C192.371 145.811 191.916 145.47 191.859 144.828C191.803 144.187 192.176 143.756 192.265 143.838C192.355 143.919 192.225 144.301 192.265 144.788C192.306 145.275 192.509 145.64 192.444 145.722Z" fill="#EB996E"/>
<path d="M191.202 139.031C191.097 139.071 190.788 138.462 190.845 137.634C190.902 136.806 191.291 136.245 191.389 136.302C191.486 136.359 191.308 136.936 191.267 137.666C191.226 138.397 191.316 138.99 191.202 139.031Z" fill="#EB996E"/>
<path d="M207.734 160.63C207.125 157.382 206.029 147.159 205.85 145.941C205.672 144.723 202.359 138.99 201.173 133.663C199.988 128.337 199.119 118.755 199.119 118.755C199.119 118.755 196.074 118.317 196.033 121.816L197.373 148.896C197.373 148.896 196.171 165.689 196.959 167.995C197.747 170.301 200.515 171.99 200.515 171.99L203.089 175.108L210.397 168.612C209.285 166.031 208.394 163.361 207.734 160.63Z" fill="#FFBE9D"/>
<path d="M207.735 160.63C207.735 160.63 207.735 160.67 207.735 160.76C207.735 160.849 207.791 161.003 207.832 161.166C207.93 161.531 208.059 162.059 208.271 162.79C208.891 164.779 209.612 166.736 210.43 168.652V168.717L210.374 168.774L203.122 175.27L203.001 175.376L202.903 175.254L200.313 172.144H200.354C199.592 171.652 198.889 171.074 198.259 170.423C197.569 169.734 197.039 168.903 196.708 167.987C196.516 167.013 196.429 166.023 196.448 165.031C196.448 164.032 196.448 163.017 196.448 161.986C196.537 157.861 196.781 153.468 197.089 148.864C196.862 144.365 196.626 139.599 196.383 134.711C196.229 131.56 196.074 128.475 195.928 125.478C195.928 124.723 195.855 123.984 195.814 123.245C195.745 122.503 195.745 121.755 195.814 121.012C195.856 120.627 195.974 120.254 196.163 119.915C196.351 119.576 196.605 119.278 196.911 119.039C197.541 118.604 198.309 118.413 199.071 118.503H199.225V118.674C199.517 121.776 199.85 124.772 200.248 127.606C200.562 130.327 201.086 133.02 201.815 135.661C202.566 137.977 203.461 140.245 204.495 142.449C204.958 143.497 205.437 144.471 205.794 145.478C205.916 145.987 205.995 146.506 206.029 147.029C206.086 147.524 206.143 148.011 206.2 148.482C206.622 152.282 206.963 155.295 207.223 157.366C207.353 158.372 207.459 159.168 207.532 159.729L207.621 160.338C207.63 160.408 207.63 160.479 207.621 160.549C207.595 160.483 207.576 160.415 207.564 160.346C207.564 160.191 207.499 159.988 207.45 159.737C207.353 159.201 207.223 158.413 207.069 157.382C206.768 155.319 206.387 152.307 205.932 148.515C205.875 148.044 205.81 147.557 205.753 147.061C205.709 146.558 205.63 146.059 205.518 145.567C205.169 144.601 204.665 143.61 204.202 142.579C203.147 140.366 202.233 138.088 201.466 135.758C200.719 133.097 200.176 130.382 199.842 127.638C199.447 124.769 199.1 121.792 198.803 118.706L198.973 118.885C198.318 118.814 197.659 118.978 197.114 119.348C196.852 119.557 196.634 119.816 196.474 120.11C196.314 120.404 196.214 120.728 196.18 121.061C196.111 121.779 196.111 122.503 196.18 123.221C196.18 123.952 196.253 124.699 196.285 125.446C196.44 128.45 196.594 131.536 196.748 134.678C196.992 139.55 197.219 144.325 197.447 148.823C197.13 153.411 196.878 157.812 196.773 161.921C196.773 162.952 196.732 163.959 196.773 164.95C196.753 165.908 196.832 166.866 197.008 167.808C197.322 168.662 197.818 169.438 198.462 170.082C199.071 170.715 199.749 171.279 200.483 171.762L203.058 174.889H202.838L210.146 168.466V168.587C209.343 166.658 208.652 164.685 208.076 162.676C207.881 161.978 207.759 161.442 207.694 161.052L207.621 160.638C207.735 160.679 207.727 160.63 207.735 160.63Z" fill="#EB996E"/>
<path d="M196.155 124.285C196.227 124.022 196.339 123.773 196.488 123.546C196.635 123.259 196.809 122.987 197.008 122.734C197.27 122.365 197.651 122.098 198.088 121.979C198.377 121.937 198.672 121.994 198.924 122.142C199.176 122.289 199.371 122.518 199.476 122.791C199.623 123.374 199.67 123.978 199.614 124.577C199.614 125.795 199.679 127.135 199.809 128.531C200.053 130.918 200.428 133.29 200.93 135.636C201.18 136.604 201.372 137.586 201.506 138.576C201.383 138.336 201.287 138.083 201.222 137.821C201.076 137.325 200.865 136.603 200.638 135.71C200.045 133.365 199.627 130.979 199.387 128.572C199.264 127.244 199.209 125.911 199.225 124.577C199.286 124.035 199.262 123.487 199.152 122.953C199.079 122.749 198.941 122.574 198.759 122.457C198.576 122.339 198.361 122.286 198.145 122.303C197.769 122.399 197.435 122.616 197.195 122.921C196.987 123.149 196.797 123.394 196.626 123.651C196.493 123.879 196.335 124.092 196.155 124.285Z" fill="#EB996E"/>
<path d="M196.691 135.133C196.648 135.016 196.626 134.892 196.626 134.768C196.6 134.422 196.6 134.074 196.626 133.728C196.653 133.181 196.782 132.644 197.007 132.145C197.162 131.808 197.387 131.509 197.667 131.266C197.947 131.024 198.276 130.845 198.631 130.74L198.834 130.675V130.894C199.021 132.38 199.257 134.142 199.573 136.018C200.036 138.803 200.564 141.312 200.97 143.115C201.228 144.083 201.434 145.064 201.587 146.054C201.454 145.818 201.355 145.564 201.295 145.299C201.132 144.804 200.921 144.089 200.678 143.188C200.199 141.394 199.622 138.893 199.159 136.091C198.843 134.207 198.623 132.437 198.469 130.935L198.705 131.089C198.392 131.173 198.101 131.322 197.851 131.526C197.6 131.731 197.396 131.986 197.251 132.275C197.022 132.739 196.873 133.239 196.813 133.753C196.715 134.621 196.748 135.133 196.691 135.133Z" fill="#EB996E"/>
<path d="M201.766 148.986C201.669 148.913 201.856 148.531 201.856 148.044C201.856 147.557 201.71 147.167 201.807 147.094C201.904 147.021 202.294 147.402 202.278 148.052C202.262 148.702 201.84 149.075 201.766 148.986Z" fill="#EB996E"/>
<path d="M202.505 142.23C202.383 142.23 202.448 141.588 202.342 140.866C202.237 140.143 202.026 139.575 202.131 139.518C202.237 139.461 202.651 139.989 202.765 140.809C202.878 141.629 202.61 142.262 202.505 142.23Z" fill="#EB996E"/>
<g opacity="0.3">
<path d="M205.835 174.856C204.332 173.118 202.432 171.373 200.151 171.389C198.112 171.389 196.375 172.81 194.929 174.239C190.278 179.008 186.469 184.532 183.667 190.576C180.752 196.545 177.22 203.723 175.003 209.983C179.875 208.96 184.195 205.923 187.483 202.164C190.772 198.404 193.167 193.93 195.254 189.407C195.985 187.848 197.032 186.037 198.754 185.997C200.021 185.997 201.06 186.979 201.856 187.97C204.137 190.852 205.672 194.247 207.28 197.551C208.888 200.856 210.642 204.169 213.256 206.76C215.871 209.35 219.501 211.144 223.155 210.738C218.981 198.031 214.604 184.957 205.835 174.856Z" fill="black"/>
</g>
<path d="M156.042 128.296C156.042 128.296 145.397 135.003 145.08 148.214C144.764 161.426 145.551 196.642 147.914 201.36C150.277 206.077 151.974 223.056 167.256 215.976C175.823 212.005 185.12 199.119 191.21 188.303C194.065 183.254 196.54 177.999 198.616 172.582L184.235 163.309L166.152 184.689L165.592 164.13L156.042 128.296Z" fill="#122750"/>
<path d="M166.152 184.665C166.152 184.738 165.502 184.779 164.528 185.055C163.236 185.432 162.029 186.052 160.971 186.882C159.914 187.727 158.951 188.682 158.097 189.732C157.765 190.192 157.396 190.624 156.992 191.023C157.201 190.49 157.494 189.993 157.861 189.553C158.662 188.42 159.622 187.408 160.711 186.549C161.806 185.677 163.087 185.068 164.454 184.771C165.007 184.62 165.585 184.584 166.152 184.665Z" fill="#263238"/>
<path d="M166.062 184.503C164.647 184.464 163.231 184.521 161.824 184.673C160.448 184.969 159.092 185.351 157.764 185.818C158.942 184.957 160.325 184.419 161.775 184.259C163.2 183.96 164.68 184.044 166.062 184.503Z" fill="#263238"/>
<path d="M198.616 172.558C198.593 172.709 198.552 172.856 198.494 172.997L198.055 174.223C197.674 175.286 197.065 176.797 196.269 178.656C194.156 183.476 191.68 188.129 188.863 192.574C186.036 197.012 182.913 201.254 179.517 205.274C178.218 206.816 177.138 208.043 176.367 208.863L175.474 209.813C175.373 209.926 175.262 210.03 175.141 210.121C175.215 209.989 175.305 209.867 175.409 209.756L176.221 208.757C176.951 207.896 177.991 206.646 179.266 205.087C182.582 201.022 185.659 196.768 188.482 192.347C191.285 187.919 193.786 183.307 195.968 178.543C196.78 176.707 197.454 175.213 197.877 174.166C198.088 173.687 198.25 173.289 198.388 172.972C198.446 172.825 198.522 172.686 198.616 172.558Z" fill="#263238"/>
<path d="M165.592 164.105C165.603 164.235 165.603 164.365 165.592 164.495C165.592 164.787 165.632 165.161 165.657 165.624C165.697 166.647 165.754 168.06 165.827 169.862C165.949 173.533 166.111 178.656 166.306 184.657L165.965 184.535L173.874 175.157L184.048 163.163L184.154 163.033L184.292 163.123L194.669 169.911L197.568 171.844L198.323 172.363C198.415 172.418 198.499 172.483 198.575 172.558C198.477 172.522 198.384 172.472 198.299 172.412L197.487 171.941L194.531 170.09L184.081 163.439L184.316 163.399L174.183 175.433L166.249 184.795L165.908 185.185V184.673C165.778 178.664 165.665 173.541 165.584 169.87C165.584 168.084 165.535 166.622 165.519 165.624V164.495C165.532 164.363 165.557 164.233 165.592 164.105Z" fill="#263238"/>
<path d="M242.577 124.155C242.577 124.155 251.574 128.71 251.972 149.863C252.37 171.015 253.945 196.106 251.972 200.458C250.478 203.706 246.97 213.653 240.604 217.048C238.688 218.063 237.234 218.111 234.62 217.73C225.931 216.463 214.531 206.305 205.867 189.626C199.273 176.935 198.867 171.056 198.867 171.056L210.966 158.876L234.587 188.165L235.026 160.086L242.577 124.155Z" fill="#122750"/>
<path d="M234.839 160.93C234.839 160.93 234.839 161.093 234.839 161.417C234.839 161.742 234.839 162.229 234.839 162.838C234.839 164.105 234.839 165.932 234.839 168.279C234.839 173.021 234.774 179.826 234.725 188.165V188.611L234.449 188.262L210.787 159.03H211.096L201.742 168.458L198.997 171.218L199.054 171.023C201.284 180.445 205.264 189.364 210.787 197.316C215.172 203.845 220.649 209.57 226.979 214.238C228.244 215.189 229.605 216.005 231.039 216.674C231.698 216.971 232.383 217.207 233.085 217.381C233.753 217.521 234.428 217.624 235.107 217.689C237.353 217.962 239.627 217.516 241.603 216.414C242.815 215.664 243.862 214.675 244.68 213.507C244.965 213.118 245.176 212.801 245.306 212.59C245.436 212.379 245.525 212.281 245.525 212.281C245.281 212.723 245.01 213.149 244.713 213.556C243.918 214.759 242.877 215.78 241.66 216.552C239.658 217.699 237.342 218.177 235.05 217.916C234.392 217.835 233.702 217.778 232.996 217.624C232.277 217.452 231.575 217.213 230.901 216.91C229.448 216.246 228.071 215.429 226.792 214.474C220.405 209.818 214.877 204.086 210.455 197.535C204.883 189.543 200.871 180.57 198.632 171.088V170.975L198.713 170.894L201.458 168.125L210.82 158.705L210.982 158.535L211.129 158.722C220.061 169.83 228.181 179.907 234.677 188.043L234.392 188.14C234.506 179.801 234.587 173.005 234.652 168.263C234.693 165.916 234.725 164.089 234.75 162.822C234.75 162.205 234.75 161.734 234.75 161.401C234.771 161.243 234.801 161.086 234.839 160.93Z" fill="#263238"/>
<path d="M244.234 199.07C243.788 198.517 243.381 197.933 243.016 197.324C242.05 195.918 240.992 194.578 239.849 193.313C238.698 192.056 237.481 190.86 236.203 189.732C235.641 189.292 235.117 188.806 234.636 188.278C235.267 188.617 235.855 189.028 236.39 189.505C237.744 190.573 239.006 191.752 240.165 193.029C241.326 194.306 242.365 195.69 243.267 197.162C243.675 197.751 244 198.393 244.234 199.07Z" fill="#263238"/>
<path d="M241.611 128.393C241.668 128.442 240.962 129.311 239.987 130.829C237.415 134.775 235.733 139.233 235.058 143.895C234.799 145.681 234.75 146.801 234.677 146.801C234.629 146.534 234.616 146.261 234.636 145.989C234.638 145.27 234.682 144.552 234.766 143.838C235.28 139.089 236.993 134.548 239.744 130.643C240.153 130.053 240.595 129.487 241.067 128.946C241.223 128.738 241.406 128.553 241.611 128.393Z" fill="#263238"/>
<path d="M163.61 150.058C163.545 150.058 163.399 148.978 163.075 147.232C162.661 144.959 162.119 142.712 161.451 140.5C160.772 138.294 159.975 136.125 159.063 134.004C158.642 133.142 158.265 132.258 157.935 131.357C158.104 131.554 158.246 131.773 158.357 132.007C158.609 132.437 158.941 133.079 159.331 133.883C160.336 135.981 161.18 138.153 161.857 140.379C162.53 142.606 163.038 144.881 163.375 147.183C163.497 148.068 163.57 148.807 163.602 149.278C163.644 149.536 163.647 149.799 163.61 150.058Z" fill="#263238"/>
<g opacity="0.3">
<path d="M245.411 199.013C245.026 197.302 244.135 195.745 242.853 194.547C240.474 191.997 237.676 189.874 234.579 188.27C238.419 191.344 241.725 195.032 244.364 199.184C244.567 199.508 244.965 199.874 245.265 199.638C245.341 199.556 245.395 199.455 245.421 199.345C245.446 199.235 245.443 199.121 245.411 199.013Z" fill="black"/>
</g>
<g opacity="0.3">
<path d="M165.997 184.641C163.512 184.264 160.972 184.733 158.785 185.973C156.598 187.213 154.892 189.151 153.939 191.478C153.742 191.9 153.642 192.36 153.647 192.826C153.655 193.057 153.726 193.282 153.854 193.475C153.981 193.669 154.16 193.823 154.369 193.922C154.625 193.996 154.897 193.991 155.149 193.907C155.402 193.823 155.623 193.664 155.782 193.451C156.1 193.025 156.347 192.551 156.513 192.046C157.374 190.037 158.754 188.293 160.512 186.994C162.271 185.695 164.343 184.889 166.517 184.657L165.997 184.641Z" fill="black"/>
</g>
<path d="M373.52 384.969C373.52 385.083 297.192 385.18 203 385.18C108.808 385.18 32.4805 385.083 32.4805 384.969C32.4805 384.856 108.808 384.758 203.041 384.758C297.274 384.758 373.52 384.888 373.52 384.969Z" fill="#263238"/>
</svg>
